<svg width="640" height="128" viewBox="0 0 640 128" fill="none" xmlns="http://www.w3.org/2000/svg">
<mask id="mask0_289_111" style="mask-type:luminance" maskUnits="userSpaceOnUse" x="0" y="2" width="640" height="126">
<path d="M640 2.49402H0V127.446H640V2.49402Z" fill="white"/>
</mask>
<g mask="url(#mask0_289_111)">
<path d="M608.883 103.649C626.861 102.888 631.718 83.762 623.104 73.92C623.222 73.159 623.28 72.3983 623.334 71.6373C645.882 68.7454 645.766 35.8202 621.661 36.4291C619.114 36.48 616.573 36.48 613.971 36.5815C629.696 29.1747 626.979 2.43902 605.645 2.99707C418.448 7.76588 231.308 12.5347 44.1114 17.3035C20.9862 17.9123 20.1189 46.0175 39.3126 51.801C32.3174 51.801 25.3798 51.801 18.3845 51.7504C-6.24368 51.598 -6.01241 86.1464 18.3845 87.2119C44.6893 88.3785 70.9363 89.444 97.241 90.3064C88.9162 90.6615 80.591 91.0168 72.208 91.3719C47.8112 92.437 47.6378 127.899 72.208 126.833C251.137 119.122 430.01 111.36 608.941 103.649H608.883Z" fill="#FBB130"/>
</g>
</svg>
