<svg width="640" height="640" viewBox="0 0 640 640" fill="none" xmlns="http://www.w3.org/2000/svg">
<path d="M286.7 91.4799C291.7 108.38 282.1 126.28 265.2 131.28C185.8 154.98 128 228.48 128 315.38C128 421.38 214 507.38 320 507.38C426 507.38 512 421.38 512 315.38C512 228.48 454.2 154.98 374.9 131.28C358 126.28 348.3 108.38 353.4 91.4799C358.5 74.5799 376.3 64.8799 393.2 69.9799C498.9 101.48 576 199.38 576 315.38C576 456.78 461.4 571.38 320 571.38C178.6 571.38 64 456.78 64 315.38C64 199.38 141.1 101.48 246.9 69.9799C263.8 64.9799 281.7 74.5799 286.7 91.4799Z" fill="black"/>
</svg>
