<svg width="640" height="640" viewBox="0 0 640 640" fill="none" xmlns="http://www.w3.org/2000/svg">
<path d="M512 243.2C528.974 243.2 545.253 236.457 557.255 224.455C569.257 212.453 576 196.174 576 179.2C576 162.226 569.257 145.948 557.255 133.945C545.253 121.943 528.974 115.2 512 115.2C495.026 115.2 478.748 121.943 466.745 133.945C454.743 145.948 448 162.226 448 179.2C448 196.174 454.743 212.453 466.745 224.455C478.748 236.457 495.026 243.2 512 243.2ZM108.72 524.8H368.88H428.88H527.12C554.16 524.8 576 502.88 576 475.92C576 466.96 573.52 458.16 568.88 450.48L463.28 277.44C460 272.08 454.24 268.8 448 268.8C441.76 268.8 436 272.08 432.72 277.36L394.16 340.56L293.44 180C288.16 171.52 278.8 166.4 268.8 166.4C258.8 166.4 249.52 171.52 244.16 180L70.88 456.32C66.4 463.44 64 471.68 64 480.08C64 504.8 84 524.8 108.72 524.8Z" fill="black"/>
</svg>
