<svg width="640" height="640" viewBox="0 0 640 640" fill="none" xmlns="http://www.w3.org/2000/svg">
<path d="M348.728 81.9714C343.428 70.9714 332.228 63.9714 319.928 63.9714C307.628 63.9714 296.528 70.9714 291.128 81.9714L226.828 214.271L83.2281 235.471C71.2281 237.271 61.2281 245.671 57.5281 257.171C53.8281 268.671 56.8281 281.371 65.4281 289.871L169.628 392.971L145.028 538.671C143.028 550.671 148.028 562.871 157.928 569.971C167.828 577.071 180.928 577.971 191.728 572.271L320.028 503.771L448.328 572.271C459.128 577.971 472.228 577.171 482.128 569.971C492.028 562.771 497.028 550.671 495.028 538.671L470.328 392.971L574.528 289.871C583.128 281.371 586.228 268.671 582.428 257.171C578.628 245.671 568.728 237.271 556.728 235.471L413.028 214.271L348.728 81.9714Z" fill="black"/>
</svg>
