<svg width="640" height="640" viewBox="0 0 640 640" fill="none" xmlns="http://www.w3.org/2000/svg">
<path d="M160.011 96C160.011 78.3 174.311 64 192.011 64H448.011C465.711 64 480.011 78.3 480.011 96C480.011 113.7 465.711 128 448.011 128H418.511L429.911 276.2C466.611 296.1 495.611 329.4 509.411 370.9L510.411 373.9C513.711 383.7 512.011 394.4 506.011 402.7C500.011 411 490.311 416 480.011 416H160.011C149.711 416 140.111 411.1 134.011 402.7C127.911 394.3 126.311 383.6 129.611 373.9L130.611 370.9C144.411 329.4 173.411 296.1 210.111 276.2L221.511 128H192.011C174.311 128 160.011 113.7 160.011 96ZM288.011 448H352.011V544C352.011 561.7 337.711 576 320.011 576C302.311 576 288.011 561.7 288.011 544V448Z" fill="black"/>
</svg>
