<svg width="640" height="640" viewBox="0 0 640 640" fill="none" xmlns="http://www.w3.org/2000/svg">
<path d="M392.8 65.1999C375.8 60.2999 358.1 70.1999 353.2 87.1999L225.2 535.2C220.3 552.2 230.2 569.9 247.2 574.8C264.2 579.7 281.9 569.8 286.8 552.8L414.8 104.8C419.7 87.7999 409.8 70.0999 392.8 65.1999ZM473.4 185.3C460.9 197.8 460.9 218.1 473.4 230.6L562.7 320L473.3 409.4C460.8 421.9 460.8 442.2 473.3 454.7C485.8 467.2 506.1 467.2 518.6 454.7L630.6 342.7C643.1 330.2 643.1 309.9 630.6 297.4L518.6 185.4C506.1 172.9 485.8 172.9 473.3 185.4L473.4 185.3ZM166.7 185.3C154.2 172.8 133.9 172.8 121.4 185.3L9.40002 297.3C-3.09998 309.8 -3.09998 330.1 9.40002 342.6L121.4 454.6C133.9 467.1 154.2 467.1 166.7 454.6C179.2 442.1 179.2 421.8 166.7 409.3L77.3 320L166.7 230.6C179.2 218.1 179.2 197.8 166.7 185.3Z" fill="black"/>
</svg>
