<svg width="640" height="640" viewBox="0 0 640 640" fill="none" xmlns="http://www.w3.org/2000/svg">
<path d="M288 128V192C288 209.7 302.3 224 320 224H384C401.7 224 416 209.7 416 192V128C416 110.3 401.7 96 384 96H320C302.3 96 288 110.3 288 128ZM178.7 271C163.4 279.8 158.2 299.4 167 314.7L199 370.1C207.8 385.4 227.4 390.6 242.7 381.8L298.1 349.8C313.4 341 318.6 321.4 309.8 306.1L277.8 250.7C269 235.4 249.4 230.2 234.1 239L178.7 271ZM384 256C366.3 256 352 270.3 352 288V352C352 369.7 366.3 384 384 384H448C465.7 384 480 369.7 480 352V288C480 270.3 465.7 256 448 256H384ZM448 416C430.3 416 416 430.3 416 448V512C416 529.7 430.3 544 448 544H512C529.7 544 544 529.7 544 512V448C544 430.3 529.7 416 512 416H448ZM256 448V512C256 529.7 270.3 544 288 544H352C369.7 544 384 529.7 384 512V448C384 430.3 369.7 416 352 416H288C270.3 416 256 430.3 256 448ZM128 416C110.3 416 96 430.3 96 448V512C96 529.7 110.3 544 128 544H192C209.7 544 224 529.7 224 512V448C224 430.3 209.7 416 192 416H128Z" fill="black"/>
</svg>
