<svg width="640" height="640" viewBox="0 0 640 640" fill="none" xmlns="http://www.w3.org/2000/svg">
<path d="M160 88C160 74.7 170.7 64 184 64H296C309.3 64 320 74.7 320 88C320 101.3 309.3 112 296 112H280L384 256H500.4C508.1 256 515.7 257.4 522.9 260.1L625 298.4C634 301.8 640 310.4 640 320C640 329.6 634 338.2 625 341.6L522.9 379.9C515.7 382.6 508.1 384 500.4 384H384L280 528H296C309.3 528 320 538.7 320 552C320 565.3 309.3 576 296 576H184C170.7 576 160 565.3 160 552C160 538.7 170.7 528 184 528H192V384H160L105.4 438.6C99.4 444.6 91.3 448 82.8 448H64C46.3 448 32 433.7 32 416V352C14.3 352 0 337.7 0 320C0 302.3 14.3 288 32 288V224C32 206.3 46.3 192 64 192H82.7C91.2 192 99.3 195.4 105.3 201.4L160 256H192V112H184C170.7 112 160 101.3 160 88ZM80 304C71.2 304 64 311.2 64 320C64 328.8 71.2 336 80 336H144C152.8 336 160 328.8 160 320C160 311.2 152.8 304 144 304H80Z" fill="black"/>
</svg>
