<svg width="640" height="640" viewBox="0 0 640 640" fill="none" xmlns="http://www.w3.org/2000/svg">
<path d="M297.389 105.35C309.889 92.8501 330.189 92.8501 342.689 105.35L470.689 233.35C479.889 242.55 482.589 256.25 477.589 268.25C472.589 280.25 460.989 288.05 447.989 288.05H191.989C179.089 288.05 167.389 280.25 162.389 268.25C157.389 256.25 160.189 242.55 169.289 233.35L297.289 105.35H297.389ZM297.389 534.65L169.389 406.65C160.189 397.45 157.489 383.75 162.489 371.75C167.489 359.75 179.089 351.95 192.089 351.95H447.989C460.889 351.95 472.589 359.75 477.589 371.75C482.589 383.75 479.789 397.45 470.689 406.65L342.689 534.65C330.189 547.15 309.889 547.15 297.389 534.65Z" fill="black"/>
</svg>
