<svg width="640" height="640" viewBox="0 0 640 640" fill="none" xmlns="http://www.w3.org/2000/svg">
<path d="M368 112C368 99.2696 362.943 87.0606 353.941 78.0589C344.939 69.0571 332.73 64 320 64C307.27 64 295.061 69.0571 286.059 78.0589C277.057 87.0606 272 99.2696 272 112C272 124.73 277.057 136.939 286.059 145.941C295.061 154.943 307.27 160 320 160C332.73 160 344.939 154.943 353.941 145.941C362.943 136.939 368 124.73 368 112ZM368 528C368 515.27 362.943 503.061 353.941 494.059C344.939 485.057 332.73 480 320 480C307.27 480 295.061 485.057 286.059 494.059C277.057 503.061 272 515.27 272 528C272 540.73 277.057 552.939 286.059 561.941C295.061 570.943 307.27 576 320 576C332.73 576 344.939 570.943 353.941 561.941C362.943 552.939 368 540.73 368 528ZM112 368C124.73 368 136.939 362.943 145.941 353.941C154.943 344.939 160 332.73 160 320C160 307.27 154.943 295.061 145.941 286.059C136.939 277.057 124.73 272 112 272C99.2696 272 87.0606 277.057 78.0589 286.059C69.0571 295.061 64 307.27 64 320C64 332.73 69.0571 344.939 78.0589 353.941C87.0606 362.943 99.2696 368 112 368ZM576 320C576 307.27 570.943 295.061 561.941 286.059C552.939 277.057 540.73 272 528 272C515.27 272 503.061 277.057 494.059 286.059C485.057 295.061 480 307.27 480 320C480 332.73 485.057 344.939 494.059 353.941C503.061 362.943 515.27 368 528 368C540.73 368 552.939 362.943 561.941 353.941C570.943 344.939 576 332.73 576 320ZM206.9 501C211.358 496.542 214.895 491.249 217.308 485.424C219.721 479.598 220.963 473.355 220.963 467.05C220.963 460.745 219.721 454.502 217.308 448.676C214.895 442.851 211.358 437.558 206.9 433.1C202.442 428.642 197.149 425.105 191.324 422.692C185.498 420.279 179.255 419.037 172.95 419.037C160.216 419.037 148.004 424.096 139 433.1C129.996 442.104 124.937 454.316 124.937 467.05C124.937 479.784 129.996 491.996 139 501C148.004 510.004 160.216 515.063 172.95 515.063C185.684 515.063 197.896 510.004 206.9 501ZM206.9 206.8C211.58 202.394 215.327 197.092 217.919 191.21C220.511 185.328 221.896 178.985 221.99 172.558C222.084 166.13 220.887 159.75 218.468 153.794C216.05 147.838 212.46 142.429 207.911 137.887C203.363 133.345 197.948 129.763 191.989 127.354C186.03 124.944 179.647 123.756 173.22 123.86C166.793 123.963 160.452 125.357 154.574 127.958C148.696 130.559 143.4 134.314 139 139C129.996 148.004 124.937 160.216 124.937 172.95C124.937 185.684 129.996 197.896 139 206.9C148.004 215.904 160.216 220.963 172.95 220.963C185.684 220.963 197.896 215.904 206.9 206.9V206.8ZM433.1 501C437.558 505.458 442.851 508.995 448.676 511.408C454.502 513.821 460.745 515.063 467.05 515.063C473.355 515.063 479.598 513.821 485.424 511.408C491.249 508.995 496.542 505.458 501 501C505.458 496.542 508.995 491.249 511.408 485.424C513.821 479.598 515.063 473.355 515.063 467.05C515.063 460.745 513.821 454.502 511.408 448.676C508.995 442.851 505.458 437.558 501 433.1C496.542 428.642 491.249 425.105 485.424 422.692C479.598 420.279 473.355 419.037 467.05 419.037C460.745 419.037 454.502 420.279 448.676 422.692C442.851 425.105 437.558 428.642 433.1 433.1C428.642 437.558 425.105 442.851 422.692 448.676C420.279 454.502 419.037 460.745 419.037 467.05C419.037 473.355 420.279 479.598 422.692 485.424C425.105 491.249 428.642 496.542 433.1 501Z" fill="black"/>
</svg>
