<svg width="640" height="640" viewBox="0 0 640 640" fill="none" xmlns="http://www.w3.org/2000/svg">
<g clip-path="url(#clip0_17_219)">
<path d="M425.5 65.2C430.5 67.3 434.1 71.8 435.1 77.1L455 185L562.9 204.8C568.2 205.8 572.7 209.4 574.8 214.4C576.9 219.4 576.3 225.1 573.2 229.6L510.9 320L573.2 410.3C576.3 414.8 576.9 420.5 574.8 425.5C572.7 430.5 568.2 434.1 562.9 435.1L455 455L435.1 562.9C434.1 568.2 430.5 572.7 425.5 574.8C420.5 576.9 414.8 576.3 410.3 573.2L320 510.9L229.7 573.2C225.2 576.3 219.5 576.9 214.5 574.8C209.5 572.7 205.9 568.2 204.9 562.9L185 455L77.1 435.1C71.8 434.1 67.3 430.5 65.2 425.5C63.1 420.5 63.7 414.8 66.8 410.3L129.1 320L66.8 229.7C63.7 225.2 63.1 219.5 65.2 214.5C67.3 209.5 71.8 205.9 77.1 204.9L185 185L204.9 77.1C205.9 71.8 209.5 67.3 214.5 65.2C219.5 63.1 225.2 63.7 229.7 66.8L320 129.1L410.3 66.8C414.8 63.7 420.5 63.1 425.5 65.2ZM448 320C448 286.052 434.514 253.495 410.51 229.49C386.505 205.486 353.948 192 320 192C286.052 192 253.495 205.486 229.49 229.49C205.486 253.495 192 286.052 192 320C192 353.948 205.486 386.505 229.49 410.51C253.495 434.514 286.052 448 320 448C353.948 448 386.505 434.514 410.51 410.51C434.514 386.505 448 353.948 448 320Z" fill="black"/>
<g clip-path="url(#clip1_17_219)">
<path d="M321.676 212.375C262.177 212.375 214 260.566 214 320C214 379.434 262.177 427.625 321.676 427.625C350.871 427.625 377.32 415.998 396.736 397.163C399.145 394.809 399.771 391.157 398.229 388.179C396.687 385.2 393.363 383.518 390.039 384.095C385.318 384.911 380.5 385.344 375.538 385.344C328.854 385.344 290.987 347.483 290.987 300.781C290.987 269.166 308.331 241.636 334.009 227.125C336.948 225.444 338.441 222.08 337.719 218.813C336.996 215.546 334.202 213.096 330.829 212.807C327.794 212.567 324.759 212.423 321.676 212.423V212.375Z" fill="black"/>
</g>
</g>
<defs>
<clipPath id="clip0_17_219">
<rect width="512" height="512" fill="white" transform="translate(64 64)"/>
</clipPath>
<clipPath id="clip1_17_219">
<rect width="185" height="246" fill="white" transform="translate(214 197)"/>
</clipPath>
</defs>
</svg>
