<svg width="640" height="640" viewBox="0 0 640 640" fill="none" xmlns="http://www.w3.org/2000/svg">
<path fill-rule="evenodd" clip-rule="evenodd" d="M251.599 64.7994C259.999 62.5994 268.999 64.9994 274.999 71.2994L319.999 117.499L364.999 71.2994C370.999 64.9994 379.899 62.4994 388.299 64.7994C396.699 67.0994 403.299 73.6994 405.399 82.0994L421.299 144.599L483.299 127.099C491.699 124.699 500.699 127.099 506.799 133.199C512.899 139.299 515.299 148.299 512.899 156.699L495.399 218.699L557.899 234.499C566.299 236.699 572.899 243.199 575.199 251.599C577.499 259.999 574.999 268.899 568.799 274.999L522.599 319.999L568.799 364.999C574.999 370.999 577.499 379.999 575.199 388.399C572.899 396.799 566.299 403.399 557.899 405.499L495.399 421.299L512.899 483.299C515.299 491.699 512.899 500.699 506.799 506.799C500.699 512.899 491.699 515.299 483.299 512.899L421.299 495.399L405.499 557.899C403.299 566.299 396.799 572.899 388.399 575.199C379.999 577.499 371.099 574.999 364.999 568.799L319.999 522.599L274.999 568.799C268.899 574.999 259.999 577.499 251.599 575.199C243.199 572.899 236.599 566.299 234.499 557.899L218.699 495.399L156.699 512.899C148.299 515.299 139.299 512.899 133.199 506.799C127.099 500.699 124.699 491.699 127.099 483.299L144.599 421.299L82.0992 405.499C73.6992 403.299 66.9992 396.799 64.7992 388.399C62.5992 379.999 64.9992 370.999 71.2992 364.999L117.499 319.999L71.2992 274.999C64.9992 268.999 62.4992 260.099 64.7992 251.699C67.0992 243.299 73.6992 236.699 82.0992 234.599L144.599 218.699L127.099 156.699C124.699 148.299 127.099 139.299 133.199 133.199C139.299 127.099 148.299 124.699 156.699 127.099L218.699 144.599L234.499 82.0994C236.699 73.6994 243.199 66.9994 251.599 64.7994ZM367.784 299.51C354.978 312.309 337.61 319.5 319.499 319.5C301.389 319.5 284.02 312.309 271.214 299.51C258.408 286.71 251.213 269.351 251.213 251.25C251.213 233.148 258.408 215.789 271.214 202.989C284.02 190.19 301.389 183 319.499 183C337.61 183 354.978 190.19 367.784 202.989C380.591 215.789 387.785 233.148 387.785 251.25C387.785 269.351 380.591 286.71 367.784 299.51ZM199.999 440.163C199.999 387.643 242.571 345.093 295.119 345.093H343.879C396.427 345.093 438.999 387.643 438.999 440.163C438.999 448.908 431.904 456 423.155 456H215.844C207.095 456 199.999 448.908 199.999 440.163Z" fill="black"/>
</svg>
