<svg width="500" height="500" viewBox="0 0 500 500" fill="none" xmlns="http://www.w3.org/2000/svg">
<path d="M343.489 59L345.044 71.6694L356.892 66.6569L346.582 74.3139L356.892 81.9708L345.044 76.9757L343.489 89.6278L341.951 76.9757L330.085 81.9708L340.396 74.3139L330.085 66.6569L341.951 71.6694L343.489 59Z" fill="#FCA311"/>
<path d="M67.54 204.102L69.0952 216.754L80.9433 211.759L70.6331 219.416L80.9433 227.072L69.0952 222.06L67.54 234.729L66.0022 222.06L54.1366 227.072L64.4469 219.416L54.1366 211.759L66.0022 216.754L67.54 204.102Z" fill="#FCA311"/>
<path d="M355.494 273.809L356.28 280.273L362.344 277.715L357.067 281.639L362.344 285.545L356.28 282.987L355.494 289.469L354.69 282.987L348.644 285.545L353.904 281.639L348.644 277.715L354.69 280.273L355.494 273.809Z" fill="#FCA311"/>
<path d="M28.3434 426.498L29.0774 432.496L34.6869 430.111L29.8114 433.741L34.6869 437.37L29.0774 435.002L28.3434 441L27.6095 435.002L22 437.37L26.8755 433.741L22 430.111L27.6095 432.496L28.3434 426.498Z" fill="#FCA311"/>
<path d="M221.88 326.111L223.086 335.946L232.312 332.057L224.291 338.003L232.312 343.949L223.086 340.06L221.88 349.912L220.691 340.06L211.465 343.949L219.486 338.003L211.465 332.057L220.691 335.946L221.88 326.111Z" fill="#FCA311"/>
<path d="M437.138 148.049L437.924 154.392L443.865 151.886L438.693 155.723L443.865 159.56L437.924 157.054L437.138 163.397L436.369 157.054L430.427 159.56L435.6 155.723L430.427 151.886L436.369 154.392L437.138 148.049Z" fill="#FCA311"/>
<path d="M101.931 96.5415L102.7 102.816L108.589 100.344L103.469 104.147L108.589 107.949L102.7 105.46L101.931 111.752L101.162 105.46L95.2729 107.949L100.393 104.147L95.2729 100.344L101.162 102.816L101.931 96.5415Z" fill="#FCA311"/>
<g opacity="0.5">
<path d="M343.489 59L345.044 71.6694L356.892 66.6569L346.582 74.3139L356.892 81.9708L345.044 76.9757L343.489 89.6278L341.951 76.9757L330.085 81.9708L340.396 74.3139L330.085 66.6569L341.951 71.6694L343.489 59Z" fill="white"/>
<path d="M67.54 204.102L69.0952 216.754L80.9433 211.759L70.6331 219.416L80.9433 227.072L69.0952 222.06L67.54 234.729L66.0022 222.06L54.1366 227.072L64.4469 219.416L54.1366 211.759L66.0022 216.754L67.54 204.102Z" fill="white"/>
<path d="M355.494 273.809L356.28 280.273L362.344 277.715L357.067 281.639L362.344 285.545L356.28 282.987L355.494 289.469L354.69 282.987L348.644 285.545L353.904 281.639L348.644 277.715L354.69 280.273L355.494 273.809Z" fill="white"/>
<path d="M28.3434 426.498L29.0774 432.496L34.6869 430.111L29.8114 433.741L34.6869 437.37L29.0774 435.002L28.3434 441L27.6095 435.002L22 437.37L26.8755 433.741L22 430.111L27.6095 432.496L28.3434 426.498Z" fill="white"/>
<path d="M221.88 326.111L223.086 335.946L232.312 332.057L224.291 338.003L232.312 343.949L223.086 340.06L221.88 349.912L220.691 340.06L211.465 343.949L219.486 338.003L211.465 332.057L220.691 335.946L221.88 326.111Z" fill="white"/>
<path d="M437.138 148.049L437.924 154.392L443.865 151.886L438.693 155.723L443.865 159.56L437.924 157.054L437.138 163.397L436.369 157.054L430.427 159.56L435.6 155.723L430.427 151.886L436.369 154.392L437.138 148.049Z" fill="white"/>
<path d="M101.931 96.5415L102.7 102.816L108.589 100.344L103.469 104.147L108.589 107.949L102.7 105.46L101.931 111.752L101.162 105.46L95.2729 107.949L100.393 104.147L95.2729 100.344L101.162 102.816L101.931 96.5415Z" fill="white"/>
</g>
<path d="M220.761 166.474L227.21 165.938L227.751 159.56L232.679 163.708L237.625 159.56L238.166 165.938L244.615 166.474L240.438 171.365L244.615 176.239L238.166 176.775L237.625 183.153L232.679 179.022L227.751 183.153L227.21 176.775L220.761 176.239L224.938 171.365L220.761 166.474Z" fill="#FCA311"/>
<path d="M221.775 160.684C219.591 158.955 217.459 157.33 215.344 155.619L212.233 152.992C211.697 152.576 211.184 152.132 210.696 151.661C210.469 151.402 210.241 151.16 210.032 150.883C209.822 150.607 209.63 150.33 210.032 149.466L210.573 148.947C211.43 148.567 211.744 148.723 212.006 148.947C212.275 149.146 212.531 149.36 212.775 149.587C213.262 150.065 213.717 150.573 214.138 151.108L216.794 154.202C218.542 156.293 220.29 158.385 221.915 160.545L221.775 160.684Z" fill="#FCA311"/>
<path d="M217.336 171.452C214.61 171.815 211.901 172.091 209.175 172.35L205.086 172.679C204.408 172.768 203.725 172.814 203.042 172.817H202.028C201.696 172.817 201.347 172.696 201.015 171.815V171.054C201.347 170.19 201.696 170.086 202.028 170.069C202.366 170.052 202.704 170.052 203.042 170.069C203.725 170.072 204.408 170.118 205.086 170.207L209.175 170.518C211.901 170.795 214.61 171.071 217.336 171.434V171.452Z" fill="#FCA311"/>
<path d="M221.897 182.168C220.22 184.311 218.513 186.426 216.777 188.511L214.121 191.588C213.708 192.13 213.253 192.639 212.758 193.109L211.989 193.766C211.727 193.99 211.412 194.163 210.556 193.766L210.014 193.23C209.63 192.383 209.804 192.072 210.014 191.83C210.222 191.559 210.443 191.3 210.678 191.052C211.157 190.572 211.671 190.127 212.216 189.721L215.327 187.094C217.441 185.365 219.573 183.637 221.757 182.012L221.897 182.168Z" fill="#FCA311"/>
<path d="M232.784 186.61C233.134 189.306 233.431 192.003 233.693 194.682L234.025 198.726C234.109 199.397 234.15 200.072 234.147 200.748C234.164 201.082 234.164 201.417 234.147 201.751C234.147 202.097 234.025 202.425 233.151 202.771H232.4C231.508 202.425 231.421 202.097 231.404 201.751C231.386 201.417 231.386 201.082 231.404 200.748C231.392 200.072 231.433 199.396 231.526 198.726L231.858 194.682C232.12 192.003 232.417 189.306 232.767 186.61H232.784Z" fill="#FCA311"/>
<path d="M243.601 182.029C245.786 183.758 247.918 185.383 250.032 187.111L253.143 189.738C253.687 190.144 254.201 190.589 254.68 191.069C254.915 191.317 255.137 191.576 255.344 191.847C255.572 192.089 255.729 192.4 255.344 193.247L254.803 193.783C253.946 194.163 253.632 193.99 253.37 193.783L252.583 193.126C252.099 192.651 251.649 192.143 251.238 191.605L248.582 188.528C246.834 186.437 245.087 184.328 243.461 182.185L243.601 182.029Z" fill="#FCA311"/>
<path d="M248.04 171.279C250.766 170.916 253.475 170.639 256.201 170.363L260.29 170.052C260.962 169.963 261.639 169.917 262.317 169.913C262.66 169.896 263.005 169.896 263.348 169.913C263.68 169.913 264.03 170.034 264.362 170.898V171.642C264.03 172.523 263.68 172.627 263.348 172.644H262.317C261.639 172.641 260.962 172.594 260.29 172.506L256.201 172.178C253.475 171.918 250.766 171.642 248.04 171.279Z" fill="#FCA311"/>
<path d="M243.479 160.562C245.139 158.402 246.869 156.311 248.599 154.219L251.255 151.125C251.676 150.595 252.125 150.087 252.601 149.604C252.863 149.38 253.125 149.155 253.387 148.965C253.649 148.775 253.964 148.567 254.82 148.965L255.362 149.483C255.729 150.347 255.572 150.659 255.362 150.901C255.152 151.143 254.925 151.419 254.698 151.678C254.21 152.149 253.697 152.593 253.16 153.009L250.049 155.636C247.935 157.365 245.803 159.093 243.619 160.701L243.479 160.562Z" fill="#FCA311"/>
<path d="M232.592 156.172C232.242 153.493 231.945 150.797 231.683 148.101L231.351 144.073C231.258 143.403 231.217 142.727 231.229 142.051C231.212 141.711 231.212 141.371 231.229 141.031C231.229 140.703 231.334 140.357 232.225 140.029H232.976C233.85 140.357 233.955 140.703 233.972 141.031C233.99 141.371 233.99 141.711 233.972 142.051C233.975 142.727 233.934 143.402 233.85 144.073L233.518 148.101C233.256 150.797 232.959 153.493 232.609 156.172H232.592Z" fill="#FCA311"/>
<path d="M223.697 150.106C221.46 146.268 219.521 142.293 217.563 138.335C216.602 136.347 215.641 134.377 214.75 132.355C214.331 131.335 213.876 130.332 213.509 129.295L212.933 127.74C212.784 127.431 212.731 127.085 212.781 126.747C212.83 126.409 212.981 126.092 213.212 125.838L213.911 125.562C214.255 125.579 214.586 125.697 214.863 125.9C215.14 126.103 215.35 126.382 215.466 126.703L216.165 128.206C216.655 129.192 217.057 130.211 217.494 131.231C218.297 133.288 219.031 135.362 219.765 137.436C221.216 141.602 222.684 145.767 223.854 150.036L223.697 150.106Z" fill="#FCA311"/>
<path d="M211.202 162.637C206.869 161.479 202.675 160.027 198.463 158.592C196.366 157.849 194.252 157.123 192.19 156.328C191.159 155.913 190.128 155.515 189.114 155.032L187.611 154.323C187.284 154.21 186.998 154.004 186.789 153.73C186.581 153.456 186.459 153.127 186.44 152.785L186.737 152.041C186.994 151.812 187.314 151.664 187.656 151.615C187.998 151.565 188.348 151.618 188.66 151.765L190.215 152.335C191.281 152.681 192.294 153.13 193.325 153.545C195.353 154.427 197.362 155.394 199.372 156.345C203.374 158.264 207.393 160.182 211.272 162.395L211.202 162.637Z" fill="#FCA311"/>
<path d="M211.202 180.267C207.323 182.479 203.304 184.38 199.302 186.316C197.292 187.267 195.283 188.235 193.256 189.099C192.225 189.531 191.211 189.963 190.145 190.326L188.59 190.896C188.278 191.044 187.928 191.096 187.586 191.047C187.244 190.997 186.924 190.849 186.668 190.62L186.37 189.928C186.389 189.586 186.511 189.257 186.719 188.983C186.928 188.709 187.214 188.503 187.541 188.39L189.044 187.699C190.058 187.215 191.089 186.817 192.12 186.402C194.182 185.59 196.296 184.864 198.393 184.138C202.605 182.704 206.799 181.252 211.133 180.094L211.202 180.267Z" fill="#FCA311"/>
<path d="M223.854 192.677C222.683 196.963 221.216 201.129 219.765 205.294C219.031 207.368 218.297 209.442 217.493 211.499C217.057 212.502 216.655 213.539 216.165 214.524L215.466 216.01C215.352 216.334 215.144 216.617 214.867 216.824C214.59 217.03 214.257 217.15 213.911 217.168L213.212 216.875C212.984 216.622 212.836 216.309 212.786 215.974C212.737 215.639 212.787 215.297 212.932 214.991L213.509 213.435C213.876 212.398 214.33 211.378 214.75 210.376C215.641 208.354 216.602 206.366 217.563 204.378C219.52 200.42 221.46 196.462 223.697 192.608L223.854 192.677Z" fill="#FCA311"/>
<path d="M241.679 192.608C243.916 196.462 245.856 200.42 247.813 204.378C248.774 206.366 249.735 208.354 250.626 210.376C251.046 211.378 251.5 212.398 251.867 213.435L252.426 214.991C252.573 215.296 252.627 215.637 252.581 215.972C252.534 216.306 252.389 216.62 252.164 216.875L251.465 217.168C251.119 217.15 250.786 217.03 250.509 216.824C250.232 216.617 250.024 216.334 249.91 216.01L249.211 214.524C248.721 213.539 248.32 212.502 247.883 211.499C247.079 209.442 246.345 207.368 245.593 205.294C244.143 201.129 242.675 196.963 241.522 192.677L241.679 192.608Z" fill="#FCA311"/>
<path d="M254.243 180.094C258.577 181.252 262.771 182.704 266.983 184.138C269.08 184.864 271.194 185.59 273.256 186.402C274.287 186.817 275.318 187.215 276.314 187.699L277.835 188.39C278.162 188.503 278.448 188.709 278.657 188.983C278.865 189.257 278.987 189.586 279.006 189.928L278.709 190.62C278.452 190.849 278.132 190.997 277.79 191.047C277.448 191.096 277.098 191.044 276.786 190.896L275.214 190.326C274.165 189.963 273.152 189.531 272.12 189.099C270.093 188.235 268.084 187.267 266.074 186.316C262.072 184.38 258.053 182.479 254.174 180.267L254.243 180.094Z" fill="#FCA311"/>
<path d="M254.174 162.412C258.053 160.2 262.072 158.281 266.074 156.362C268.084 155.412 270.093 154.444 272.12 153.562C273.152 153.148 274.165 152.698 275.214 152.353L276.786 151.782C277.098 151.635 277.448 151.583 277.79 151.632C278.132 151.681 278.452 151.83 278.709 152.059L279.006 152.733C278.987 153.075 278.865 153.404 278.657 153.678C278.448 153.952 278.162 154.158 277.835 154.271L276.314 154.98C275.318 155.464 274.287 155.861 273.256 156.276C271.194 157.071 269.08 157.797 266.983 158.54C262.771 159.975 258.577 161.427 254.243 162.585L254.174 162.412Z" fill="#FCA311"/>
<path d="M241.522 150.036C242.675 145.767 244.143 141.602 245.593 137.436C246.345 135.362 247.079 133.288 247.883 131.231C248.32 130.211 248.721 129.192 249.211 128.206L249.91 126.703C250.026 126.382 250.236 126.103 250.513 125.9C250.79 125.697 251.121 125.579 251.465 125.562L252.164 125.838C252.393 126.094 252.54 126.411 252.586 126.75C252.633 127.088 252.577 127.433 252.426 127.74L251.867 129.295C251.5 130.332 251.046 131.335 250.626 132.355C249.735 134.377 248.774 136.347 247.813 138.335C245.856 142.293 243.916 146.268 241.679 150.106L241.522 150.036Z" fill="#FCA311"/>
<path d="M240.228 137.868C241.661 128.206 243.199 118.579 244.772 108.952L247.201 94.5193C247.585 92.1167 247.952 89.7142 248.459 87.329C248.721 86.1364 248.983 84.9438 249.298 83.7511C249.393 83.0834 249.628 82.4429 249.989 81.8711C250.351 81.2994 250.83 80.8092 251.395 80.4326L252.374 80.6227C252.735 81.1871 252.974 81.8194 253.077 82.4797C253.179 83.1401 253.142 83.8143 252.968 84.4598C252.793 85.6697 252.583 86.8796 252.356 88.0722C251.919 90.4747 251.325 92.8427 250.748 95.2106L247.463 109.47C245.203 118.953 242.873 128.437 240.473 137.92L240.228 137.868Z" fill="#FCA311"/>
<path d="M232.505 118.7C232.12 114.154 231.875 109.626 231.631 105.08C231.386 100.534 231.264 96.0057 231.072 91.4599C230.879 86.9142 230.74 82.3857 230.705 77.8399C230.705 75.5757 230.705 73.3114 230.705 71.0299L230.827 67.5731C230.757 66.9341 230.841 66.288 231.072 65.6872C231.303 65.0865 231.674 64.5482 232.155 64.1162H233.151C233.628 64.5516 233.996 65.0903 234.226 65.6902C234.457 66.29 234.543 66.9345 234.479 67.5731L234.584 71.0299C234.584 73.2942 234.584 75.5584 234.584 77.8399C234.584 82.3684 234.339 86.9142 234.182 91.4427C234.025 95.9712 233.833 100.534 233.588 105.063C233.343 109.591 233.064 114.137 232.679 118.683L232.505 118.7Z" fill="#FCA311"/>
<path d="M226.353 134.204C223.19 125.026 220.132 115.831 217.091 106.549L212.635 92.7217C211.866 90.4228 211.08 88.124 210.433 85.8079C210.119 84.6499 209.804 83.4746 209.542 82.3511C209.308 81.7298 209.21 81.0662 209.255 80.4046C209.3 79.7429 209.488 79.0984 209.804 78.514L210.765 78.2374C211.347 78.5714 211.851 79.0224 212.246 79.5613C212.64 80.1002 212.916 80.715 213.055 81.3659C213.457 82.5066 213.824 83.6647 214.191 84.8227C214.89 87.1388 215.449 89.4895 216.043 91.8402L219.66 105.927C221.99 115.33 224.32 124.744 226.65 134.169L226.353 134.204Z" fill="#FCA311"/>
<path d="M256.638 131.992C258.385 127.204 260.395 122.451 262.352 117.715C264.309 112.979 266.354 108.278 268.346 103.559C270.338 98.8403 272.383 94.139 274.514 89.4895C275.598 87.1734 276.646 84.8227 277.817 82.5758L279.565 79.1189C279.8 78.4589 280.173 77.8557 280.661 77.3491C281.149 76.8426 281.741 76.4443 282.396 76.1806L283.304 76.5954C283.515 77.2605 283.584 77.9612 283.509 78.654C283.434 79.3468 283.216 80.0169 282.868 80.6227L281.33 84.0795C280.316 86.4302 279.198 88.7463 278.114 90.9932C275.895 95.6081 273.571 100.171 271.247 104.821C268.922 109.47 266.598 113.947 264.257 118.493C261.915 123.038 259.451 127.55 256.917 132.026L256.638 131.992Z" fill="#FCA311"/>
<path d="M261.461 139.942C265.084 134.884 268.736 129.848 272.418 124.836L277.992 117.473C278.918 116.211 279.827 114.949 280.806 113.757C281.312 113.152 281.819 112.564 282.343 112.028C282.593 111.666 282.925 111.367 283.314 111.156C283.703 110.946 284.137 110.83 284.58 110.818L285.174 111.285C285.259 111.716 285.242 112.16 285.124 112.583C285.005 113.006 284.789 113.396 284.493 113.722C284.038 114.344 283.584 114.967 283.095 115.589C282.151 116.816 281.103 117.974 280.089 119.132L273.99 126.115C269.901 130.782 265.777 135.466 261.6 140.081L261.461 139.942Z" fill="#FCA311"/>
<path d="M262.999 148.135C266.738 145.041 270.548 142.034 274.375 139.061C278.202 136.088 282.081 133.184 285.926 130.229C289.77 127.273 293.667 124.387 297.599 121.586C299.574 120.186 301.549 118.769 303.558 117.438L306.599 115.433C307.111 115.006 307.71 114.693 308.355 114.517C309.001 114.341 309.678 114.306 310.338 114.413L310.915 115.226C310.805 115.878 310.55 116.498 310.17 117.042C309.789 117.586 309.292 118.04 308.713 118.372L305.812 120.549C303.855 122.001 301.863 123.367 299.888 124.767C295.887 127.515 291.832 130.159 287.778 132.821C283.724 135.483 279.652 138.128 275.546 140.703C271.439 143.278 267.332 145.888 263.138 148.343L262.999 148.135Z" fill="#FCA311"/>
<path d="M204.212 149.31C195.778 144.701 187.366 140.029 178.978 135.293L166.449 128.137C164.352 126.962 162.237 125.804 160.21 124.525C159.197 123.885 158.183 123.229 157.205 122.554C156.614 122.25 156.097 121.824 155.687 121.305C155.277 120.786 154.984 120.187 154.828 119.547L155.352 118.7C156 118.559 156.671 118.554 157.321 118.685C157.971 118.816 158.586 119.08 159.127 119.461C160.193 120.031 161.224 120.636 162.255 121.189C164.334 122.416 166.327 123.764 168.319 125.095L180.394 132.994C188.398 138.295 196.384 143.647 204.352 149.051L204.212 149.31Z" fill="#FCA311"/>
<path d="M187.524 148.222C182.84 147.064 178.192 145.784 173.544 144.471C168.895 143.157 164.299 141.792 159.686 140.444C155.073 139.095 150.459 137.713 145.881 136.226C143.591 135.466 141.302 134.74 139.048 133.91L135.658 132.666C135.013 132.51 134.411 132.216 133.894 131.803C133.377 131.391 132.959 130.871 132.669 130.28L132.984 129.33C133.586 129.053 134.242 128.91 134.906 128.91C135.57 128.91 136.226 129.053 136.829 129.33L140.324 130.367C142.63 131.058 144.902 131.853 147.174 132.614C151.717 134.187 156.226 135.881 160.734 137.557C165.243 139.234 169.752 140.91 174.225 142.742C178.699 144.575 183.19 146.199 187.629 148.152L187.524 148.222Z" fill="#FCA311"/>
<path d="M200.717 135.414C197.065 132.061 193.5 128.604 189.953 125.147C186.405 121.69 182.963 118.233 179.468 114.655C175.973 111.078 172.478 107.638 168.983 104.043C167.235 102.314 165.593 100.448 163.967 98.581L161.503 95.7982C161 95.3397 160.601 94.7805 160.333 94.1576C160.064 93.5348 159.933 92.8626 159.948 92.1858L160.7 91.5117C161.38 91.5543 162.044 91.7397 162.647 92.0556C163.249 92.3715 163.777 92.8107 164.195 93.3438L166.816 95.9883C168.563 97.7168 170.206 99.5835 171.901 101.398C175.221 105.063 178.472 108.796 181.74 112.529C185.007 116.263 188.24 119.996 191.421 123.799C194.601 127.601 197.799 131.369 200.892 135.258L200.717 135.414Z" fill="#FCA311"/>
<path d="M212.251 137.937C207.672 131.248 203.059 124.577 198.603 117.818L191.84 107.707C190.687 105.979 189.586 104.354 188.502 102.643C187.978 101.779 187.454 100.914 186.965 100.016C186.316 99.1204 186.041 98.0125 186.196 96.9218L186.842 96.5415C187.897 96.884 188.779 97.6141 189.306 98.5811C189.889 99.4107 190.471 100.258 191.054 101.122C192.12 102.85 193.168 104.579 194.164 106.307L200.315 116.781C204.44 123.695 208.441 130.799 212.548 137.816L212.251 137.937Z" fill="#FCA311"/>
<path d="M202.867 192.59C195.026 197.948 187.145 203.249 179.223 208.492L167.305 216.287C165.33 217.601 163.356 218.932 161.329 220.141C160.298 220.746 159.267 221.334 158.218 221.87C157.686 222.247 157.079 222.508 156.438 222.636C155.796 222.764 155.134 222.756 154.496 222.613L153.954 221.766C154.113 221.134 154.403 220.542 154.806 220.027C155.209 219.512 155.717 219.086 156.296 218.776C157.274 218.102 158.271 217.462 159.267 216.823C161.276 215.561 163.356 214.42 165.435 213.262L177.808 206.193C186.091 201.544 194.391 196.911 202.727 192.366L202.867 192.59Z" fill="#FCA311"/>
<path d="M207.288 202.788C203.409 206.884 199.459 210.894 195.492 214.887C191.526 218.88 187.489 222.803 183.487 226.761C179.485 230.719 175.448 234.626 171.359 238.497C169.297 240.399 167.253 242.334 165.121 244.184L161.958 246.967C160.929 248.099 159.492 248.788 157.956 248.885L157.274 248.159C157.471 246.653 158.255 245.282 159.459 244.339L162.499 241.401C164.509 239.431 166.589 237.547 168.651 235.628C172.827 231.86 177.074 228.161 181.32 224.463C185.567 220.764 189.813 217.065 194.112 213.418C198.411 209.771 202.71 206.141 207.113 202.615L207.288 202.788Z" fill="#FCA311"/>
<path d="M187.594 182.444C182.718 184.173 177.808 185.711 172.88 187.267C167.952 188.822 163.024 190.274 158.096 191.795C153.168 193.316 148.222 194.751 143.259 196.134C140.76 196.79 138.279 197.499 135.78 198.069L132.005 198.968C131.346 199.209 130.643 199.31 129.942 199.265C129.241 199.22 128.557 199.031 127.934 198.709L127.672 197.741C128.043 197.15 128.538 196.644 129.122 196.257C129.707 195.87 130.368 195.609 131.062 195.494L134.784 194.405C137.248 193.645 139.747 193.022 142.228 192.366C147.226 191.087 152.242 189.929 157.274 188.753C162.307 187.578 167.323 186.42 172.355 185.296C177.388 184.173 182.456 183.136 187.524 182.168L187.594 182.444Z" fill="#FCA311"/>
<path d="M194.461 172.921C187.471 174.062 180.586 175.133 173.648 176.188L163.163 177.691C161.416 177.968 159.668 178.244 157.921 178.417C157.047 178.417 156.173 178.59 155.3 178.642C154.822 178.73 154.33 178.714 153.859 178.594C153.388 178.475 152.95 178.255 152.574 177.951V177.207C152.873 176.83 153.251 176.52 153.683 176.299C154.114 176.079 154.588 175.952 155.072 175.928L157.676 175.548C159.424 175.323 161.171 175.22 162.919 175.081L173.404 174.217C180.394 173.676 187.384 173.18 194.374 172.731L194.461 172.921Z" fill="#FCA311"/>
<path d="M198.97 165.091C193.885 164.745 188.834 164.261 183.802 163.76C178.769 163.259 173.718 162.671 168.668 162.135C163.618 161.6 158.602 160.995 153.57 160.303C151.071 159.94 148.554 159.612 146.055 159.18L142.316 158.523C141.636 158.47 140.974 158.278 140.373 157.96C139.771 157.641 139.243 157.204 138.821 156.674L138.978 155.688C139.545 155.293 140.19 155.022 140.871 154.894C141.553 154.766 142.254 154.783 142.927 154.945L146.702 155.377C149.218 155.688 151.717 156.086 154.216 156.449C159.232 157.227 164.212 158.177 169.21 159.024C174.208 159.871 179.188 160.753 184.151 161.79C189.114 162.827 194.112 163.743 199.075 164.849L198.97 165.091Z" fill="#FCA311"/>
<path d="M238.673 205.156C241.085 214.628 243.392 224.169 245.663 233.589L248.984 247.848C249.56 250.216 250.154 252.584 250.609 254.969C250.836 256.179 251.046 257.372 251.22 258.582C251.398 259.226 251.439 259.9 251.339 260.56C251.24 261.221 251.003 261.854 250.644 262.419L249.648 262.661C249.095 262.273 248.63 261.777 248.281 261.202C247.933 260.628 247.708 259.989 247.621 259.325C247.323 258.15 247.044 256.957 246.782 255.764C246.275 253.379 245.891 250.977 245.506 248.574L243.025 234.142C241.434 224.532 239.879 214.887 238.429 205.242L238.673 205.156Z" fill="#FCA311"/>
<path d="M255.502 224.774C257.599 228.334 259.573 231.947 261.548 235.559C263.523 239.171 265.393 242.836 267.315 246.465C269.237 250.095 271.107 253.759 272.907 257.458C273.781 259.308 274.654 261.157 275.493 263.041L276.699 265.876C277 266.378 277.167 266.947 277.185 267.53C277.204 268.113 277.072 268.692 276.804 269.211L275.86 269.574C275.287 269.432 274.758 269.152 274.319 268.761C273.881 268.369 273.546 267.877 273.344 267.327L271.946 264.597C271.002 262.764 270.198 260.898 269.29 259.031C267.542 255.298 266.004 251.512 264.397 247.727C262.789 243.942 261.199 240.157 259.678 236.337C258.158 232.517 256.638 228.68 255.24 224.808L255.502 224.774Z" fill="#FCA311"/>
<path d="M231.543 218.914C231.718 223.892 231.77 228.87 231.805 233.831C231.84 238.791 231.805 243.769 231.805 248.73C231.805 253.69 231.718 258.668 231.561 263.629C231.456 266.118 231.386 268.589 231.211 271.061L230.949 274.777C230.978 275.457 230.861 276.135 230.605 276.767C230.348 277.399 229.96 277.969 229.464 278.441H228.468C228.011 277.933 227.671 277.333 227.469 276.683C227.267 276.033 227.208 275.348 227.297 274.673V270.94C227.297 268.468 227.454 265.979 227.559 263.508C227.821 258.547 228.206 253.587 228.573 248.643C228.94 243.7 229.306 238.739 229.761 233.796C230.215 228.853 230.687 223.892 231.281 218.949L231.543 218.914Z" fill="#FCA311"/>
<path d="M225.008 209.615C223.26 216.754 221.513 223.892 219.765 230.996L217.057 241.678C216.62 243.406 216.148 245.134 215.659 246.984C215.379 247.865 215.099 248.712 214.802 249.611C214.697 250.106 214.486 250.572 214.185 250.98C213.884 251.388 213.499 251.729 213.055 251.979L212.338 251.772C212.104 251.327 211.967 250.84 211.933 250.34C211.9 249.84 211.973 249.339 212.146 248.868C212.338 247.969 212.583 247.139 212.828 246.189C213.334 244.46 213.876 242.732 214.47 241.004L217.878 230.529C220.097 223.616 222.491 216.581 224.868 209.615H225.008Z" fill="#FCA311"/>
<path d="M209.28 211.499C207.533 215.06 205.698 218.568 203.845 222.06C201.993 225.551 200.036 228.974 198.149 232.43C196.261 235.887 194.287 239.344 192.277 242.801C191.246 244.529 190.232 246.258 189.149 247.831L187.506 250.302C187.245 250.805 186.863 251.236 186.393 251.558C185.924 251.881 185.382 252.085 184.815 252.152L183.959 251.633C183.746 251.109 183.674 250.54 183.747 249.98C183.82 249.421 184.038 248.889 184.378 248.436L185.829 245.843C186.807 244.115 187.856 242.386 188.887 240.779C191.001 237.426 193.221 234.142 195.422 230.858C197.624 227.574 199.826 224.29 202.115 221.04C204.405 217.791 206.676 214.559 209.105 211.396L209.28 211.499Z" fill="#FCA311"/>
<path d="M266.686 177.968C276.565 178.924 286.433 179.932 296.288 180.993L311.072 182.721C313.536 182.98 316 183.222 318.447 183.603C319.67 183.793 320.893 184 322.117 184.242C322.795 184.293 323.456 184.482 324.057 184.797C324.659 185.113 325.188 185.547 325.612 186.074L325.454 187.059C324.898 187.443 324.269 187.71 323.605 187.844C322.941 187.977 322.256 187.975 321.592 187.837C320.352 187.716 319.128 187.578 317.888 187.422C315.441 187.094 312.995 186.627 310.566 186.195L295.904 183.654C286.153 181.926 276.384 180.198 266.651 178.244L266.686 177.968Z" fill="#FCA311"/>
<path d="M284.598 171.244C288.914 170.674 293.335 170.242 297.599 169.81C301.863 169.378 306.337 169.066 310.618 168.686C314.899 168.306 319.356 167.995 323.637 167.77C325.804 167.666 327.988 167.563 330.155 167.528H333.423C334.031 167.455 334.647 167.523 335.224 167.727C335.8 167.931 336.321 168.265 336.743 168.703V169.706C336.355 170.168 335.86 170.531 335.301 170.766C334.742 171 334.134 171.099 333.528 171.054L330.277 171.296C328.093 171.469 325.926 171.521 323.759 171.624C319.408 171.745 315.022 171.763 310.688 171.78C306.354 171.797 301.95 171.78 297.634 171.78C293.318 171.78 288.897 171.642 284.545 171.452L284.598 171.244Z" fill="#FCA311"/>
<path d="M275.633 164.866C283.462 162.447 291.36 160.148 299.172 157.953L310.968 154.617C312.942 154.046 314.899 153.441 316.892 152.992C317.888 152.767 318.884 152.56 319.897 152.37C320.45 152.199 321.036 152.16 321.607 152.256C322.178 152.352 322.718 152.581 323.183 152.923L323.427 153.891C323.178 154.41 322.807 154.863 322.345 155.211C321.883 155.56 321.343 155.795 320.771 155.896C319.792 156.207 318.814 156.483 317.818 156.743C315.843 157.244 313.833 157.624 311.824 158.022L299.801 160.528C291.78 162.118 283.741 163.691 275.685 165.177L275.633 164.866Z" fill="#FCA311"/>
<path d="M267.857 192.936C273.099 195.097 278.114 197.343 283.217 199.625C288.32 201.907 293.353 204.274 298.438 206.539C303.523 208.803 308.556 211.24 313.571 213.677C316.053 214.922 318.569 216.131 321.016 217.462L324.79 219.45C326.203 220.015 327.333 221.108 327.936 222.492L327.482 223.374C326.748 223.547 325.987 223.574 325.242 223.452C324.498 223.33 323.786 223.063 323.148 222.665L319.356 220.937C316.822 219.778 314.358 218.499 311.859 217.255C306.896 214.714 301.985 212.07 297.075 209.442C292.164 206.815 287.236 204.153 282.361 201.457C277.485 198.761 272.627 196.03 267.804 193.195L267.857 192.936Z" fill="#FCA311"/>
<path d="M264.414 199.832C270.111 203.825 275.738 207.887 281.365 211.931L289.753 218.119C291.168 219.139 292.584 220.142 293.929 221.23C294.611 221.766 295.275 222.319 295.922 222.959C296.32 223.227 296.654 223.578 296.902 223.987C297.149 224.396 297.304 224.853 297.354 225.327L296.883 225.914C296.403 225.975 295.916 225.932 295.454 225.789C294.993 225.646 294.568 225.406 294.209 225.085C293.492 224.584 292.793 224.065 292.112 223.547C290.731 222.492 289.421 221.351 288.093 220.228L280.107 213.539C274.829 209.068 269.587 204.551 264.379 199.988L264.414 199.832Z" fill="#FCA311"/>
<path d="M254.296 200.748C257.791 204.776 261.286 208.872 264.781 212.986C268.276 217.099 271.544 221.265 274.934 225.413C278.324 229.561 281.644 233.727 284.93 237.944C286.537 240.07 288.18 242.179 289.718 244.357L292.06 247.606C292.551 248.141 292.927 248.769 293.165 249.453C293.402 250.136 293.496 250.861 293.44 251.582L292.636 252.186C291.918 252.04 291.237 251.75 290.636 251.334C290.035 250.918 289.526 250.384 289.141 249.767L286.642 246.638C284.895 244.564 283.357 242.421 281.749 240.295C278.551 236.008 275.458 231.653 272.365 227.297C269.272 222.941 266.162 218.655 263.138 214.178C260.115 209.702 257.075 205.381 254.156 200.887L254.296 200.748Z" fill="#FCA311"/>
<path d="M283.881 147.997C287.691 145.94 291.57 144.004 295.45 142.086C299.329 140.167 303.244 138.318 307.141 136.451C311.037 134.584 314.952 132.735 318.901 130.989C320.893 130.142 322.868 129.261 324.878 128.466L327.901 127.29C328.443 127.02 329.041 126.879 329.648 126.879C330.255 126.879 330.854 127.02 331.396 127.29L331.798 128.206C331.615 128.782 331.296 129.307 330.868 129.736C330.439 130.166 329.913 130.489 329.334 130.678L326.398 132.061C324.441 132.959 322.449 133.789 320.457 134.636C316.455 136.364 312.418 137.851 308.381 139.407C304.345 140.962 300.308 142.5 296.149 143.987C291.99 145.473 288.005 146.925 283.916 148.291L283.881 147.997Z" fill="#FCA311"/>
<g opacity="0.3">
<path d="M232.505 118.7C232.12 114.154 231.875 109.626 231.631 105.08C231.386 100.534 231.264 96.0057 231.072 91.4599C230.879 86.9142 230.74 82.3857 230.705 77.8399C230.705 75.5757 230.705 73.3114 230.705 71.0299L230.827 67.5731C230.757 66.9341 230.841 66.288 231.072 65.6872C231.303 65.0865 231.674 64.5482 232.155 64.1162H233.151C233.628 64.5516 233.996 65.0903 234.226 65.6902C234.457 66.29 234.543 66.9345 234.479 67.5731L234.584 71.0299C234.584 73.2942 234.584 75.5584 234.584 77.8399C234.584 82.3684 234.339 86.9142 234.182 91.4427C234.025 95.9712 233.833 100.534 233.588 105.063C233.343 109.591 233.064 114.137 232.679 118.683L232.505 118.7Z" fill="black"/>
<path d="M256.638 131.992C258.385 127.204 260.395 122.451 262.352 117.715C264.309 112.979 266.354 108.278 268.346 103.559C270.338 98.8403 272.383 94.139 274.514 89.4895C275.598 87.1734 276.646 84.8227 277.817 82.5758L279.565 79.1189C279.8 78.4589 280.173 77.8557 280.661 77.3491C281.149 76.8426 281.741 76.4443 282.396 76.1806L283.304 76.5954C283.515 77.2605 283.584 77.9612 283.509 78.654C283.434 79.3468 283.216 80.0169 282.868 80.6227L281.33 84.0795C280.316 86.4302 279.198 88.7463 278.114 90.9932C275.895 95.6081 273.571 100.171 271.247 104.821C268.922 109.47 266.598 113.947 264.257 118.493C261.915 123.038 259.451 127.55 256.917 132.026L256.638 131.992Z" fill="black"/>
<path d="M262.999 148.135C266.738 145.041 270.548 142.034 274.375 139.061C278.202 136.088 282.081 133.184 285.926 130.229C289.77 127.273 293.667 124.387 297.599 121.586C299.574 120.186 301.549 118.769 303.558 117.438L306.599 115.433C307.111 115.006 307.71 114.693 308.355 114.517C309.001 114.341 309.678 114.306 310.338 114.413L310.915 115.226C310.805 115.878 310.55 116.498 310.17 117.042C309.789 117.586 309.292 118.04 308.713 118.372L305.812 120.549C303.855 122.001 301.863 123.367 299.888 124.767C295.887 127.515 291.832 130.159 287.778 132.821C283.724 135.483 279.652 138.128 275.546 140.703C271.439 143.278 267.332 145.888 263.138 148.343L262.999 148.135Z" fill="black"/>
<path d="M204.212 149.31C195.778 144.701 187.366 140.029 178.978 135.293L166.449 128.137C164.352 126.962 162.237 125.804 160.21 124.525C159.197 123.885 158.183 123.229 157.205 122.554C156.614 122.25 156.097 121.824 155.687 121.305C155.277 120.786 154.984 120.187 154.828 119.547L155.352 118.7C156 118.559 156.671 118.554 157.321 118.685C157.971 118.816 158.586 119.08 159.127 119.461C160.193 120.031 161.224 120.636 162.255 121.189C164.334 122.416 166.327 123.764 168.319 125.095L180.394 132.994C188.398 138.295 196.384 143.647 204.352 149.051L204.212 149.31Z" fill="black"/>
<path d="M212.251 137.937C207.672 131.248 203.059 124.577 198.603 117.818L191.84 107.707C190.687 105.979 189.586 104.354 188.502 102.643C187.978 101.779 187.454 100.914 186.965 100.016C186.316 99.1204 186.041 98.0125 186.196 96.9218L186.842 96.5415C187.897 96.884 188.779 97.6141 189.306 98.5811C189.889 99.4107 190.471 100.258 191.054 101.122C192.12 102.85 193.168 104.579 194.164 106.307L200.315 116.781C204.44 123.695 208.441 130.799 212.548 137.816L212.251 137.937Z" fill="black"/>
<path d="M207.288 202.788C203.409 206.884 199.459 210.894 195.492 214.887C191.526 218.88 187.489 222.803 183.487 226.761C179.485 230.719 175.448 234.626 171.359 238.497C169.297 240.399 167.253 242.334 165.121 244.184L161.958 246.967C160.929 248.099 159.492 248.788 157.956 248.885L157.274 248.159C157.471 246.653 158.255 245.282 159.459 244.339L162.499 241.401C164.509 239.431 166.589 237.547 168.651 235.628C172.827 231.86 177.074 228.161 181.32 224.463C185.567 220.764 189.813 217.065 194.112 213.418C198.411 209.771 202.71 206.141 207.113 202.615L207.288 202.788Z" fill="black"/>
<path d="M187.594 182.444C182.718 184.173 177.808 185.711 172.88 187.267C167.952 188.822 163.024 190.274 158.096 191.795C153.168 193.316 148.222 194.751 143.259 196.134C140.76 196.79 138.279 197.499 135.78 198.069L132.005 198.968C131.346 199.209 130.643 199.31 129.942 199.265C129.241 199.22 128.557 199.031 127.934 198.709L127.672 197.741C128.043 197.15 128.538 196.644 129.122 196.257C129.707 195.87 130.368 195.609 131.062 195.494L134.784 194.405C137.248 193.645 139.747 193.022 142.228 192.366C147.226 191.087 152.242 189.929 157.274 188.753C162.307 187.578 167.323 186.42 172.355 185.296C177.388 184.173 182.456 183.136 187.524 182.168L187.594 182.444Z" fill="black"/>
<path d="M198.97 165.091C193.885 164.745 188.834 164.261 183.802 163.76C178.769 163.259 173.718 162.671 168.668 162.135C163.618 161.6 158.602 160.995 153.57 160.303C151.071 159.94 148.554 159.612 146.055 159.18L142.316 158.523C141.636 158.47 140.974 158.278 140.373 157.96C139.771 157.641 139.243 157.204 138.821 156.674L138.978 155.688C139.545 155.293 140.19 155.022 140.871 154.894C141.553 154.766 142.254 154.783 142.927 154.945L146.702 155.377C149.218 155.688 151.717 156.086 154.216 156.449C159.232 157.227 164.212 158.177 169.21 159.024C174.208 159.871 179.188 160.753 184.151 161.79C189.114 162.827 194.112 163.743 199.075 164.849L198.97 165.091Z" fill="black"/>
<path d="M238.673 205.156C241.085 214.628 243.392 224.169 245.663 233.589L248.984 247.848C249.56 250.216 250.154 252.584 250.609 254.969C250.836 256.179 251.046 257.372 251.22 258.582C251.398 259.226 251.439 259.9 251.339 260.56C251.24 261.221 251.003 261.854 250.644 262.419L249.648 262.661C249.095 262.273 248.63 261.777 248.281 261.202C247.933 260.628 247.708 259.989 247.621 259.325C247.323 258.15 247.044 256.957 246.782 255.764C246.275 253.379 245.891 250.977 245.506 248.574L243.025 234.142C241.434 224.532 239.879 214.887 238.429 205.242L238.673 205.156Z" fill="black"/>
<path d="M225.008 209.615C223.26 216.754 221.513 223.892 219.765 230.996L217.057 241.678C216.62 243.406 216.148 245.134 215.659 246.984C215.379 247.865 215.099 248.712 214.802 249.611C214.697 250.106 214.486 250.572 214.185 250.98C213.884 251.388 213.499 251.729 213.055 251.979L212.338 251.772C212.104 251.327 211.967 250.84 211.933 250.34C211.9 249.84 211.973 249.339 212.146 248.868C212.338 247.969 212.583 247.139 212.828 246.189C213.334 244.46 213.876 242.732 214.47 241.004L217.878 230.529C220.097 223.616 222.491 216.581 224.868 209.615H225.008Z" fill="black"/>
<path d="M266.686 177.968C276.565 178.924 286.433 179.932 296.288 180.993L311.072 182.721C313.536 182.98 316 183.222 318.447 183.603C319.67 183.793 320.893 184 322.117 184.242C322.795 184.293 323.456 184.482 324.057 184.797C324.659 185.113 325.188 185.547 325.612 186.074L325.454 187.059C324.898 187.443 324.269 187.71 323.605 187.844C322.941 187.977 322.256 187.975 321.592 187.837C320.352 187.716 319.128 187.578 317.888 187.422C315.441 187.094 312.995 186.627 310.566 186.195L295.904 183.654C286.153 181.926 276.384 180.198 266.651 178.244L266.686 177.968Z" fill="black"/>
<path d="M275.633 164.866C283.462 162.447 291.36 160.148 299.172 157.953L310.968 154.617C312.942 154.046 314.899 153.441 316.892 152.992C317.888 152.767 318.884 152.56 319.897 152.37C320.45 152.199 321.036 152.16 321.607 152.256C322.178 152.352 322.718 152.581 323.183 152.923L323.427 153.891C323.178 154.41 322.807 154.863 322.345 155.211C321.883 155.56 321.343 155.795 320.771 155.896C319.792 156.207 318.814 156.483 317.818 156.743C315.843 157.244 313.833 157.624 311.824 158.022L299.801 160.528C291.78 162.118 283.741 163.691 275.685 165.177L275.633 164.866Z" fill="black"/>
<path d="M267.857 192.936C273.099 195.097 278.114 197.343 283.217 199.625C288.32 201.907 293.353 204.274 298.438 206.539C303.523 208.803 308.556 211.24 313.571 213.677C316.053 214.922 318.569 216.131 321.016 217.462L324.79 219.45C326.203 220.015 327.333 221.108 327.936 222.492L327.482 223.374C326.748 223.547 325.987 223.574 325.242 223.452C324.498 223.33 323.786 223.063 323.148 222.665L319.356 220.937C316.822 219.778 314.358 218.499 311.859 217.255C306.896 214.714 301.985 212.07 297.075 209.442C292.164 206.815 287.236 204.153 282.361 201.457C277.485 198.761 272.627 196.03 267.804 193.195L267.857 192.936Z" fill="black"/>
<path d="M254.296 200.748C257.791 204.776 261.286 208.872 264.781 212.986C268.276 217.099 271.544 221.265 274.934 225.413C278.324 229.561 281.644 233.727 284.93 237.944C286.537 240.07 288.18 242.179 289.718 244.357L292.06 247.606C292.551 248.141 292.927 248.769 293.165 249.453C293.402 250.136 293.496 250.861 293.44 251.582L292.636 252.186C291.918 252.04 291.237 251.75 290.636 251.334C290.035 250.918 289.526 250.384 289.141 249.767L286.642 246.638C284.895 244.564 283.357 242.421 281.749 240.295C278.551 236.008 275.458 231.653 272.365 227.297C269.272 222.941 266.162 218.655 263.138 214.178C260.115 209.702 257.075 205.381 254.156 200.887L254.296 200.748Z" fill="black"/>
</g>
<path d="M78.1298 332.126C76.8716 331.781 75.596 331.435 74.3552 331.037L72.4854 330.45C72.1716 330.362 71.8624 330.258 71.5592 330.139L71.1398 329.914C70.9825 329.914 70.8602 329.741 70.8602 329.292L71 328.963C71.3146 328.652 71.4893 328.652 71.6291 328.721L72.101 328.86L72.9747 329.292L74.7222 330.19C75.8756 330.761 77.0114 331.418 78.2172 332.057L78.1298 332.126Z" fill="#FCA311"/>
<path d="M79.8075 336.983C78.392 337.709 76.9765 338.487 75.5435 339.178L73.3941 340.25L72.3106 340.751L71.734 340.941C71.5592 340.941 71.3495 341.045 71 340.734L70.8602 340.405C70.8602 339.939 71.0525 339.818 71.2272 339.749L71.7689 339.472L72.9048 339.075L75.194 338.331C76.6969 337.813 78.2522 337.363 79.7725 336.897L79.8075 336.983Z" fill="#FCA311"/>
<path d="M82.1666 341.598C81.7996 342.843 81.4676 344.087 81.0482 345.314L80.4715 347.164C80.3851 347.475 80.2801 347.781 80.157 348.08L79.9298 348.512C79.9298 348.667 79.7551 348.788 79.3007 348.771L78.9687 348.65C78.6367 348.339 78.6541 348.166 78.7066 348.011L78.8638 347.561C78.9858 347.259 79.1259 346.965 79.2832 346.68L80.1919 344.951C80.7861 343.793 81.4327 342.67 82.0792 341.494L82.1666 341.598Z" fill="#FCA311"/>
<path d="M86.7451 339.109C87.5664 340.647 88.3877 342.186 89.1392 343.741L90.31 346.075C90.5197 346.455 90.6944 346.853 90.8692 347.25L91.0789 347.855C91.0789 348.062 91.2012 348.287 90.8867 348.65L90.5546 348.771C90.0828 348.771 89.9605 348.564 89.8731 348.356L89.576 347.769C89.4188 347.371 89.2615 346.974 89.1217 346.559L88.2829 344.087C87.7062 342.462 87.1994 340.803 86.6752 339.144L86.7451 339.109Z" fill="#FCA311"/>
<path d="M91.7255 337.605C92.9837 337.968 94.2594 338.297 95.5001 338.694L97.3699 339.282C97.6838 339.37 97.9929 339.474 98.2961 339.593L98.7155 339.818C98.8728 339.818 98.9951 339.991 98.9951 340.44L98.8553 340.768C98.5408 341.097 98.366 341.08 98.2262 341.01L97.7544 340.872C97.4514 340.753 97.1591 340.608 96.8806 340.44L95.1331 339.541C93.9798 338.971 92.8439 338.314 91.6381 337.692L91.7255 337.605Z" fill="#FCA311"/>
<path d="M90.0479 332.731C91.4633 331.988 92.8788 331.21 94.3118 330.519L96.4612 329.465C96.8107 329.274 97.1777 329.102 97.5447 328.946L98.1213 328.756C98.2961 328.756 98.5058 328.67 98.8553 328.963L98.9951 329.292C98.9951 329.758 98.8029 329.879 98.6281 329.966L98.0864 330.225C97.7194 330.381 97.335 330.502 96.9505 330.623L94.6613 331.366C93.1584 331.884 91.6031 332.334 90.0828 332.8L90.0479 332.731Z" fill="#FCA311"/>
<path d="M87.6888 328.151C88.0557 326.889 88.3878 325.645 88.8072 324.417L89.3838 322.568C89.4703 322.257 89.5753 321.951 89.6984 321.652L89.9256 321.22C89.9256 321.082 90.1003 320.943 90.5547 320.961L90.8867 321.099C91.2187 321.393 91.2012 321.566 91.1488 321.721L90.9915 322.188C90.8695 322.484 90.7294 322.773 90.5721 323.052L89.6634 324.78C89.0693 325.939 88.4052 327.062 87.7761 328.237L87.6888 328.151Z" fill="#FCA311"/>
<path d="M82.7608 329.81C82.0094 328.41 81.2405 327.01 80.5415 325.576L79.458 323.467C79.2676 323.114 79.0984 322.751 78.9512 322.378L78.759 321.825C78.759 321.635 78.6541 321.427 78.9687 321.099L79.3007 320.961C79.7551 320.961 79.8949 321.151 79.9648 321.324L80.2269 321.859C80.3842 322.222 80.524 322.603 80.6463 322.966L81.3977 325.23C81.922 326.734 82.3763 328.255 82.8482 329.776L82.7608 329.81Z" fill="#FCA311"/>
<path d="M77.0289 327.114C75.2814 325.818 73.7261 324.418 72.1359 323.018L69.7768 320.874C69.4098 320.511 69.0254 320.148 68.6759 319.751L68.1341 319.163C68.0075 319.058 67.9174 318.917 67.8767 318.759C67.8359 318.601 67.8465 318.434 67.907 318.282L68.1516 318.022C68.3104 317.971 68.4811 317.966 68.6426 318.009C68.8041 318.052 68.9493 318.141 69.0603 318.264L69.637 318.783C70.0389 319.146 70.4059 319.526 70.7903 319.889L72.9398 322.223C74.3552 323.795 75.7707 325.368 77.0814 327.045L77.0289 327.114Z" fill="#FCA311"/>
<path d="M73.7961 334.909C71.6641 335.186 69.5322 335.307 67.4177 335.428L64.2197 335.566C63.6955 335.566 63.1538 335.566 62.6295 335.566H61.8257C61.6621 335.577 61.4991 335.538 61.3586 335.454C61.218 335.371 61.1066 335.247 61.0393 335.099V334.736C61.1086 334.59 61.2204 334.467 61.3605 334.384C61.5006 334.301 61.6625 334.261 61.8257 334.27H62.6295C63.1538 334.27 63.6955 334.27 64.2197 334.27L67.4177 334.408C69.5322 334.529 71.6641 334.65 73.7961 334.926V334.909Z" fill="#FCA311"/>
<path d="M77.0814 342.687C75.7707 344.415 74.3553 345.936 72.9398 347.509L70.7904 349.843C70.4059 350.223 70.0389 350.603 69.637 350.949L69.0603 351.485C68.9486 351.607 68.8025 351.694 68.6406 351.734C68.4788 351.774 68.3085 351.766 68.1516 351.709L67.907 351.45C67.8491 351.298 67.8399 351.132 67.8805 350.974C67.9211 350.816 68.0096 350.675 68.1341 350.569L68.6759 349.981C69.0254 349.583 69.4098 349.22 69.7768 348.858L72.1359 346.714C73.7262 345.314 75.3164 343.914 77.0289 342.635L77.0814 342.687Z" fill="#FCA311"/>
<path d="M84.9626 345.885C85.2422 347.993 85.3645 350.085 85.5043 352.193L85.6441 355.356C85.6441 355.875 85.6441 356.393 85.6441 356.929V357.707C85.6588 357.872 85.6212 358.037 85.5366 358.179C85.4521 358.322 85.3247 358.435 85.1723 358.502H84.8228C84.6704 358.435 84.543 358.322 84.4585 358.179C84.3739 358.037 84.3364 357.872 84.351 357.707V356.929C84.351 356.393 84.351 355.875 84.351 355.356L84.4908 352.193C84.6306 350.085 84.7529 347.993 85.015 345.885H84.9626Z" fill="#FCA311"/>
<path d="M92.8264 342.635C94.5739 343.914 96.1292 345.314 97.7194 346.714L100.061 348.858C100.446 349.22 100.83 349.583 101.179 349.981L101.721 350.569C101.846 350.675 101.934 350.816 101.975 350.974C102.015 351.132 102.006 351.298 101.948 351.45L101.704 351.709C101.547 351.766 101.377 351.774 101.215 351.734C101.053 351.694 100.907 351.607 100.795 351.485L100.218 350.949C99.8164 350.603 99.4495 350.223 99.065 349.843L96.9156 347.509C95.5001 345.936 94.0846 344.364 92.774 342.687L92.8264 342.635Z" fill="#FCA311"/>
<path d="M96.0592 334.823C98.1912 334.546 100.323 334.425 102.438 334.304L105.636 334.166C106.16 334.166 106.702 334.166 107.226 334.166H108.03C108.193 334.158 108.355 334.197 108.495 334.281C108.635 334.364 108.747 334.486 108.816 334.633V334.996C108.749 335.143 108.637 335.267 108.497 335.351C108.356 335.434 108.193 335.473 108.03 335.462H107.226C106.702 335.462 106.16 335.462 105.636 335.462L102.438 335.324C100.323 335.203 98.1912 335.082 96.0592 334.805V334.823Z" fill="#FCA311"/>
<path d="M92.7739 327.045C94.0846 325.316 95.5 323.795 96.9155 322.223L99.065 319.889C99.4494 319.526 99.8164 319.146 100.218 318.783L100.795 318.264C100.906 318.141 101.051 318.052 101.213 318.009C101.374 317.966 101.545 317.971 101.704 318.022L101.948 318.282C102.009 318.434 102.019 318.601 101.979 318.759C101.938 318.917 101.848 319.058 101.721 319.163L101.11 319.699C100.76 320.097 100.376 320.459 99.9911 320.822L97.6495 322.966C96.0592 324.366 94.469 325.766 92.7565 327.062L92.7739 327.045Z" fill="#FCA311"/>
<path d="M84.8752 323.847C84.6131 321.756 84.4908 319.647 84.351 317.538L84.2112 314.393C84.2112 313.857 84.2112 313.338 84.2112 312.802V312.025C84.1991 311.86 84.2378 311.697 84.322 311.555C84.4063 311.413 84.5322 311.299 84.683 311.23H85.0325C85.1833 311.299 85.3092 311.413 85.3935 311.555C85.4778 311.697 85.5164 311.86 85.5043 312.025V312.802C85.5043 313.338 85.5043 313.857 85.5043 314.393L85.3645 317.538C85.2247 319.647 85.1024 321.756 84.8228 323.847H84.8752Z" fill="#FCA311"/>
<path d="M81.6599 316.45C80.3842 311.264 79.0735 306.079 77.8678 300.894L76.1203 293.15C75.8057 291.854 75.5086 290.558 75.2465 289.261L74.897 287.343C74.7934 286.992 74.7678 286.624 74.8221 286.263C74.8764 285.902 75.0093 285.557 75.2116 285.251L75.7358 285.148C76.0421 285.352 76.2993 285.621 76.4895 285.935C76.6797 286.248 76.7982 286.599 76.8367 286.963L77.3086 288.898C77.5707 290.195 77.7979 291.508 78.0076 292.822L79.2658 300.686C80.1745 305.872 81.0133 311.178 81.7996 316.432L81.6599 316.45Z" fill="#FCA311"/>
<path d="M73.7261 308.395C72.5902 306.183 71.4893 303.953 70.4233 301.723L67.2603 294.982L64.2022 288.207C63.7304 287.066 63.2411 285.925 62.8042 284.75L62.1402 283.022C61.986 282.713 61.9059 282.373 61.9059 282.028C61.9059 281.683 61.986 281.343 62.1402 281.034L62.6469 280.827C62.9712 280.953 63.2631 281.148 63.5018 281.399C63.7405 281.65 63.92 281.951 64.0275 282.278L64.7964 284.007C65.3206 285.13 65.775 286.288 66.2468 287.464L68.9205 294.378L71.4893 301.291C72.3281 303.625 73.132 305.958 73.9009 308.326L73.7261 308.395Z" fill="#FCA311"/>
<path d="M73.9009 317.469C70.4059 313.477 66.9109 309.519 63.4159 305.474L58.1733 299.442C57.2996 298.457 56.4258 297.437 55.6045 296.4L54.4162 294.827C54.1656 294.559 53.9752 294.242 53.8577 293.897C53.7402 293.551 53.6983 293.185 53.7347 292.822L54.1715 292.493C54.5239 292.55 54.8609 292.677 55.1615 292.867C55.4621 293.057 55.72 293.307 55.919 293.6L57.2297 295.103C58.051 296.14 58.8549 297.178 59.6412 298.249L64.4119 304.61C67.6099 308.827 70.7204 313.114 73.8659 317.383L73.9009 317.469Z" fill="#FCA311"/>
<path d="M88.6848 310.106C88.6848 307.323 88.5625 304.523 88.5625 301.741V293.375L88.7023 285.027C88.7023 283.627 88.7023 282.244 88.8945 280.844L89.0343 278.77C89.0182 278.388 89.0812 278.007 89.2194 277.65C89.3577 277.294 89.5682 276.969 89.8382 276.696H90.3974C90.6461 276.984 90.8307 277.32 90.9391 277.684C91.0475 278.047 91.0773 278.429 91.0265 278.804V280.896C91.0265 282.296 91.0265 283.678 90.8867 285.079L90.3275 293.41L89.6634 301.758C89.4188 304.523 89.1392 307.306 88.8246 310.089L88.6848 310.106Z" fill="#FCA311"/>
<path d="M92.7914 313.131C93.5603 309.847 94.3117 306.546 95.1505 303.279L96.3563 298.353C96.5486 297.54 96.7583 296.624 96.9854 295.916C97.1252 295.501 97.2476 295.103 97.3874 294.706C97.4401 294.473 97.5463 294.255 97.6979 294.069C97.8494 293.883 98.0421 293.735 98.2611 293.634L98.663 293.755C98.7971 293.951 98.8828 294.174 98.9132 294.409C98.9436 294.643 98.9177 294.881 98.8378 295.103L98.5232 296.348C98.2961 297.143 98.0339 297.955 97.7543 298.75L96.1641 303.555C95.1156 306.77 93.9972 309.968 92.8963 313.165L92.7914 313.131Z" fill="#FCA311"/>
<path d="M95.2903 316.916C96.5311 314.6 97.8068 312.284 99.0999 310.002L103.049 303.175L107.103 296.417C107.802 295.311 108.501 294.187 109.235 293.098L110.336 291.37C110.512 291.041 110.761 290.756 111.063 290.534C111.366 290.313 111.714 290.161 112.084 290.091L112.538 290.367C112.623 290.722 112.626 291.091 112.547 291.447C112.469 291.803 112.31 292.137 112.084 292.424L111.088 294.153C110.424 295.276 109.707 296.382 108.991 297.489L104.605 304.143L100.113 310.642C98.5873 312.808 97.0378 314.94 95.4651 317.037L95.2903 316.916Z" fill="#FCA311"/>
<path d="M65.9847 329.62C60.7422 329.015 55.4997 328.445 50.2572 327.753L42.4458 326.768C41.1352 326.613 39.8245 326.423 38.5314 326.215L36.6091 325.852C36.2481 325.819 35.8982 325.711 35.5821 325.535C35.266 325.36 34.9907 325.12 34.7743 324.832L34.8616 324.297C35.1576 324.09 35.4943 323.948 35.8497 323.88C36.2051 323.811 36.5711 323.818 36.9237 323.899L38.8809 324.141C40.1741 324.366 41.4672 324.59 42.7429 324.867L50.4843 326.371C55.7269 327.339 60.7946 328.445 65.9323 329.499L65.9847 329.62Z" fill="#FCA311"/>
<path d="M57.3171 332.524C54.7133 332.904 52.0746 333.233 49.4883 333.526L41.6594 334.356L33.8131 335.082C32.52 335.082 31.2093 335.272 29.8987 335.324H27.924C27.5673 335.382 27.202 335.36 26.8545 335.262C26.507 335.163 26.186 334.99 25.9144 334.754V334.2C26.1522 333.973 26.4345 333.795 26.744 333.68C27.0535 333.564 27.3837 333.512 27.7143 333.526L29.689 333.336C30.9822 333.198 32.2928 333.129 33.6034 333.042L41.4672 332.731L49.3485 332.524C51.9697 332.524 54.591 332.524 57.2297 332.524H57.3171Z" fill="#FCA311"/>
<path d="M61.214 323.381C58.6743 322.436 56.1463 321.45 53.6299 320.425L46.1156 317.331L38.6363 314.133C37.413 313.563 36.1723 313.027 34.949 312.405L33.2015 311.523C32.8524 311.399 32.5344 311.202 32.2691 310.946C32.0037 310.689 31.7973 310.379 31.6637 310.037L31.8909 309.536C32.2427 309.413 32.6175 309.368 32.9889 309.403C33.3603 309.439 33.7192 309.555 34.0403 309.743L35.9102 310.538C37.1509 311.057 38.3742 311.644 39.6149 312.267L46.902 315.845L54.1541 319.509C56.5657 320.753 58.9598 322.027 61.3364 323.329L61.214 323.381Z" fill="#FCA311"/>
<path d="M67.5924 322.257C63.8877 319.82 60.148 317.417 56.4783 314.946L50.9387 311.247C50.0125 310.642 49.1912 310.02 48.1951 309.38L46.867 308.378C46.3581 308.055 45.9901 307.556 45.836 306.978L46.0806 306.649C46.7117 306.594 47.3394 306.786 47.8281 307.185L49.2087 308.101C50.1174 308.758 50.9562 309.415 51.8823 310.089L57.1249 314.099C60.6199 316.743 64.1149 319.474 67.6099 322.171L67.5924 322.257Z" fill="#FCA311"/>
<path d="M74.3902 351.709C71.5418 355.996 68.7283 360.352 65.81 364.569L61.4936 370.964C60.7772 372.036 60.0432 373.09 59.2918 374.144L58.1035 375.665C57.9103 375.967 57.6547 376.225 57.3535 376.421C57.0522 376.618 56.7123 376.749 56.356 376.806L55.9191 376.495C55.8597 376.145 55.8773 375.786 55.9708 375.443C56.0643 375.1 56.2314 374.781 56.4608 374.507L57.5443 372.917C58.3132 371.88 59.0821 370.843 59.8859 369.841L64.6566 363.757C67.8021 359.678 71.0525 355.668 74.2679 351.658L74.3902 351.709Z" fill="#FCA311"/>
<path d="M78.759 355.996C77.658 358.848 76.5396 361.7 75.3688 364.517L71.8738 372.969L68.239 381.387C67.6099 382.769 66.9808 384.152 66.2992 385.535L65.3032 387.592C64.9996 388.349 64.4196 388.966 63.678 389.32L63.1887 389.095C62.9732 388.298 63.0798 387.449 63.4858 386.727L64.3945 384.619C64.9886 383.219 65.6352 381.836 66.2818 380.453L70.301 372.209L74.4077 364.016C75.7882 361.285 77.2212 358.589 78.6716 355.892L78.759 355.996Z" fill="#FCA311"/>
<path d="M64.5693 349.739C62.4548 351.588 60.3228 353.421 58.1734 355.201L51.6902 360.542L45.137 365.727C44.0186 366.574 42.9177 367.455 41.7643 368.25L40.0168 369.478C39.7313 369.731 39.3967 369.925 39.0332 370.047C38.6697 370.169 38.285 370.216 37.9023 370.186L37.5703 369.754C37.637 369.38 37.7818 369.024 37.9954 368.709C38.209 368.393 38.4868 368.125 38.811 367.922L40.4537 366.608C41.5197 365.727 42.6556 364.88 43.774 364.05L50.5718 359.124L57.4569 354.285C59.7462 352.695 62.0878 351.122 64.4469 349.583L64.5693 349.739Z" fill="#FCA311"/>
<path d="M66.0196 343.534C62.7518 345.522 59.5014 347.527 56.2161 349.462L51.2881 352.383C50.4843 352.885 49.6455 353.369 48.8242 353.835L47.531 354.475C47.3108 354.615 47.063 354.708 46.8039 354.747C46.5449 354.785 46.2805 354.769 46.0281 354.7L45.8185 354.337C45.893 354.085 46.0203 353.852 46.1919 353.653C46.3635 353.453 46.5756 353.292 46.8145 353.179C47.2165 352.919 47.6359 352.677 48.0378 352.453C48.8766 351.986 49.7853 351.554 50.5891 351.139L55.6919 348.546C59.1869 346.818 62.5421 345.09 65.9672 343.448L66.0196 343.534Z" fill="#FCA311"/>
<path d="M66.6487 338.712C64.0275 339.559 61.4062 340.44 58.7325 341.166L50.7814 343.465L42.7953 345.625C41.4672 345.954 40.1216 346.317 38.776 346.593L36.7489 347.043C36.3921 347.167 36.0127 347.214 35.636 347.181C35.2592 347.148 34.894 347.036 34.5645 346.853L34.4422 346.334C34.6316 346.024 34.8853 345.758 35.1865 345.552C35.4878 345.347 35.8297 345.207 36.1897 345.141L38.1819 344.588C39.51 344.208 40.8555 343.897 42.1837 343.569L50.2746 341.84L58.383 340.112C61.0917 339.559 63.8178 339.057 66.5439 338.573L66.6487 338.712Z" fill="#FCA311"/>
<path d="M95.0632 350.655C98.2436 354.942 101.459 359.194 104.57 363.532L109.27 369.996C110.063 371.033 110.837 372.128 111.595 373.28L112.661 375.009C112.89 375.292 113.056 375.62 113.146 375.972C113.237 376.324 113.25 376.691 113.185 377.048L112.73 377.359C112.365 377.284 112.02 377.133 111.719 376.915C111.418 376.698 111.167 376.419 110.983 376.098L109.795 374.473C109.061 373.367 108.344 372.261 107.628 371.12L103.381 364.362C100.515 359.868 97.7369 355.305 94.9409 350.776L95.0632 350.655Z" fill="#FCA311"/>
<path d="M107.68 357.05C109.428 358.416 111.175 359.816 112.923 361.233L118.165 365.537L123.303 369.91C124.142 370.67 125.05 371.413 125.784 372.209L126.99 373.367C127.254 373.568 127.461 373.832 127.592 374.134C127.724 374.437 127.775 374.768 127.742 375.095L127.375 375.493C127.055 375.544 126.728 375.515 126.423 375.41C126.118 375.304 125.844 375.125 125.627 374.888L124.351 373.799C123.478 373.073 122.604 372.312 121.835 371.552L116.977 366.868L112.206 362.097C110.633 360.507 109.078 358.865 107.54 357.223L107.68 357.05Z" fill="#FCA311"/>
<path d="M94.3816 359.038C95.5001 361.527 96.601 363.999 97.6495 366.505L100.778 374.006L103.801 381.559C104.273 382.821 104.762 384.083 105.181 385.379L105.828 387.298C105.985 387.634 106.066 387.999 106.066 388.369C106.066 388.739 105.985 389.105 105.828 389.441L105.321 389.631C104.976 389.462 104.673 389.219 104.435 388.92C104.196 388.621 104.027 388.274 103.941 387.903L103.172 386.019C102.665 384.757 102.21 383.495 101.739 382.216L99.1174 374.525L96.5835 366.799C95.7564 364.229 94.97 361.636 94.2244 359.021L94.3816 359.038Z" fill="#FCA311"/>
<path d="M89.1217 355.702C89.7508 359.66 90.4148 363.601 90.9915 367.559L91.8653 373.488C92.0226 374.473 92.1623 375.458 92.2847 376.461L92.407 377.947C92.4579 378.217 92.4516 378.495 92.3885 378.763C92.3253 379.031 92.2066 379.283 92.04 379.503H91.6381C91.4255 379.325 91.2522 379.106 91.1289 378.859C91.0056 378.612 90.9351 378.343 90.9216 378.068L90.6944 376.582C90.5896 375.596 90.5022 374.594 90.4323 373.609L89.9255 367.628C89.576 363.636 89.3139 359.66 89.0168 355.668L89.1217 355.702Z" fill="#FCA311"/>
<path d="M81.6074 359.902C81.3627 364.206 80.8909 368.544 80.4191 372.762C80.1744 374.888 79.9472 377.031 79.6327 379.157C79.4754 380.211 79.3356 381.283 79.1084 382.337L78.8113 383.91C78.794 384.217 78.6983 384.514 78.5333 384.774C78.3682 385.034 78.1392 385.248 77.8677 385.396H77.326C77.103 385.173 76.9423 384.897 76.8596 384.594C76.7769 384.291 76.775 383.972 76.8541 383.668L77.0464 382.078C77.1687 381.006 77.3434 379.952 77.5182 378.88C77.8677 376.772 78.2871 374.663 78.7065 372.554C79.5628 368.337 80.454 364.12 81.4676 359.937L81.6074 359.902Z" fill="#FCA311"/>
<path d="M103.434 331.193C108.676 329.655 113.779 328.082 118.987 326.63L126.78 324.4C128.074 324.02 129.367 323.657 130.677 323.329L132.652 322.896C133.006 322.784 133.379 322.745 133.748 322.781C134.118 322.816 134.476 322.926 134.802 323.104L134.941 323.622C134.745 323.927 134.49 324.189 134.19 324.394C133.89 324.599 133.551 324.742 133.194 324.815L131.254 325.368C129.943 325.697 128.633 325.99 127.305 326.267L119.389 327.995C114.146 329.188 108.816 330.242 103.521 331.331L103.434 331.193Z" fill="#FCA311"/>
<path d="M111 324.106C113.08 322.948 115.142 321.808 117.257 320.65L123.565 317.4L129.926 314.237C131.009 313.753 132.075 313.235 133.159 312.785L134.801 312.094C135.091 311.929 135.416 311.833 135.75 311.815C136.084 311.797 136.418 311.857 136.724 311.99L136.951 312.491C136.859 312.808 136.693 313.099 136.465 313.34C136.237 313.58 135.954 313.763 135.64 313.874L134.05 314.652C132.984 315.205 131.901 315.672 130.835 316.173L124.299 318.956L117.711 321.635C115.509 322.516 113.29 323.363 111.053 324.158L111 324.106Z" fill="#FCA311"/>
<path d="M105.181 322.741C108.676 319.941 112.066 317.106 115.561 314.375L120.804 310.244C121.66 309.553 122.552 308.862 123.443 308.205L124.823 307.289C125.062 307.09 125.344 306.949 125.648 306.877C125.951 306.805 126.267 306.804 126.571 306.874L126.885 307.306C126.869 307.618 126.779 307.922 126.621 308.192C126.463 308.463 126.242 308.692 125.977 308.862L124.666 309.899C123.757 310.556 122.918 311.178 121.922 311.8L116.383 315.499C112.713 318.005 108.956 320.408 105.234 322.845L105.181 322.741Z" fill="#FCA311"/>
<path d="M107.173 338.47C110.232 338.47 113.272 338.573 116.313 338.677L125.452 339.04L134.574 339.507C136.095 339.628 137.615 339.714 139.118 339.887L141.39 340.112C142.22 340.101 143.023 340.411 143.626 340.976V341.529C142.951 341.999 142.118 342.191 141.302 342.065L139.013 341.944C137.493 341.944 135.99 341.754 134.469 341.633L125.365 340.751L116.295 339.766C113.272 339.42 110.249 339.023 107.226 338.608L107.173 338.47Z" fill="#FCA311"/>
<path d="M106.911 342.653C110.598 343.517 114.303 344.381 117.99 345.297L123.513 346.645C124.439 346.87 125.365 347.095 126.274 347.354L127.637 347.786C127.893 347.843 128.133 347.953 128.344 348.108C128.555 348.263 128.73 348.459 128.86 348.685L128.738 349.082C128.509 349.212 128.255 349.291 127.993 349.315C127.73 349.339 127.466 349.307 127.217 349.221L125.837 348.875C124.928 348.616 124.089 348.339 123.128 348.028L117.693 346.3C114.076 345.159 110.476 343.932 106.876 342.739L106.911 342.653Z" fill="#FCA311"/>
<path d="M102.001 345.211C104.622 346.513 107.226 347.849 109.812 349.221L117.554 353.369L125.225 357.621C126.483 358.364 127.759 359.09 129 359.868L130.852 361.026C131.214 361.195 131.537 361.435 131.802 361.733C132.066 362.03 132.266 362.378 132.39 362.754L132.11 363.221C131.72 363.294 131.318 363.288 130.931 363.202C130.543 363.116 130.177 362.951 129.856 362.72L127.934 361.665C126.641 360.974 125.382 360.213 124.124 359.47L116.662 354.873L109.253 350.171C106.789 348.598 104.36 346.974 101.931 345.332L102.001 345.211Z" fill="#FCA311"/>
<path d="M105.775 312.543C107.278 310.728 108.799 308.948 110.354 307.185L115.037 302L119.825 296.814C120.647 295.968 121.45 295.086 122.307 294.326L123.565 293.098C123.776 292.846 124.045 292.646 124.348 292.514C124.651 292.382 124.981 292.322 125.312 292.338L125.714 292.718C125.741 293.042 125.691 293.367 125.566 293.667C125.441 293.968 125.247 294.235 124.998 294.447L123.81 295.743C123.023 296.607 122.184 297.471 121.363 298.284L116.295 303.158L111.053 307.98C109.305 309.57 107.558 311.126 105.81 312.664L105.775 312.543Z" fill="#FCA311"/>
<g opacity="0.3">
<path d="M78.1298 332.126C76.8716 331.781 75.596 331.435 74.3552 331.037L72.4854 330.45C72.1716 330.362 71.8624 330.258 71.5592 330.139L71.1398 329.914C70.9825 329.914 70.8602 329.741 70.8602 329.292L71 328.963C71.3146 328.652 71.4893 328.652 71.6291 328.721L72.101 328.86L72.9747 329.292L74.7222 330.19C75.8756 330.761 77.0114 331.418 78.2172 332.057L78.1298 332.126Z" fill="black"/>
<path d="M79.8075 336.983C78.392 337.709 76.9765 338.487 75.5435 339.178L73.3941 340.25L72.3106 340.751L71.734 340.941C71.5592 340.941 71.3495 341.045 71 340.734L70.8602 340.405C70.8602 339.939 71.0525 339.818 71.2272 339.749L71.7689 339.472L72.9048 339.075L75.194 338.331C76.6969 337.813 78.2522 337.363 79.7725 336.897L79.8075 336.983Z" fill="black"/>
<path d="M82.1666 341.598C81.7996 342.843 81.4676 344.087 81.0482 345.314L80.4715 347.164C80.3851 347.475 80.2801 347.781 80.157 348.08L79.9298 348.512C79.9298 348.667 79.7551 348.788 79.3007 348.771L78.9687 348.65C78.6367 348.339 78.6541 348.166 78.7066 348.011L78.8638 347.561C78.9858 347.259 79.1259 346.965 79.2832 346.68L80.1919 344.951C80.7861 343.793 81.4327 342.67 82.0792 341.494L82.1666 341.598Z" fill="black"/>
<path d="M86.7451 339.109C87.5664 340.647 88.3877 342.186 89.1392 343.741L90.31 346.075C90.5197 346.455 90.6944 346.853 90.8692 347.25L91.0789 347.855C91.0789 348.062 91.2012 348.287 90.8867 348.65L90.5546 348.771C90.0828 348.771 89.9605 348.564 89.8731 348.356L89.576 347.769C89.4188 347.371 89.2615 346.974 89.1217 346.559L88.2829 344.087C87.7062 342.462 87.1994 340.803 86.6752 339.144L86.7451 339.109Z" fill="black"/>
<path d="M91.7255 337.605C92.9837 337.968 94.2594 338.297 95.5001 338.694L97.3699 339.282C97.6838 339.37 97.9929 339.474 98.2961 339.593L98.7155 339.818C98.8728 339.818 98.9951 339.991 98.9951 340.44L98.8553 340.768C98.5408 341.097 98.366 341.08 98.2262 341.01L97.7544 340.872C97.4514 340.753 97.1591 340.608 96.8806 340.44L95.1331 339.541C93.9798 338.971 92.8439 338.314 91.6381 337.692L91.7255 337.605Z" fill="black"/>
<path d="M90.0479 332.731C91.4633 331.988 92.8788 331.21 94.3118 330.519L96.4612 329.465C96.8107 329.274 97.1777 329.102 97.5447 328.946L98.1213 328.756C98.2961 328.756 98.5058 328.67 98.8553 328.963L98.9951 329.292C98.9951 329.758 98.8029 329.879 98.6281 329.966L98.0864 330.225C97.7194 330.381 97.335 330.502 96.9505 330.623L94.6613 331.366C93.1584 331.884 91.6031 332.334 90.0828 332.8L90.0479 332.731Z" fill="black"/>
<path d="M87.6888 328.151C88.0557 326.889 88.3878 325.645 88.8072 324.417L89.3838 322.568C89.4703 322.257 89.5753 321.951 89.6984 321.652L89.9256 321.22C89.9256 321.082 90.1003 320.943 90.5547 320.961L90.8867 321.099C91.2187 321.393 91.2012 321.566 91.1488 321.721L90.9915 322.188C90.8695 322.484 90.7294 322.773 90.5721 323.052L89.6634 324.78C89.0693 325.939 88.4052 327.062 87.7761 328.237L87.6888 328.151Z" fill="black"/>
<path d="M82.7608 329.81C82.0094 328.41 81.2405 327.01 80.5415 325.576L79.458 323.467C79.2676 323.114 79.0984 322.751 78.9512 322.378L78.759 321.825C78.759 321.635 78.6541 321.427 78.9687 321.099L79.3007 320.961C79.7551 320.961 79.8949 321.151 79.9648 321.324L80.2269 321.859C80.3842 322.222 80.524 322.603 80.6463 322.966L81.3977 325.23C81.922 326.734 82.3763 328.255 82.8482 329.776L82.7608 329.81Z" fill="black"/>
<path d="M81.6599 316.45C80.3842 311.264 79.0735 306.079 77.8678 300.894L76.1203 293.15C75.8057 291.854 75.5086 290.558 75.2465 289.261L74.897 287.343C74.7934 286.992 74.7678 286.624 74.8221 286.263C74.8764 285.902 75.0093 285.557 75.2116 285.251L75.7358 285.148C76.0421 285.352 76.2993 285.621 76.4895 285.935C76.6797 286.248 76.7982 286.599 76.8367 286.963L77.3086 288.898C77.5707 290.195 77.7979 291.508 78.0076 292.822L79.2658 300.686C80.1745 305.872 81.0133 311.178 81.7996 316.432L81.6599 316.45Z" fill="black"/>
<path d="M73.7261 308.395C72.5902 306.183 71.4893 303.953 70.4233 301.723L67.2603 294.982L64.2022 288.207C63.7304 287.066 63.2411 285.925 62.8042 284.75L62.1402 283.022C61.986 282.713 61.9059 282.373 61.9059 282.028C61.9059 281.683 61.986 281.343 62.1402 281.034L62.6469 280.827C62.9712 280.953 63.2631 281.148 63.5018 281.399C63.7405 281.65 63.92 281.951 64.0275 282.278L64.7964 284.007C65.3206 285.13 65.775 286.288 66.2468 287.464L68.9205 294.378L71.4893 301.291C72.3281 303.625 73.132 305.958 73.9009 308.326L73.7261 308.395Z" fill="black"/>
<path d="M73.9009 317.469C70.4059 313.477 66.9109 309.519 63.4159 305.474L58.1733 299.442C57.2996 298.457 56.4258 297.437 55.6045 296.4L54.4162 294.827C54.1656 294.559 53.9752 294.242 53.8577 293.897C53.7402 293.551 53.6983 293.185 53.7347 292.822L54.1715 292.493C54.5239 292.55 54.8609 292.677 55.1615 292.867C55.4621 293.057 55.72 293.307 55.919 293.6L57.2297 295.103C58.051 296.14 58.8549 297.178 59.6412 298.249L64.4119 304.61C67.6099 308.827 70.7204 313.114 73.8659 317.383L73.9009 317.469Z" fill="black"/>
<path d="M88.6848 310.106C88.6848 307.323 88.5625 304.523 88.5625 301.741V293.375L88.7023 285.027C88.7023 283.627 88.7023 282.244 88.8945 280.844L89.0343 278.77C89.0182 278.388 89.0812 278.007 89.2194 277.65C89.3577 277.294 89.5682 276.969 89.8382 276.696H90.3974C90.6461 276.984 90.8307 277.32 90.9391 277.684C91.0475 278.047 91.0773 278.429 91.0265 278.804V280.896C91.0265 282.296 91.0265 283.678 90.8867 285.079L90.3275 293.41L89.6634 301.758C89.4188 304.523 89.1392 307.306 88.8246 310.089L88.6848 310.106Z" fill="black"/>
<path d="M92.7914 313.131C93.5603 309.847 94.3117 306.546 95.1505 303.279L96.3563 298.353C96.5486 297.54 96.7583 296.624 96.9854 295.916C97.1252 295.501 97.2476 295.103 97.3874 294.706C97.4401 294.473 97.5463 294.255 97.6979 294.069C97.8494 293.883 98.0421 293.735 98.2611 293.634L98.663 293.755C98.7971 293.951 98.8828 294.174 98.9132 294.409C98.9436 294.643 98.9177 294.881 98.8378 295.103L98.5232 296.348C98.2961 297.143 98.0339 297.955 97.7543 298.75L96.1641 303.555C95.1156 306.77 93.9972 309.968 92.8963 313.165L92.7914 313.131Z" fill="black"/>
<path d="M95.2903 316.916C96.5311 314.6 97.8068 312.284 99.0999 310.002L103.049 303.175L107.103 296.417C107.802 295.311 108.501 294.187 109.235 293.098L110.336 291.37C110.512 291.041 110.761 290.756 111.063 290.534C111.366 290.313 111.714 290.161 112.084 290.091L112.538 290.367C112.623 290.722 112.626 291.091 112.547 291.447C112.469 291.803 112.31 292.137 112.084 292.424L111.088 294.153C110.424 295.276 109.707 296.382 108.991 297.489L104.605 304.143L100.113 310.642C98.5873 312.808 97.0378 314.94 95.4651 317.037L95.2903 316.916Z" fill="black"/>
<path d="M65.9847 329.62C60.7422 329.015 55.4997 328.445 50.2572 327.753L42.4458 326.768C41.1352 326.613 39.8245 326.423 38.5314 326.215L36.6091 325.852C36.2481 325.819 35.8982 325.711 35.5821 325.535C35.266 325.36 34.9907 325.12 34.7743 324.832L34.8616 324.297C35.1576 324.09 35.4943 323.948 35.8497 323.88C36.2051 323.811 36.5711 323.818 36.9237 323.899L38.8809 324.141C40.1741 324.366 41.4672 324.59 42.7429 324.867L50.4843 326.371C55.7269 327.339 60.7946 328.445 65.9323 329.499L65.9847 329.62Z" fill="black"/>
<path d="M57.3171 332.524C54.7133 332.904 52.0746 333.233 49.4883 333.526L41.6594 334.356L33.8131 335.082C32.52 335.082 31.2093 335.272 29.8987 335.324H27.924C27.5673 335.382 27.202 335.36 26.8545 335.262C26.507 335.163 26.186 334.99 25.9144 334.754V334.2C26.1522 333.973 26.4345 333.795 26.744 333.68C27.0535 333.564 27.3837 333.512 27.7143 333.526L29.689 333.336C30.9822 333.198 32.2928 333.129 33.6034 333.042L41.4672 332.731L49.3485 332.524C51.9697 332.524 54.591 332.524 57.2297 332.524H57.3171Z" fill="black"/>
<path d="M61.214 323.381C58.6743 322.436 56.1463 321.45 53.6299 320.425L46.1156 317.331L38.6363 314.133C37.413 313.563 36.1723 313.027 34.949 312.405L33.2015 311.523C32.8524 311.399 32.5344 311.202 32.2691 310.946C32.0037 310.689 31.7973 310.379 31.6637 310.037L31.8909 309.536C32.2427 309.413 32.6175 309.368 32.9889 309.403C33.3603 309.439 33.7192 309.555 34.0403 309.743L35.9102 310.538C37.1509 311.057 38.3742 311.644 39.6149 312.267L46.902 315.845L54.1541 319.509C56.5657 320.753 58.9598 322.027 61.3364 323.329L61.214 323.381Z" fill="black"/>
<path d="M67.5924 322.257C63.8877 319.82 60.148 317.417 56.4783 314.946L50.9387 311.247C50.0125 310.642 49.1912 310.02 48.1951 309.38L46.867 308.378C46.3581 308.055 45.9901 307.556 45.836 306.978L46.0806 306.649C46.7117 306.594 47.3394 306.786 47.8281 307.185L49.2087 308.101C50.1174 308.758 50.9562 309.415 51.8823 310.089L57.1249 314.099C60.6199 316.743 64.1149 319.474 67.6099 322.171L67.5924 322.257Z" fill="black"/>
<path d="M74.3902 351.709C71.5418 355.996 68.7283 360.352 65.81 364.569L61.4936 370.964C60.7772 372.036 60.0432 373.09 59.2918 374.144L58.1035 375.665C57.9103 375.967 57.6547 376.225 57.3535 376.421C57.0522 376.618 56.7123 376.749 56.356 376.806L55.9191 376.495C55.8597 376.145 55.8773 375.786 55.9708 375.443C56.0643 375.1 56.2314 374.781 56.4608 374.507L57.5443 372.917C58.3132 371.88 59.0821 370.843 59.8859 369.841L64.6566 363.757C67.8021 359.678 71.0525 355.668 74.2679 351.658L74.3902 351.709Z" fill="black"/>
<path d="M78.759 355.996C77.658 358.848 76.5396 361.7 75.3688 364.517L71.8738 372.969L68.239 381.387C67.6099 382.769 66.9808 384.152 66.2992 385.535L65.3032 387.592C64.9996 388.349 64.4196 388.966 63.678 389.32L63.1887 389.095C62.9732 388.298 63.0798 387.449 63.4858 386.727L64.3945 384.619C64.9886 383.219 65.6352 381.836 66.2818 380.453L70.301 372.209L74.4077 364.016C75.7882 361.285 77.2212 358.589 78.6716 355.892L78.759 355.996Z" fill="black"/>
<path d="M64.5693 349.739C62.4548 351.588 60.3228 353.421 58.1734 355.201L51.6902 360.542L45.137 365.727C44.0186 366.574 42.9177 367.455 41.7643 368.25L40.0168 369.478C39.7313 369.731 39.3967 369.925 39.0332 370.047C38.6697 370.169 38.285 370.216 37.9023 370.186L37.5703 369.754C37.637 369.38 37.7818 369.024 37.9954 368.709C38.209 368.393 38.4868 368.125 38.811 367.922L40.4537 366.608C41.5197 365.727 42.6556 364.88 43.774 364.05L50.5718 359.124L57.4569 354.285C59.7462 352.695 62.0878 351.122 64.4469 349.583L64.5693 349.739Z" fill="black"/>
<path d="M66.0196 343.534C62.7518 345.522 59.5014 347.527 56.2161 349.462L51.2881 352.383C50.4843 352.885 49.6455 353.369 48.8242 353.835L47.531 354.475C47.3108 354.615 47.063 354.708 46.8039 354.747C46.5449 354.785 46.2805 354.769 46.0281 354.7L45.8185 354.337C45.893 354.085 46.0203 353.852 46.1919 353.653C46.3635 353.453 46.5756 353.292 46.8145 353.179C47.2165 352.919 47.6359 352.677 48.0378 352.453C48.8766 351.986 49.7853 351.554 50.5891 351.139L55.6919 348.546C59.1869 346.818 62.5421 345.09 65.9672 343.448L66.0196 343.534Z" fill="black"/>
<path d="M66.6487 338.712C64.0275 339.559 61.4062 340.44 58.7325 341.166L50.7814 343.465L42.7953 345.625C41.4672 345.954 40.1216 346.317 38.776 346.593L36.7489 347.043C36.3921 347.167 36.0127 347.214 35.636 347.181C35.2592 347.148 34.894 347.036 34.5645 346.853L34.4422 346.334C34.6316 346.024 34.8853 345.758 35.1865 345.552C35.4878 345.347 35.8297 345.207 36.1897 345.141L38.1819 344.588C39.51 344.208 40.8555 343.897 42.1837 343.569L50.2746 341.84L58.383 340.112C61.0917 339.559 63.8178 339.057 66.5439 338.573L66.6487 338.712Z" fill="black"/>
<path d="M95.0632 350.655C98.2436 354.942 101.459 359.194 104.57 363.532L109.27 369.996C110.063 371.033 110.837 372.128 111.595 373.28L112.661 375.009C112.89 375.292 113.056 375.62 113.146 375.972C113.237 376.324 113.25 376.691 113.185 377.048L112.73 377.359C112.365 377.284 112.02 377.133 111.719 376.915C111.418 376.698 111.167 376.419 110.983 376.098L109.795 374.473C109.061 373.367 108.344 372.261 107.628 371.12L103.381 364.362C100.515 359.868 97.7369 355.305 94.9409 350.776L95.0632 350.655Z" fill="black"/>
<path d="M107.68 357.05C109.428 358.416 111.175 359.816 112.923 361.233L118.165 365.537L123.303 369.91C124.142 370.67 125.05 371.413 125.784 372.209L126.99 373.367C127.254 373.568 127.461 373.832 127.592 374.134C127.724 374.437 127.775 374.768 127.742 375.095L127.375 375.493C127.055 375.544 126.728 375.515 126.423 375.41C126.118 375.304 125.844 375.125 125.627 374.888L124.351 373.799C123.478 373.073 122.604 372.312 121.835 371.552L116.977 366.868L112.206 362.097C110.633 360.507 109.078 358.865 107.54 357.223L107.68 357.05Z" fill="black"/>
<path d="M94.3816 359.038C95.5001 361.527 96.601 363.999 97.6495 366.505L100.778 374.006L103.801 381.559C104.273 382.821 104.762 384.083 105.181 385.379L105.828 387.298C105.985 387.634 106.066 387.999 106.066 388.369C106.066 388.739 105.985 389.105 105.828 389.441L105.321 389.631C104.976 389.462 104.673 389.219 104.435 388.92C104.196 388.621 104.027 388.274 103.941 387.903L103.172 386.019C102.665 384.757 102.21 383.495 101.739 382.216L99.1174 374.525L96.5835 366.799C95.7564 364.229 94.97 361.636 94.2244 359.021L94.3816 359.038Z" fill="black"/>
<path d="M89.1217 355.702C89.7508 359.66 90.4148 363.601 90.9915 367.559L91.8653 373.488C92.0226 374.473 92.1623 375.458 92.2847 376.461L92.407 377.947C92.4579 378.217 92.4516 378.495 92.3885 378.763C92.3253 379.031 92.2066 379.283 92.04 379.503H91.6381C91.4255 379.325 91.2522 379.106 91.1289 378.859C91.0056 378.612 90.9351 378.343 90.9216 378.068L90.6944 376.582C90.5896 375.596 90.5022 374.594 90.4323 373.609L89.9255 367.628C89.576 363.636 89.3139 359.66 89.0168 355.668L89.1217 355.702Z" fill="black"/>
<path d="M81.6074 359.902C81.3627 364.206 80.8909 368.544 80.4191 372.762C80.1744 374.888 79.9472 377.031 79.6327 379.157C79.4754 380.211 79.3356 381.283 79.1084 382.337L78.8113 383.91C78.794 384.217 78.6983 384.514 78.5333 384.774C78.3682 385.034 78.1392 385.248 77.8677 385.396H77.326C77.103 385.173 76.9423 384.897 76.8596 384.594C76.7769 384.291 76.775 383.972 76.8541 383.668L77.0464 382.078C77.1687 381.006 77.3434 379.952 77.5182 378.88C77.8677 376.772 78.2871 374.663 78.7065 372.554C79.5628 368.337 80.454 364.12 81.4676 359.937L81.6074 359.902Z" fill="black"/>
<path d="M103.434 331.193C108.676 329.655 113.779 328.082 118.987 326.63L126.78 324.4C128.074 324.02 129.367 323.657 130.677 323.329L132.652 322.896C133.006 322.784 133.379 322.745 133.748 322.781C134.118 322.816 134.476 322.926 134.802 323.104L134.941 323.622C134.745 323.927 134.49 324.189 134.19 324.394C133.89 324.599 133.551 324.742 133.194 324.815L131.254 325.368C129.943 325.697 128.633 325.99 127.305 326.267L119.389 327.995C114.146 329.188 108.816 330.242 103.521 331.331L103.434 331.193Z" fill="black"/>
<path d="M111 324.106C113.08 322.948 115.142 321.808 117.257 320.65L123.565 317.4L129.926 314.237C131.009 313.753 132.075 313.235 133.159 312.785L134.801 312.094C135.091 311.929 135.416 311.833 135.75 311.815C136.084 311.797 136.418 311.857 136.724 311.99L136.951 312.491C136.859 312.808 136.693 313.099 136.465 313.34C136.237 313.58 135.954 313.763 135.64 313.874L134.05 314.652C132.984 315.205 131.901 315.672 130.835 316.173L124.299 318.956L117.711 321.635C115.509 322.516 113.29 323.363 111.053 324.158L111 324.106Z" fill="black"/>
<path d="M105.181 322.741C108.676 319.941 112.066 317.106 115.561 314.375L120.804 310.244C121.66 309.553 122.552 308.862 123.443 308.205L124.823 307.289C125.062 307.09 125.344 306.949 125.648 306.877C125.951 306.805 126.267 306.804 126.571 306.874L126.885 307.306C126.869 307.618 126.779 307.922 126.621 308.192C126.463 308.463 126.242 308.692 125.977 308.862L124.666 309.899C123.757 310.556 122.918 311.178 121.922 311.8L116.383 315.499C112.713 318.005 108.956 320.408 105.234 322.845L105.181 322.741Z" fill="black"/>
<path d="M107.173 338.47C110.232 338.47 113.272 338.573 116.313 338.677L125.452 339.04L134.574 339.507C136.095 339.628 137.615 339.714 139.118 339.887L141.39 340.112C142.22 340.101 143.023 340.411 143.626 340.976V341.529C142.951 341.999 142.118 342.191 141.302 342.065L139.013 341.944C137.493 341.944 135.99 341.754 134.469 341.633L125.365 340.751L116.295 339.766C113.272 339.42 110.249 339.023 107.226 338.608L107.173 338.47Z" fill="black"/>
<path d="M106.911 342.653C110.598 343.517 114.303 344.381 117.99 345.297L123.513 346.645C124.439 346.87 125.365 347.095 126.274 347.354L127.637 347.786C127.893 347.843 128.133 347.953 128.344 348.108C128.555 348.263 128.73 348.459 128.86 348.685L128.738 349.082C128.509 349.212 128.255 349.291 127.993 349.315C127.73 349.339 127.466 349.307 127.217 349.221L125.837 348.875C124.928 348.616 124.089 348.339 123.128 348.028L117.693 346.3C114.076 345.159 110.476 343.932 106.876 342.739L106.911 342.653Z" fill="black"/>
<path d="M102.001 345.211C104.622 346.513 107.226 347.849 109.812 349.221L117.554 353.369L125.225 357.621C126.483 358.364 127.759 359.09 129 359.868L130.852 361.026C131.214 361.195 131.537 361.435 131.802 361.733C132.066 362.03 132.266 362.378 132.39 362.754L132.11 363.221C131.72 363.294 131.318 363.288 130.931 363.202C130.543 363.116 130.177 362.951 129.856 362.72L127.934 361.665C126.641 360.974 125.382 360.213 124.124 359.47L116.662 354.873L109.253 350.171C106.789 348.598 104.36 346.974 101.931 345.332L102.001 345.211Z" fill="black"/>
<path d="M105.775 312.543C107.278 310.728 108.799 308.948 110.354 307.185L115.037 302L119.825 296.814C120.647 295.968 121.45 295.086 122.307 294.326L123.565 293.098C123.776 292.846 124.045 292.646 124.348 292.514C124.651 292.382 124.981 292.322 125.312 292.338L125.714 292.718C125.741 293.042 125.691 293.367 125.566 293.667C125.441 293.968 125.247 294.235 124.998 294.447L123.81 295.743C123.023 296.607 122.184 297.471 121.363 298.284L116.295 303.158L111.053 307.98C109.305 309.57 107.558 311.126 105.81 312.664L105.775 312.543Z" fill="black"/>
</g>
<path d="M433.258 234.297L437.644 238.774L442.048 234.297L441.961 240.537L448.252 240.45L443.743 244.789L448.252 249.144L441.961 249.041L442.048 255.28L437.644 250.804L433.258 255.28L433.345 249.041L427.054 249.144L431.563 244.789L427.054 240.45L433.345 240.537L433.258 234.297Z" fill="#FCA311"/>
<path d="M427.893 235.3C425.953 233.831 424.066 232.327 422.179 230.789L419.418 228.455C418.929 228.091 418.468 227.692 418.037 227.263C417.831 227.044 417.639 226.813 417.461 226.571C417.251 226.364 417.111 226.087 417.461 225.327L417.932 224.86C418.701 224.514 418.981 224.67 419.208 224.86L419.907 225.448C420.331 225.873 420.728 226.323 421.095 226.796L423.472 229.544C425.01 231.393 426.53 233.277 428.016 235.179L427.893 235.3Z" fill="#FCA311"/>
<path d="M423.996 244.875C421.585 245.186 419.156 245.445 416.744 245.67L413.109 245.964C412.529 246.037 411.946 246.077 411.362 246.085C411.059 246.101 410.756 246.101 410.453 246.085C410.156 246.085 409.859 245.981 409.544 245.203V244.547C409.859 243.769 410.156 243.682 410.453 243.665C410.756 243.649 411.059 243.649 411.362 243.665C411.946 243.667 412.529 243.702 413.109 243.769L416.744 244.063C419.156 244.287 421.585 244.547 423.996 244.858V244.875Z" fill="#FCA311"/>
<path d="M428.05 254.399C426.565 256.317 425.045 258.184 423.507 260.034L421.13 262.782C420.767 263.258 420.37 263.709 419.942 264.13L419.243 264.718C419.016 264.925 418.736 265.063 417.967 264.718L417.495 264.234C417.163 263.473 417.303 263.214 417.495 262.989C417.688 262.764 417.88 262.522 418.072 262.298C418.508 261.873 418.969 261.475 419.453 261.105L422.214 258.772C424.101 257.251 425.988 255.73 427.928 254.261L428.05 254.399Z" fill="#FCA311"/>
<path d="M437.732 258.288C438.046 260.69 438.308 263.075 438.553 265.478L438.833 269.056C438.913 269.629 438.954 270.206 438.955 270.784C438.955 271.095 438.955 271.389 438.955 271.683C438.955 271.977 438.85 272.288 438.064 272.582H437.382C436.596 272.288 436.508 271.994 436.491 271.683C436.473 271.372 436.491 271.095 436.491 270.784C436.492 270.206 436.533 269.629 436.613 269.056L436.893 265.478C437.137 263.075 437.4 260.69 437.714 258.288H437.732Z" fill="#FCA311"/>
<path d="M447.36 254.278C449.3 255.747 451.187 257.268 453.075 258.789L455.836 261.122C456.32 261.492 456.781 261.89 457.216 262.315C457.409 262.54 457.618 262.764 457.793 263.006C457.968 263.248 458.142 263.49 457.793 264.251L457.321 264.735C456.552 265.063 456.273 264.925 456.045 264.735L455.346 264.147C454.919 263.726 454.522 263.276 454.158 262.799L451.782 260.051C450.244 258.201 448.723 256.335 447.238 254.416L447.36 254.278Z" fill="#FCA311"/>
<path d="M451.31 244.702C453.721 244.391 456.15 244.132 458.562 243.907L462.197 243.613C462.777 243.547 463.36 243.512 463.944 243.51C464.247 243.493 464.55 243.493 464.853 243.51C465.15 243.51 465.447 243.613 465.762 244.391V245.048C465.447 245.826 465.15 245.912 464.853 245.929C464.55 245.946 464.247 245.946 463.944 245.929C463.36 245.922 462.776 245.881 462.197 245.808L458.562 245.515C456.15 245.29 453.721 245.031 451.31 244.72V244.702Z" fill="#FCA311"/>
<path d="M447.256 235.179C448.741 233.277 450.261 231.393 451.799 229.544L454.176 226.796C454.544 226.323 454.94 225.873 455.364 225.448L456.063 224.86C456.29 224.67 456.57 224.514 457.339 224.86L457.811 225.327C458.143 226.087 458.003 226.364 457.811 226.571C457.632 226.813 457.44 227.044 457.234 227.263C456.803 227.692 456.342 228.091 455.853 228.455L453.092 230.789C451.205 232.327 449.318 233.831 447.378 235.3L447.256 235.179Z" fill="#FCA311"/>
<path d="M437.574 231.29C437.26 228.887 436.998 226.502 436.753 224.1L436.473 220.522C436.393 219.949 436.352 219.371 436.351 218.793C436.351 218.499 436.351 218.188 436.351 217.894C436.351 217.601 436.456 217.289 437.242 216.996H437.924C438.71 217.289 438.798 217.601 438.815 217.894C438.833 218.188 438.815 218.499 438.815 218.793C438.815 219.371 438.774 219.949 438.693 220.522L438.413 224.1C438.169 226.502 437.906 228.887 437.592 231.29H437.574Z" fill="#FCA311"/>
<path d="M429.641 225.897C427.648 222.44 425.918 218.983 424.188 215.423C423.332 213.694 422.441 211.966 421.672 210.099C421.288 209.218 420.921 208.371 420.571 207.386L420.064 206.003C419.925 205.723 419.876 205.407 419.923 205.098C419.97 204.79 420.111 204.502 420.326 204.274L420.938 204.015C421.248 204.028 421.546 204.135 421.792 204.32C422.039 204.505 422.223 204.761 422.319 205.052L422.965 206.366C423.367 207.265 423.769 208.094 424.118 209.062C424.835 210.894 425.499 212.744 426.146 214.593C427.439 218.292 428.749 221.991 429.78 225.793L429.641 225.897Z" fill="#FCA311"/>
<path d="M418.492 237.028C414.63 235.991 410.89 234.712 407.15 233.433C405.28 232.776 403.411 232.137 401.576 231.428C400.649 231.065 399.741 230.685 398.85 230.27L397.504 229.648C397.213 229.55 396.958 229.367 396.774 229.123C396.59 228.88 396.485 228.586 396.473 228.282L396.735 227.66C396.962 227.44 397.254 227.298 397.569 227.255C397.883 227.211 398.203 227.268 398.483 227.418L399.881 227.919C400.807 228.265 401.733 228.611 402.642 229.008C404.389 229.803 406.224 230.65 408.024 231.497C411.519 233.226 415.136 234.954 418.509 236.873L418.492 237.028Z" fill="#FCA311"/>
<path d="M418.544 252.705C415.049 254.675 411.554 256.369 408.059 258.098C406.312 258.945 404.477 259.826 402.677 260.569C401.768 260.967 400.929 261.33 399.916 261.676L398.518 262.16C398.239 262.309 397.918 262.367 397.604 262.323C397.289 262.279 396.997 262.137 396.77 261.918L396.508 261.295C396.52 260.991 396.625 260.698 396.809 260.454C396.993 260.21 397.248 260.028 397.539 259.93L398.885 259.308C399.776 258.91 400.632 258.513 401.611 258.15C403.446 257.458 405.315 256.801 407.185 256.145C410.925 254.866 414.665 253.586 418.527 252.549L418.544 252.705Z" fill="#FCA311"/>
<path d="M429.798 263.75C428.767 267.552 427.456 271.251 426.163 274.95C425.517 276.799 424.852 278.649 424.136 280.481C423.786 281.397 423.385 282.209 422.983 283.177L422.336 284.508C422.237 284.796 422.052 285.048 421.806 285.23C421.559 285.412 421.263 285.516 420.956 285.528L420.344 285.269C420.128 285.041 419.987 284.753 419.941 284.445C419.894 284.136 419.943 283.821 420.082 283.54L420.589 282.157C420.938 281.241 421.305 280.343 421.689 279.444C422.493 277.715 423.35 275.883 424.206 274.12C425.953 270.663 427.701 267.068 429.658 263.646L429.798 263.75Z" fill="#FCA311"/>
<path d="M445.648 263.68C447.64 267.137 449.37 270.594 451.1 274.155C451.956 275.883 452.848 277.612 453.617 279.478C454.001 280.377 454.368 281.207 454.717 282.192L455.207 283.575C455.353 283.852 455.408 284.168 455.364 284.478C455.32 284.787 455.18 285.076 454.962 285.303L454.35 285.562C454.043 285.551 453.747 285.447 453.5 285.265C453.254 285.083 453.069 284.831 452.97 284.543L452.323 283.212C451.921 282.313 451.52 281.483 451.17 280.515C450.454 278.683 449.789 276.834 449.143 274.984C447.85 271.286 446.539 267.587 445.508 263.784L445.648 263.68Z" fill="#FCA311"/>
<path d="M456.814 252.549C460.676 253.586 464.416 254.866 468.156 256.145C470.025 256.801 471.895 257.458 473.73 258.15C474.656 258.513 475.478 258.91 476.456 259.308L477.802 259.93C478.093 260.028 478.348 260.21 478.532 260.454C478.716 260.698 478.821 260.991 478.833 261.295L478.571 261.918C478.344 262.137 478.052 262.279 477.737 262.323C477.423 262.367 477.102 262.309 476.823 262.16L475.425 261.676C474.499 261.33 473.573 260.967 472.664 260.569C470.917 259.774 469.169 258.945 467.282 258.098C463.787 256.369 460.152 254.641 456.709 252.705L456.814 252.549Z" fill="#FCA311"/>
<path d="M456.762 236.873C460.257 234.902 463.752 233.208 467.334 231.497C469.082 230.65 470.917 229.769 472.717 229.008C473.625 228.611 474.552 228.265 475.478 227.919L476.876 227.418C477.155 227.268 477.475 227.211 477.79 227.255C478.104 227.298 478.396 227.44 478.623 227.66L478.885 228.282C478.873 228.586 478.768 228.88 478.584 229.123C478.4 229.367 478.146 229.55 477.854 229.648L476.509 230.27C475.618 230.685 474.761 231.065 473.783 231.428C471.948 232.137 470.078 232.776 468.208 233.433C464.468 234.712 460.729 235.991 456.867 237.028L456.762 236.873Z" fill="#FCA311"/>
<path d="M445.508 225.828C446.539 222.025 447.85 218.326 449.143 214.628C449.789 212.778 450.454 210.929 451.17 209.097C451.52 208.198 451.921 207.368 452.323 206.4L452.97 205.087C453.066 204.795 453.249 204.54 453.496 204.354C453.743 204.169 454.041 204.063 454.35 204.05L454.962 204.309C455.18 204.536 455.32 204.825 455.364 205.134C455.408 205.444 455.353 205.76 455.207 206.037L454.717 207.42C454.368 208.336 454.001 209.252 453.617 210.134C452.813 211.862 451.869 213.694 451.1 215.457C449.353 218.914 447.605 222.509 445.648 225.932L445.508 225.828Z" fill="#FCA311"/>
<g opacity="0.4">
<path d="M429.641 225.897C427.648 222.44 425.918 218.983 424.188 215.423C423.332 213.694 422.441 211.966 421.672 210.099C421.288 209.218 420.921 208.371 420.571 207.386L420.064 206.003C419.925 205.723 419.876 205.407 419.923 205.098C419.97 204.79 420.111 204.502 420.326 204.274L420.938 204.015C421.248 204.028 421.546 204.135 421.792 204.32C422.039 204.505 422.223 204.761 422.319 205.052L422.965 206.366C423.367 207.265 423.769 208.094 424.118 209.062C424.835 210.894 425.499 212.744 426.146 214.593C427.439 218.292 428.749 221.991 429.78 225.793L429.641 225.897Z" fill="black"/>
<path d="M418.492 237.028C414.63 235.991 410.89 234.712 407.15 233.433C405.28 232.776 403.411 232.137 401.576 231.428C400.649 231.065 399.741 230.685 398.85 230.27L397.504 229.648C397.213 229.55 396.958 229.367 396.774 229.123C396.59 228.88 396.485 228.586 396.473 228.282L396.735 227.66C396.962 227.44 397.254 227.298 397.569 227.255C397.883 227.211 398.203 227.268 398.483 227.418L399.881 227.919C400.807 228.265 401.733 228.611 402.642 229.008C404.389 229.803 406.224 230.65 408.024 231.497C411.519 233.226 415.136 234.954 418.509 236.873L418.492 237.028Z" fill="black"/>
<path d="M418.544 252.705C415.049 254.675 411.554 256.369 408.059 258.098C406.312 258.945 404.477 259.826 402.677 260.569C401.768 260.967 400.929 261.33 399.916 261.676L398.518 262.16C398.239 262.309 397.918 262.367 397.604 262.323C397.289 262.279 396.997 262.137 396.77 261.918L396.508 261.295C396.52 260.991 396.625 260.698 396.809 260.454C396.993 260.21 397.248 260.028 397.539 259.93L398.885 259.308C399.776 258.91 400.632 258.513 401.611 258.15C403.446 257.458 405.315 256.801 407.185 256.145C410.925 254.866 414.665 253.586 418.527 252.549L418.544 252.705Z" fill="black"/>
<path d="M429.798 263.75C428.767 267.552 427.456 271.251 426.163 274.95C425.517 276.799 424.852 278.649 424.136 280.481C423.786 281.397 423.385 282.209 422.983 283.177L422.336 284.508C422.237 284.796 422.052 285.048 421.806 285.23C421.559 285.412 421.263 285.516 420.956 285.528L420.344 285.269C420.128 285.041 419.987 284.753 419.941 284.445C419.894 284.136 419.943 283.821 420.082 283.54L420.589 282.157C420.938 281.241 421.305 280.343 421.689 279.444C422.493 277.715 423.35 275.883 424.206 274.12C425.953 270.663 427.701 267.068 429.658 263.646L429.798 263.75Z" fill="black"/>
<path d="M445.648 263.68C447.64 267.137 449.37 270.594 451.1 274.155C451.956 275.883 452.848 277.612 453.617 279.478C454.001 280.377 454.368 281.207 454.717 282.192L455.207 283.575C455.353 283.852 455.408 284.168 455.364 284.478C455.32 284.787 455.18 285.076 454.962 285.303L454.35 285.562C454.043 285.551 453.747 285.447 453.5 285.265C453.254 285.083 453.069 284.831 452.97 284.543L452.323 283.212C451.921 282.313 451.52 281.483 451.17 280.515C450.454 278.683 449.789 276.834 449.143 274.984C447.85 271.286 446.539 267.587 445.508 263.784L445.648 263.68Z" fill="black"/>
<path d="M456.814 252.549C460.676 253.586 464.416 254.866 468.156 256.145C470.025 256.801 471.895 257.458 473.73 258.15C474.656 258.513 475.478 258.91 476.456 259.308L477.802 259.93C478.093 260.028 478.348 260.21 478.532 260.454C478.716 260.698 478.821 260.991 478.833 261.295L478.571 261.918C478.344 262.137 478.052 262.279 477.737 262.323C477.423 262.367 477.102 262.309 476.823 262.16L475.425 261.676C474.499 261.33 473.573 260.967 472.664 260.569C470.917 259.774 469.169 258.945 467.282 258.098C463.787 256.369 460.152 254.641 456.709 252.705L456.814 252.549Z" fill="black"/>
<path d="M456.762 236.873C460.257 234.902 463.752 233.208 467.334 231.497C469.082 230.65 470.917 229.769 472.717 229.008C473.625 228.611 474.552 228.265 475.478 227.919L476.876 227.418C477.155 227.268 477.475 227.211 477.79 227.255C478.104 227.298 478.396 227.44 478.623 227.66L478.885 228.282C478.873 228.586 478.768 228.88 478.584 229.123C478.4 229.367 478.146 229.55 477.854 229.648L476.509 230.27C475.618 230.685 474.761 231.065 473.783 231.428C471.948 232.137 470.078 232.776 468.208 233.433C464.468 234.712 460.729 235.991 456.867 237.028L456.762 236.873Z" fill="black"/>
<path d="M445.508 225.828C446.539 222.025 447.85 218.326 449.143 214.628C449.789 212.778 450.454 210.929 451.17 209.097C451.52 208.198 451.921 207.368 452.323 206.4L452.97 205.087C453.066 204.795 453.249 204.54 453.496 204.354C453.743 204.169 454.041 204.063 454.35 204.05L454.962 204.309C455.18 204.536 455.32 204.825 455.364 205.134C455.408 205.444 455.353 205.76 455.207 206.037L454.717 207.42C454.368 208.336 454.001 209.252 453.617 210.134C452.813 211.862 451.869 213.694 451.1 215.457C449.353 218.914 447.605 222.509 445.648 225.932L445.508 225.828Z" fill="black"/>
</g>
<g opacity="0.2">
<path d="M427.893 235.3C425.953 233.831 424.066 232.327 422.179 230.789L419.418 228.455C418.929 228.091 418.468 227.692 418.037 227.263C417.831 227.044 417.639 226.813 417.461 226.571C417.251 226.364 417.111 226.087 417.461 225.327L417.932 224.86C418.701 224.514 418.981 224.67 419.208 224.86L419.907 225.448C420.331 225.873 420.728 226.323 421.095 226.796L423.472 229.544C425.01 231.393 426.53 233.277 428.016 235.179L427.893 235.3Z" fill="black"/>
<path d="M423.996 244.875C421.585 245.186 419.156 245.446 416.744 245.67L413.109 245.964C412.529 246.037 411.946 246.077 411.362 246.085C411.059 246.101 410.756 246.101 410.453 246.085C410.156 246.085 409.859 245.981 409.544 245.204V244.547C409.859 243.769 410.156 243.683 410.453 243.665C410.756 243.649 411.059 243.649 411.362 243.665C411.946 243.668 412.529 243.702 413.109 243.769L416.744 244.063C419.156 244.288 421.585 244.547 423.996 244.858V244.875Z" fill="black"/>
<path d="M428.05 254.399C426.565 256.317 425.045 258.184 423.507 260.034L421.13 262.782C420.767 263.258 420.37 263.709 419.942 264.13L419.243 264.718C419.016 264.925 418.736 265.063 417.967 264.718L417.495 264.234C417.163 263.473 417.303 263.214 417.495 262.989C417.688 262.764 417.88 262.522 418.072 262.298C418.508 261.873 418.969 261.475 419.453 261.105L422.214 258.772C424.101 257.251 425.988 255.73 427.928 254.261L428.05 254.399Z" fill="black"/>
<path d="M437.732 258.288C438.046 260.69 438.308 263.076 438.553 265.478L438.832 269.056C438.913 269.629 438.954 270.206 438.955 270.784C438.955 271.095 438.955 271.389 438.955 271.683C438.955 271.977 438.85 272.288 438.064 272.582H437.382C436.596 272.288 436.508 271.994 436.491 271.683C436.473 271.372 436.491 271.095 436.491 270.784C436.492 270.206 436.533 269.629 436.613 269.056L436.893 265.478C437.137 263.076 437.399 260.69 437.714 258.288H437.732Z" fill="black"/>
<path d="M447.36 254.278C449.3 255.747 451.187 257.268 453.075 258.789L455.836 261.122C456.32 261.492 456.781 261.89 457.216 262.315C457.409 262.54 457.618 262.764 457.793 263.006C457.968 263.248 458.142 263.49 457.793 264.251L457.321 264.735C456.552 265.063 456.273 264.925 456.045 264.735L455.346 264.147C454.919 263.726 454.522 263.276 454.158 262.799L451.782 260.051C450.244 258.201 448.723 256.335 447.238 254.416L447.36 254.278Z" fill="black"/>
<path d="M451.31 244.702C453.721 244.391 456.15 244.132 458.562 243.907L462.197 243.613C462.777 243.547 463.36 243.512 463.944 243.51C464.247 243.493 464.55 243.493 464.853 243.51C465.15 243.51 465.447 243.613 465.762 244.391V245.048C465.447 245.826 465.15 245.912 464.853 245.929C464.55 245.946 464.247 245.946 463.944 245.929C463.36 245.922 462.776 245.881 462.197 245.808L458.562 245.515C456.15 245.29 453.721 245.031 451.31 244.72V244.702Z" fill="black"/>
<path d="M447.255 235.179C448.741 233.277 450.261 231.393 451.799 229.544L454.176 226.796C454.543 226.323 454.94 225.873 455.364 225.448L456.063 224.86C456.29 224.67 456.57 224.514 457.339 224.86L457.81 225.327C458.142 226.087 458.003 226.364 457.81 226.571C457.632 226.813 457.44 227.044 457.234 227.263C456.803 227.692 456.341 228.091 455.853 228.455L453.092 230.789C451.205 232.327 449.318 233.831 447.378 235.3L447.255 235.179Z" fill="black"/>
<path d="M437.574 231.29C437.26 228.887 436.998 226.502 436.753 224.1L436.473 220.522C436.392 219.949 436.352 219.371 436.351 218.793C436.351 218.499 436.351 218.188 436.351 217.894C436.351 217.601 436.456 217.289 437.242 216.996H437.924C438.71 217.289 438.798 217.601 438.815 217.894C438.832 218.188 438.815 218.499 438.815 218.793C438.814 219.371 438.774 219.949 438.693 220.522L438.413 224.1C438.168 226.502 437.906 228.887 437.592 231.29H437.574Z" fill="black"/>
</g>
</svg>
