<svg xmlns="http://www.w3.org/2000/svg" viewBox="0 0 500 500"><g id="freepik--Floor--inject-96"><ellipse id="freepik--floor--inject-96" cx="253.87" cy="353.84" rx="233.73" ry="131.96" style="fill:#f5f5f5"></ellipse></g><g id="freepik--Shadows--inject-96"><path id="freepik--Shadow--inject-96" d="M79.06,441.51l-7.17-4.14c-2.26-1.31-2.26-3.42,0-4.73L323.52,287.35a9.09,9.09,0,0,1,8.19,0l7.22,4.14c2.26,1.3,2.26,3.41,0,4.71L87.25,441.51A9.09,9.09,0,0,1,79.06,441.51Z" style="fill:#e6e6e6"></path><ellipse id="freepik--shadow--inject-96" cx="368.76" cy="374.7" rx="73.9" ry="42.67" style="fill:#e0e0e0"></ellipse></g><g id="freepik--Plants--inject-96"><g id="freepik--plants--inject-96"><path d="M91.66,421.24c-1-15.22.07-30.69-9.42-51.69-8-17.62-21.12-31.5-36.07-32.58-6.2-.45-10.68,1-13.29,5.41-4.57,7.75,2.24,16.06,9.54,20.85C45.63,365.34,72,379,79.29,409.29l3.16,17.25,1-.59Z" style="fill:#FCA311"></path><path d="M91.66,421.24c-1-15.22.07-30.69-9.42-51.69-8-17.62-21.12-31.5-36.07-32.58-6.2-.45-10.68,1-13.29,5.41-4.57,7.75,2.24,16.06,9.54,20.85C45.63,365.34,72,379,79.29,409.29l3.16,17.25,1-.59Z" style="fill:#fff;opacity:0.25"></path><path d="M86.85,416a.67.67,0,0,1-.57-.58C81.54,378.6,67.55,356.56,42,347.89a.66.66,0,0,1-.34-.89.69.69,0,0,1,.89-.34c25.77,8.23,40.25,31.29,45.05,68.63A.67.67,0,0,1,87,416Z" style="fill:#fff"></path><path d="M77.49,429.51c-1.08-5.28-3.92-11.4-14.67-23.19-9.28-10.18-23.75-15.86-26.58-22.18-3.4-7.6,2.7-14.58,14.34-13.07,14,1.82,28.27,22.64,33.46,54.57Z" style="fill:#FCA311"></path><path d="M77.49,429.51c-1.08-5.28-3.92-11.4-14.67-23.19-9.28-10.18-23.75-15.86-26.58-22.18-3.4-7.6,2.7-14.58,14.34-13.07,14,1.82,28.27,22.64,33.46,54.57Z" style="fill:#fff;opacity:0.65"></path><path d="M45.83,378.26a.65.65,0,0,0-.79.52.67.67,0,0,0,.52.8c9.41,2,29.08,19.65,35.45,47.69a.5.5,0,0,0,0,.13l1.19-.7C75.77,398.33,56.22,380.43,45.83,378.26Z" style="fill:#fff"></path></g><g id="freepik--plants--inject-96"><path d="M423.1,352.51c.82-11.92-.06-24,7.37-40.45,6.23-13.79,16.52-24.64,28.23-25.49,4.85-.35,8.35.78,10.39,4.23,3.58,6.07-1.75,12.57-7.46,16.32-2.51,1.65-23.17,12.33-28.85,36l-2.47,13.49-.82-.46Z" style="fill:#FCA311"></path><path d="M423.1,352.51c.82-11.92-.06-24,7.37-40.45,6.23-13.79,16.52-24.64,28.23-25.49,4.85-.35,8.35.78,10.39,4.23,3.58,6.07-1.75,12.57-7.46,16.32-2.51,1.65-23.17,12.33-28.85,36l-2.47,13.49-.82-.46Z" style="fill:#fff;opacity:0.25"></path><path d="M426.86,348.44a.53.53,0,0,0,.45-.45c3.71-28.85,14.66-46.1,34.63-52.88a.52.52,0,0,0,.27-.69.55.55,0,0,0-.7-.27c-20.16,6.44-31.49,24.48-35.25,53.7a.54.54,0,0,0,.46.59Z" style="fill:#fff"></path><path d="M434.19,359c.84-4.14,3.07-8.92,11.47-18.15,7.26-8,18.59-12.41,20.81-17.36,2.66-5.94-2.12-11.4-11.22-10.22C444.3,314.67,433.12,331,429.07,356Z" style="fill:#FCA311"></path><path d="M434.19,359c.84-4.14,3.07-8.92,11.47-18.15,7.26-8,18.59-12.41,20.81-17.36,2.66-5.94-2.12-11.4-11.22-10.22C444.3,314.67,433.12,331,429.07,356Z" style="fill:#fff;opacity:0.65"></path><path d="M431.61,355.35A.54.54,0,0,0,432,355c5.91-21.64,19.77-33.52,27.13-35.06a.53.53,0,0,0,.41-.63.51.51,0,0,0-.62-.4c-8.15,1.7-21.91,13.72-27.94,35.81a.53.53,0,0,0,.37.65A.55.55,0,0,0,431.61,355.35Z" style="fill:#fff"></path></g></g><g id="freepik--Clouds--inject-96"><g id="freepik--clouds--inject-96"><path d="M222.59,58.83l3.13-1.9a6.48,6.48,0,0,1,0-.65V54.73a9.56,9.56,0,0,1,4.33-7.5,3.35,3.35,0,0,1,2.58-.5A14.47,14.47,0,0,1,239,36.45c3.58-2.06,6.48-.39,6.48,3.74v2.33a11.25,11.25,0,0,1-.55,3.32l4.45-2.57c1.33-.77,2.4-.15,2.4,1.39a5.31,5.31,0,0,1-2.4,4.16l-26.8,15.56c-1.33.77-2.41.14-2.41-1.39A5.32,5.32,0,0,1,222.59,58.83Z" style="fill:#ebebeb"></path><path d="M203.38,40.41l-3.13,1.2v-6.9c0-5.47-4.37-6.78-9.1-4.05h0c-4.74,2.74-8.58,9.39-8.58,14.86v1a4.62,4.62,0,0,0-4,.62h0a13.63,13.63,0,0,0-6.17,10.69v.45l-4.37,2.53a9,9,0,0,0-4.07,7c0,2.59,1.82,3.64,4.07,2.34L203.38,49.8a9,9,0,0,0,4.07-7C207.45,40.16,205.63,39.11,203.38,40.41Z" style="fill:#ebebeb"></path></g></g><g id="freepik--Window--inject-96"><g id="freepik--window--inject-96"><g id="freepik--window--inject-96"><path d="M97,427a9,9,0,0,1-4.17,1.27,10.58,10.58,0,0,1-6.11-1.07,11.34,11.34,0,0,1-5-9l0-205.65,10,5.77V424c0,2.41,1.21,3.8,3,3.8A5.2,5.2,0,0,0,97,427Z" style="fill:#e0e0e0"></path><path d="M334,284.05a11.73,11.73,0,0,1-5.31,9.21L97,427c-2.92,1.7-5.3.32-5.3-3.07V192.17l14.63-8.44c2.92-1.7,147.27-85,150.19-86.72L334,52.24V284.05Z" style="fill:#fafafa"></path><path d="M331.72,56.17V284.05a9.53,9.53,0,0,1-4.17,7.24L95.83,425.08a2.61,2.61,0,0,1-1.23.42c-.58,0-.67-1-.67-1.53V193.48l13.5-7.79,76-43.91L257.62,99l74.1-42.8M334,52.24,256.48,97c-2.92,1.69-147.27,85-150.19,86.72l-14.63,8.44V424c0,2.41,1.2,3.8,2.94,3.8A4.78,4.78,0,0,0,97,427L328.68,293.26a11.73,11.73,0,0,0,5.31-9.21V52.24Z" style="fill:#ebebeb"></path><path d="M308.3,165.53h0m-1.93,1.12V272.41a.85.85,0,0,1-.18.34L130.08,374.43V268.66a.94.94,0,0,1,.18-.33L306.37,166.65m1.43-3.11a1,1,0,0,0-.55.17L129.2,266.5a2.72,2.72,0,0,0-1.23,2.13v108c0,.55.27.88.68.88a1.12,1.12,0,0,0,.54-.17l178.05-102.8a2.7,2.7,0,0,0,1.23-2.12v-108c0-.56-.28-.88-.68-.88Z" style="fill:#ebebeb"></path><path d="M86.67,208.52a11.37,11.37,0,0,1-5-9v-25A11.76,11.76,0,0,1,87,165.3L318.71,31.51a11.41,11.41,0,0,1,10.3-.19,11.38,11.38,0,0,1,5,9v25a11.69,11.69,0,0,1-5.31,9.2L97,208.33A11.39,11.39,0,0,1,86.67,208.52Z" style="fill:#263238"></path><path d="M333.94,39.47c-.37-2.75-2.61-3.75-5.26-2.21L97,171.05a11.26,11.26,0,0,0-3.75,4l-10-5.77a11,11,0,0,1,3.76-4L318.72,31.52a11.34,11.34,0,0,1,10.28-.2A11.4,11.4,0,0,1,333.94,39.47Z" style="fill:#455a64"></path><path d="M334,40.33V52.24L256.48,97c-2.92,1.69-147.27,85-150.19,86.72l-14.63,8.44V180.26a11.77,11.77,0,0,1,5.3-9.21L328.68,37.26C331.6,35.57,334,36.94,334,40.33Z" style="fill:#37474f"></path><path d="M325.09,45c1.72-1,3.12-.19,3.12,1.8a6.9,6.9,0,0,1-3.12,5.39c-1.71,1-3.11.18-3.11-1.8A6.9,6.9,0,0,1,325.09,45Z" style="fill:#fff"></path><path d="M313.89,51.44c1.72-1,3.11-.19,3.11,1.8a6.86,6.86,0,0,1-3.11,5.38c-1.72,1-3.11.19-3.11-1.79A6.86,6.86,0,0,1,313.89,51.44Z" style="fill:#fff"></path><path d="M302.69,57.9c1.72-1,3.11-.19,3.11,1.79a6.86,6.86,0,0,1-3.11,5.39c-1.72,1-3.11.19-3.11-1.79A6.86,6.86,0,0,1,302.69,57.9Z" style="fill:#fff"></path><path d="M100.67,187c1.48-.86,2-2.16,2.69-4.66l1.63-5.64c.59-2.26,1.21-3.81,2.7-4.66l64.85-37.45c1.49-.86,2.66-1,3.79.92l2,3.63c.85,1.46,1.27,2.32,2.75,1.46l50.36-29.06L334,52.24v26.2L91.66,218.36V192.17l9-5.22" style="fill:#e0e0e0"></path><polygon points="91.66 192.17 91.66 218.35 81.67 212.59 81.67 186.43 91.66 192.17" style="fill:#e0e0e0"></polygon><polygon points="91.66 192.17 91.66 218.35 81.67 212.59 81.67 186.43 91.66 192.17" style="opacity:0.15"></polygon><path d="M105.13,197.36l-4.66,2.69,1.77-3.42a.83.83,0,0,0,0-.83c-.14-.17-.37-.05-.53.25l-2.53,4.87h0a1.34,1.34,0,0,0-.07.18.14.14,0,0,1,0,.06,1.15,1.15,0,0,0,0,.26.66.66,0,0,0,0,.21l0,0a.41.41,0,0,0,.07.11h0l2.53,1.94a.21.21,0,0,0,.25,0,.78.78,0,0,0,.28-.36c.14-.32.12-.67,0-.79l-1.77-1.37,4.66-2.69a1,1,0,0,0,.38-.8C105.51,197.4,105.34,197.24,105.13,197.36Z" style="opacity:0.30000000000000004"></path><path d="M109,195.11l4.66-2.69-1.77-1.37c-.16-.12-.18-.48,0-.8s.37-.48.53-.36l2.53,2h0a.26.26,0,0,1,.07.1s0,0,0,0a.66.66,0,0,1,0,.21,1.07,1.07,0,0,1,0,.25.14.14,0,0,0,0,.06,1.34,1.34,0,0,1-.07.18v0l-2.53,4.87a.7.7,0,0,1-.25.28.2.2,0,0,1-.28,0,.85.85,0,0,1,0-.84l1.77-3.42-4.66,2.7c-.21.12-.38-.05-.38-.37A1,1,0,0,1,109,195.11Z" style="opacity:0.30000000000000004"></path><path d="M123.93,181.67c0-.28-.27-.24-.4.06l-.63,1.57c-1.09-.12-2.41.94-3.31,2.83-1.15,2.45-1.15,5.34,0,6.45a1.66,1.66,0,0,0,2.1.13,5.65,5.65,0,0,0,2.09-2.55.77.77,0,0,0,0-.81c-.14-.15-.38,0-.53.3-.86,1.83-2.26,2.64-3.13,1.81s-.86-3,0-4.82c.62-1.3,1.5-2.07,2.27-2.12l-.48,1.18c-.12.31,0,.59.19.46l1.9-1.24a.61.61,0,0,0,.21-.52Z" style="opacity:0.30000000000000004"></path><path d="M171.59,142.9l1.87-4a1.2,1.2,0,0,0,0-1.23c-.22-.22-.58,0-.8.46l-1.87,4-1.87-1.8c-.22-.21-.58,0-.8.46a1.2,1.2,0,0,0,0,1.23l1.87,1.8-1.87,4a1.2,1.2,0,0,0,0,1.23.31.31,0,0,0,.4,0,1.2,1.2,0,0,0,.4-.49l1.87-4,1.87,1.8a.31.31,0,0,0,.4,0,1.4,1.4,0,0,0,.4-1.72Z" style="opacity:0.30000000000000004"></path><path d="M134.26,183.47V178.3a5.66,5.66,0,0,1,2.56-4.43L312,72.48c1.41-.82,2.55-.16,2.55,1.47v5.18A5.63,5.63,0,0,1,312,83.55L136.82,185C135.41,185.76,134.26,185.1,134.26,183.47Z" style="fill:#fafafa"></path><path d="M308.56,84a.79.79,0,0,1-.23,0,.7.7,0,0,1-.39-.78l.26-2.1-1-.71a.67.67,0,0,1-.27-.57,1.13,1.13,0,0,1,.42-.89l1.5-1.16a.2.2,0,0,0,.07-.12l.67-2.2a.93.93,0,0,1,.76-.71A.61.61,0,0,1,311,75l.56,1.2,1.27-.49a.59.59,0,0,1,.67.16.91.91,0,0,1,0,1l-1.09,2a.28.28,0,0,0,0,.13l.25,1.84a1.15,1.15,0,0,1-.32.92.67.67,0,0,1-.59.23l-1.23-.15-1.32,1.69A.77.77,0,0,1,308.56,84Zm-.73-4.27,1,.71a.73.73,0,0,1,.26.7l-.17,1.4.89-1.13a.74.74,0,0,1,.67-.32l1.23.15a.3.3,0,0,0,.05-.14l-.26-1.84a1.15,1.15,0,0,1,.13-.67l.95-1.78-1,.38a.61.61,0,0,1-.77-.31l-.45-1-.59,2a1.18,1.18,0,0,1-.37.56l-1.51,1.16A.42.42,0,0,0,307.83,79.68Z" style="fill:#e0e0e0"></path><g style="opacity:0.2"><path d="M319.46,70.47A.84.84,0,0,1,319,68.9l6.84-4a.84.84,0,1,1,.84,1.46l-6.84,4A.78.78,0,0,1,319.46,70.47Z"></path><path d="M319.46,74.42a.84.84,0,0,1-.42-1.57l6.84-3.95a.84.84,0,1,1,.84,1.46l-6.84,4A.78.78,0,0,1,319.46,74.42Z"></path><path d="M319.46,78.38A.85.85,0,0,1,319,76.8l6.84-4a.84.84,0,0,1,1.15.31.84.84,0,0,1-.31,1.15l-6.84,4A.79.79,0,0,1,319.46,78.38Z"></path></g></g><path d="M258.2,141.16l50.08-28.91c1.48-.86,2.68-.16,2.68,1.55v11.26a6,6,0,0,1-2.69,4.65L258.2,158.62c-1.48.86-2.68.16-2.68-1.55V145.81A6,6,0,0,1,258.2,141.16Z" style="fill:#FCA311"></path><path d="M258.2,141.16l50.08-28.91c1.48-.86,2.68-.16,2.68,1.55v11.26a6,6,0,0,1-2.69,4.65L258.2,158.62c-1.48.86-2.68.16-2.68-1.55V145.81A6,6,0,0,1,258.2,141.16Z" style="fill:#fff;opacity:0.30000000000000004"></path><path d="M197.71,176l50.08-28.91c1.48-.85,2.68-.16,2.68,1.55v11.26a5.94,5.94,0,0,1-2.69,4.65L197.71,193.5c-1.48.85-2.68.16-2.68-1.56V180.69A6,6,0,0,1,197.71,176Z" style="fill:#FCA311"></path><path d="M197.71,176l50.08-28.91c1.48-.85,2.68-.16,2.68,1.55v11.26a5.94,5.94,0,0,1-2.69,4.65L197.71,193.5c-1.48.85-2.68.16-2.68-1.56V180.69A6,6,0,0,1,197.71,176Z" style="fill:#fff;opacity:0.30000000000000004"></path></g><g id="freepik--menu-button--inject-96"><path d="M190,189.49a1.88,1.88,0,0,0-.79-1.74l-5-2.92a1.91,1.91,0,0,0-1.9.19l-65.18,37.62a6,6,0,0,0-2.69,4.66v11.25a1.89,1.89,0,0,0,.78,1.73c.48.29,4.57,2.65,5.07,2.93a1.89,1.89,0,0,0,1.89-.19l65.19-37.61a5.91,5.91,0,0,0,2.69-4.65Z" style="fill:#FCA311"></path><path d="M190,189.49a1.88,1.88,0,0,0-.79-1.74l-5-2.92a1.91,1.91,0,0,0-1.9.19l-65.18,37.62a6,6,0,0,0-2.69,4.66v11.25a1.89,1.89,0,0,0,.78,1.73c.48.29,4.57,2.65,5.07,2.93a1.89,1.89,0,0,0,1.89-.19l65.19-37.61a5.91,5.91,0,0,0,2.69-4.65Z" style="opacity:0.15"></path><path d="M122.1,225.56l65.17-37.62a1.64,1.64,0,0,1,2.69,1.55l0,11.27a5.93,5.93,0,0,1-2.68,4.65L122.1,243a1.64,1.64,0,0,1-2.69-1.55V230.21A5.94,5.94,0,0,1,122.1,225.56Z" style="fill:#FCA311"></path><path d="M189.18,187.75a1.91,1.91,0,0,0-1.9.19l-65.17,37.61a5.69,5.69,0,0,0-1.91,2l-5-2.91a5.5,5.5,0,0,1,1.9-2L182.24,185a1.91,1.91,0,0,1,1.9-.19Z" style="fill:#FCA311"></path><path d="M189.18,187.75a1.91,1.91,0,0,0-1.9.19l-65.17,37.61a5.69,5.69,0,0,0-1.91,2l-5-2.91a5.5,5.5,0,0,1,1.9-2L182.24,185a1.91,1.91,0,0,1,1.9-.19Z" style="fill:#fff;opacity:0.30000000000000004"></path><path d="M134.44,227.05l1.6-5.22.11-.27a.65.65,0,0,1,.25-.29l.58-.33a.12.12,0,0,1,.16,0,.31.31,0,0,1,.07.21v8.4a.77.77,0,0,1-.07.29.48.48,0,0,1-.16.2l-.69.39a.12.12,0,0,1-.16,0,.29.29,0,0,1-.06-.21v-5.08L135,228.7a2.93,2.93,0,0,1-.12.28.48.48,0,0,1-.2.22l-.43.26a.18.18,0,0,1-.2,0,.79.79,0,0,1-.12-.15L132.8,227v5.08a.72.72,0,0,1-.06.29.48.48,0,0,1-.16.2l-.69.39a.12.12,0,0,1-.16,0,.29.29,0,0,1-.07-.21v-8.4a.77.77,0,0,1,.07-.29.45.45,0,0,1,.16-.19l.58-.33c.11-.07.19-.07.25,0l.11.15Z" style="fill:#fafafa"></path><path d="M138.23,225.94a7.91,7.91,0,0,1,.14-1.45,7,7,0,0,1,.42-1.36,5.38,5.38,0,0,1,.65-1.13,3.1,3.1,0,0,1,.86-.77,1.4,1.4,0,0,1,.86-.22,1,1,0,0,1,.65.33,2,2,0,0,1,.42.82,4.23,4.23,0,0,1,.15,1.18v.58a.62.62,0,0,1-.07.29.42.42,0,0,1-.16.2L139.33,226a1.09,1.09,0,0,0,.08.48.55.55,0,0,0,.21.26.49.49,0,0,0,.32.05,1.12,1.12,0,0,0,.36-.13,2,2,0,0,0,.44-.34A2.47,2.47,0,0,0,141,226a2.33,2.33,0,0,1,.15-.23.53.53,0,0,1,.16-.13l.68-.39a.13.13,0,0,1,.16,0,.22.22,0,0,1,.06.21,1.58,1.58,0,0,1-.13.54,4.4,4.4,0,0,1-.36.78,5.54,5.54,0,0,1-.61.81,3.39,3.39,0,0,1-.83.68,1.53,1.53,0,0,1-.86.24,1,1,0,0,1-.65-.34,2.19,2.19,0,0,1-.42-.88A5.74,5.74,0,0,1,138.23,225.94Zm2.07-3.15a1.82,1.82,0,0,0-.42.36,2.66,2.66,0,0,0-.29.45,2.3,2.3,0,0,0-.18.5,2.86,2.86,0,0,0-.08.45l1.91-1.1a1.61,1.61,0,0,0-.07-.37.69.69,0,0,0-.15-.31.43.43,0,0,0-.28-.12A.84.84,0,0,0,140.3,222.79Z" style="fill:#fafafa"></path><path d="M147.42,223.67a.58.58,0,0,1-.07.28.37.37,0,0,1-.16.2l-.64.37a.12.12,0,0,1-.16,0,.31.31,0,0,1-.07-.21V221a2,2,0,0,0-.23-1.12c-.16-.22-.4-.23-.73,0a1.76,1.76,0,0,0-.7.88,3.46,3.46,0,0,0-.26,1.4v3.3a.77.77,0,0,1-.07.29.56.56,0,0,1-.16.2l-.64.37c-.07,0-.12,0-.16,0a.24.24,0,0,1-.07-.2V220a.58.58,0,0,1,.07-.28.37.37,0,0,1,.16-.2l.64-.37a.12.12,0,0,1,.16,0,.31.31,0,0,1,.07.21v.3a4.88,4.88,0,0,1,.51-.86,2.29,2.29,0,0,1,.7-.62,1.39,1.39,0,0,1,.87-.25.76.76,0,0,1,.55.34,1.92,1.92,0,0,1,.3.79,6.43,6.43,0,0,1,.09,1.12Z" style="fill:#fafafa"></path><path d="M148.5,217a.77.77,0,0,1,.07-.29.45.45,0,0,1,.16-.19l.64-.37c.07,0,.12,0,.16,0a.24.24,0,0,1,.07.2v3.31a2.12,2.12,0,0,0,.22,1.12c.14.23.38.25.7.06a1.64,1.64,0,0,0,.69-.86,3.91,3.91,0,0,0,.23-1.38v-3.31a.72.72,0,0,1,.07-.28.43.43,0,0,1,.16-.2l.64-.37a.13.13,0,0,1,.17,0,.29.29,0,0,1,.06.21v6.06a.79.79,0,0,1-.06.29.4.4,0,0,1-.17.19l-.64.37a.11.11,0,0,1-.16,0,.29.29,0,0,1-.07-.21V221a5.3,5.3,0,0,1-.48.82,2.1,2.1,0,0,1-.69.64,1.4,1.4,0,0,1-.85.25.81.81,0,0,1-.55-.35,2,2,0,0,1-.28-.81,6.23,6.23,0,0,1-.09-1.11Z" style="fill:#fafafa"></path><polygon points="175.94 206.17 172.22 203.36 172.89 202.09 175.63 204.16 178.37 198.93 179.35 199.67 175.94 206.17" style="fill:#fafafa"></polygon></g></g><g id="freepik--dropdown-menu-2--inject-96"><g id="freepik--dropdown-menu--inject-96"><path d="M253.16,234.48a1.88,1.88,0,0,0-.79-1.74l-5-2.9a1.88,1.88,0,0,0-1.9.18l-42.69,24.64-2.68,1.55v84.21a1.91,1.91,0,0,0,.77,1.73l5.07,2.92a1.87,1.87,0,0,0,1.89-.19l42.7-24.63a5.93,5.93,0,0,0,2.68-4.65Z" style="fill:#e0e0e0"></path><path d="M247.34,229.84a1.88,1.88,0,0,0-1.91.18l-42.68,24.63-2.68,1.56-8,4.6a1.21,1.21,0,0,0,0,2.09,53,53,0,0,0,5.34,3l7.66,1.93v-8.73l2.69-1.55,42.67-24.64a1.91,1.91,0,0,1,1.9-.19C251.89,232.46,247.83,230.11,247.34,229.84Z" style="fill:#f0f0f0"></path><path d="M253.15,234.48a1.64,1.64,0,0,0-2.69-1.55l-45.35,26.19-8,4.6a1.2,1.2,0,0,0,0,2.08,1.05,1.05,0,0,0,.31.12l7.66,1.93v75.48a1.63,1.63,0,0,0,2.68,1.55l42.7-24.63a5.94,5.94,0,0,0,2.69-4.65Z" style="fill:#fafafa"></path><path d="M251.69,233.89a1,1,0,0,1,.13.59l0,81.12a4.6,4.6,0,0,1-2,3.5l-42.69,24.62a1.34,1.34,0,0,1-.56.2,1,1,0,0,1-.13-.59V266.81l-1-.25-7.34-1.85,7.68-4.43,45.36-26.19a1.17,1.17,0,0,1,.53-.19h0m0-1.33a2.46,2.46,0,0,0-1.2.37l-45.35,26.19-8,4.6a1.2,1.2,0,0,0,0,2.08,1.05,1.05,0,0,0,.31.12l7.66,1.93v75.48a1.88,1.88,0,0,0,.79,1.74,1.34,1.34,0,0,0,.69.18,2.4,2.4,0,0,0,1.2-.37l42.7-24.63a5.94,5.94,0,0,0,2.69-4.65l0-81.12a1.88,1.88,0,0,0-.79-1.74,1.35,1.35,0,0,0-.7-.18Z" style="fill:#e0e0e0"></path><polygon points="205.11 310.79 205.11 312.22 253.17 284.48 253.17 283.04 205.11 310.79" style="fill:#e0e0e0"></polygon><polygon points="205.11 329.69 253.17 301.94 253.17 300.5 205.11 328.25 205.11 329.69" style="fill:#e0e0e0"></polygon><polygon points="205.11 275.87 205.11 277.3 253.16 249.56 253.16 248.12 205.11 275.87" style="fill:#e0e0e0"></polygon><polygon points="205.11 293.33 205.11 294.76 253.16 267.02 253.16 265.58 205.11 293.33" style="fill:#e0e0e0"></polygon><polygon points="206.35 294.05 251.97 267.71 251.97 283.86 206.35 310.07 206.35 294.05" style="fill:#FCA311"></polygon><polygon points="206.35 294.05 251.97 267.71 251.97 283.86 206.35 310.07 206.35 294.05" style="fill:#fff;opacity:0.6000000000000001"></polygon><path d="M215.19,294l20.16-11.64c.89-.51,1.61-.1,1.61.93v.86a3.55,3.55,0,0,1-1.61,2.79l-20.16,11.64c-.89.52-1.61.1-1.61-.93v-.86A3.58,3.58,0,0,1,215.19,294Z" style="fill:#FCA311"></path><path d="M215.19,276.6,235.35,265c.89-.51,1.61-.09,1.61.94v.85a3.55,3.55,0,0,1-1.61,2.79l-20.16,11.65c-.89.51-1.61.09-1.61-.93v-.86A3.55,3.55,0,0,1,215.19,276.6Z" style="fill:#e0e0e0"></path><path d="M215.19,259.12l20.16-11.64c.89-.52,1.61-.1,1.61.93v.86a3.58,3.58,0,0,1-1.61,2.79L215.19,263.7c-.89.51-1.61.1-1.61-.93v-.86A3.55,3.55,0,0,1,215.19,259.12Z" style="fill:#e0e0e0"></path><path d="M215.19,329l20.16-11.64c.89-.51,1.61-.09,1.61.93v.86a3.55,3.55,0,0,1-1.61,2.79l-20.16,11.64c-.89.52-1.61.1-1.61-.93v-.85A3.58,3.58,0,0,1,215.19,329Z" style="fill:#e0e0e0"></path><path d="M215.19,311.49l20.16-11.64c.89-.52,1.61-.1,1.61.93v.85a3.58,3.58,0,0,1-1.61,2.8l-20.16,11.64c-.89.51-1.61.1-1.61-.93v-.86A3.55,3.55,0,0,1,215.19,311.49Z" style="fill:#e0e0e0"></path></g></g><g id="freepik--dropdown-menu-1--inject-96"><g id="freepik--dropdown-menu--inject-96"><path d="M190,224.4a1.88,1.88,0,0,0-.79-1.74l-5-2.9a1.9,1.9,0,0,0-1.91.18l-65.18,37.61a6,6,0,0,0-2.69,4.65v81.11a1.89,1.89,0,0,0,.78,1.73c.48.29,4.57,2.65,5.07,2.93a1.92,1.92,0,0,0,1.89-.19l65.19-37.61a5.91,5.91,0,0,0,2.69-4.65Z" style="fill:#e0e0e0"></path><path d="M189.18,222.66a1.91,1.91,0,0,0-1.9.19l-65.17,37.61a5.61,5.61,0,0,0-1.91,2l-5-2.91a5.5,5.5,0,0,1,1.9-2l65.18-37.61a1.88,1.88,0,0,1,1.91-.18Z" style="fill:#f0f0f0"></path><path d="M179.9,227.11l-2.5-4.34a.9.9,0,0,0-.35-.35l-5-2.92a1,1,0,0,0-1.39.51l-2.87,8.28,5,2.93Z" style="fill:#e0e0e0"></path><path d="M190,224.4a1.64,1.64,0,0,0-2.69-1.55l-7.37,4.25-2.5-4.33a1,1,0,0,0-1.73.16l-2.86,8.26L122.1,260.46a6,6,0,0,0-2.69,4.66v81.1a1.89,1.89,0,0,0,.8,1.75,1.92,1.92,0,0,0,1.89-.19l65.2-37.61a5.93,5.93,0,0,0,2.68-4.65Z" style="fill:#fafafa"></path><path d="M188.5,223.81a1,1,0,0,1,.12.59l0,81.12a4.65,4.65,0,0,1-2,3.5l-65.2,37.6a1.12,1.12,0,0,1-.55.19s-.13-.19-.13-.59v-81.1a4.6,4.6,0,0,1,2-3.5l50.71-29.27.43-.25.16-.47,2.59-7.47,2.08,3.61.67,1.16,1.16-.67,7.37-4.26a1.23,1.23,0,0,1,.56-.19m-11.93-1.52a.93.93,0,0,0-.9.64l-2.86,8.26L122.1,260.46a6,6,0,0,0-2.69,4.66v81.1a1.89,1.89,0,0,0,.8,1.75,1.41,1.41,0,0,0,.69.17,2.52,2.52,0,0,0,1.2-.36l65.2-37.61a5.93,5.93,0,0,0,2.68-4.65l0-81.12a1.88,1.88,0,0,0-.79-1.74,1.38,1.38,0,0,0-.7-.18,2.43,2.43,0,0,0-1.2.37l-7.37,4.25-2.5-4.33a1,1,0,0,0-.83-.48Z" style="fill:#e0e0e0"></path><polygon points="119.41 278.77 119.41 280.21 189.98 239.47 189.98 238.03 119.41 278.77" style="fill:#e0e0e0"></polygon><polygon points="119.41 313.7 119.41 315.13 189.98 274.39 189.98 272.96 119.41 313.7" style="fill:#e0e0e0"></polygon><polygon points="119.41 332.59 189.98 291.85 189.98 290.42 119.41 331.16 119.41 332.59" style="fill:#e0e0e0"></polygon><polygon points="119.41 296.24 119.41 297.67 189.98 256.93 189.98 255.5 119.41 296.24" style="fill:#e0e0e0"></polygon><polygon points="120.67 296.95 188.76 257.63 188.74 273.67 120.67 312.98 120.67 296.95" style="fill:#FCA311"></polygon><polygon points="120.67 296.95 188.76 257.63 188.74 273.67 120.67 312.98 120.67 296.95" style="fill:#fff;opacity:0.6000000000000001"></polygon><path d="M131.11,296l32.06-18.51c.89-.51,1.61-.09,1.61.93v.86a3.55,3.55,0,0,1-1.61,2.79L131.11,300.6c-.89.52-1.62.1-1.62-.93v-.85A3.59,3.59,0,0,1,131.11,296Z" style="fill:#FCA311"></path><path d="M131.11,278.59l32.06-18.51c.89-.52,1.61-.1,1.61.93v.85a3.58,3.58,0,0,1-1.61,2.8l-32.06,18.51c-.89.51-1.62.09-1.62-.93v-.86A3.56,3.56,0,0,1,131.11,278.59Z" style="fill:#e0e0e0"></path><path d="M131.11,261.11l32.06-18.51c.89-.51,1.61-.1,1.61.93v.86a3.55,3.55,0,0,1-1.61,2.79l-32.06,18.51c-.89.51-1.62.1-1.62-.93v-.86A3.56,3.56,0,0,1,131.11,261.11Z" style="fill:#e0e0e0"></path><path d="M131.11,331l32.06-18.51c.89-.51,1.61-.09,1.61.93v.86a3.55,3.55,0,0,1-1.61,2.79l-32.06,18.51c-.89.52-1.62.1-1.62-.93v-.85A3.59,3.59,0,0,1,131.11,331Z" style="fill:#e0e0e0"></path><path d="M131.11,313.48,163.17,295c.89-.52,1.61-.1,1.61.93v.86a3.58,3.58,0,0,1-1.61,2.79l-32.06,18.51c-.89.51-1.62.1-1.62-.93v-.86A3.56,3.56,0,0,1,131.11,313.48Z" style="fill:#e0e0e0"></path></g></g><g id="freepik--Cursor--inject-96"><g id="freepik--Arrow--inject-96"><path d="M266.54,296.41l-15.05-18a1.1,1.1,0,0,0-.27-.24l-3.61-2.09c-.31-.18-.53.06-.53.65L247,313.13c0,.31.05.49.13.54l3.61,2.09c.12.06.31-.13.53-.59l2.58-5.53,1.47,5.26a.7.7,0,0,0,.29.43l3.62,2.09c.3.17.74,0,1.16-.47l2.08-2.4a3.12,3.12,0,0,0,.76-2.5l-2.84-10.16a1.82,1.82,0,0,1,1.19-1.93l4.22-1.9C266.65,297.67,267,296.93,266.54,296.41Z" style="fill:#FCA311"></path><path d="M266.54,296.41l-15.05-18a1.1,1.1,0,0,0-.27-.24l-3.61-2.09c-.31-.18-.53.06-.53.65L247,313.13c0,.31.05.49.13.54l3.61,2.09c.12.06.31-.13.53-.59l2.58-5.53,1.47,5.26a.7.7,0,0,0,.29.43l3.62,2.09c.3.17.74,0,1.16-.47l2.08-2.4a3.12,3.12,0,0,0,.76-2.5l-2.84-10.16a1.82,1.82,0,0,1,1.19-1.93l4.22-1.9C266.65,297.67,267,296.93,266.54,296.41Z" style="fill:#37474f"></path><path d="M250.61,315.22l.08-36.43c0-.76.36-.94.8-.41l15.05,18c.44.52.11,1.26-.74,1.65l-4.22,1.9a1.82,1.82,0,0,0-1.19,1.93l2.84,10.16a3.12,3.12,0,0,1-.76,2.5l-2.08,2.4c-.61.7-1.26.72-1.45,0l-2.85-10.15c-.19-.68-.64-.6-1,.18l-3.81,8.16C250.9,316,250.61,316,250.61,315.22Z" style="fill:#455a64"></path><path d="M259.17,317.38l-3.56-2.05a.7.7,0,0,1-.29-.43l-1.47-5.25,1.23-2.64c.37-.78.82-.86,1-.18L258.93,317A.8.8,0,0,0,259.17,317.38Z" style="fill:#263238"></path></g></g><g id="freepik--Character--inject-96"><g id="freepik--character--inject-96"><g id="freepik--Bottom--inject-96"><path d="M338.07,386.16l-8.25-16.24-16.59,9.71,20.45,24.14s10.14-.93,11.77-6.22S340.86,387.92,338.07,386.16Z" style="fill:#c8856a"></path><path d="M349.75,392.54a8.61,8.61,0,0,1,2.3,2.51c.67,1,.46,5.8,1.1,8s1.13,2.82,2.2,5.62c1.18,3.1,3.37,5.93.9,13.89s-6.43,11.76-9.76,13.71a8.79,8.79,0,0,1-4,1s-4.37-1.65-3.7-4.24S349.75,392.54,349.75,392.54Z" style="fill:#263238"></path><path d="M330.57,401.28c.12.82,1.26,2.08,1.73,2.75,1.57,2.25,2.29,5.3,2.83,8,2.58,12.6-2.43,19,4.36,23.74,2,1.23,6,.89,12.23-7.05,3.17-4.06,5-12.4,3.74-16.18s-2.92-6.24-3.72-9.15-.38-8.32-2-10.81a11.67,11.67,0,0,0-3.93-3.39c-1.2-.73-3.84-1.69-5.06-2.39s-1.91-1.49-2.69-.6l1.41,1.75c2.21,3.06,1.6,3.51,1.54,5.14a25.85,25.85,0,0,0,.83,5.19c-1.58-2-2.22-3.72-3.94-3.42s-1.92.23-4.38,2.53S330.46,400.55,330.57,401.28Z" style="fill:#FCA311"></path><path d="M330.57,401.28c.12.82,1.26,2.08,1.73,2.75,1.57,2.25,2.29,5.3,2.83,8,2.58,12.6-2.43,19,4.36,23.74,2,1.23,6,.89,12.23-7.05,3.17-4.06,5-12.4,3.74-16.18s-2.92-6.24-3.72-9.15-.38-8.32-2-10.81a11.67,11.67,0,0,0-3.93-3.39c-1.2-.73-3.84-1.69-5.06-2.39s-1.91-1.49-2.69-.6l1.41,1.75c2.21,3.06,1.6,3.51,1.54,5.14a25.85,25.85,0,0,0,.83,5.19c-1.58-2-2.22-3.72-3.94-3.42s-1.92.23-4.38,2.53S330.46,400.55,330.57,401.28Z" style="opacity:0.4"></path><path d="M351.72,428.68c3.17-4.06,5-12.4,3.74-16.18a35.36,35.36,0,0,0-1.45-3.66c.05.25.13.52.16.73.08.49.14,1,.19,1.48a11.37,11.37,0,0,1-.63,5.72c-.71,1.57-2.36,5.51-4.48,5.59-1.2.05-2.21-1.12-2.68-2.46-.19-.57-.51-2.1-.51-2.1a18.61,18.61,0,0,0-5.52,2.25c-3.07,2-3,2.48-3,2.48a8,8,0,0,1,.1,2.7,6.77,6.77,0,0,1-1.14,2.69,4.12,4.12,0,0,1-.79.63c.13,2.91.89,5.19,3.74,7.18C341.45,437,345.53,436.62,351.72,428.68Z" style="opacity:0.30000000000000004"></path><path d="M335.13,412a42.66,42.66,0,0,1,.79,10.07c1.16,3.23,2.17,3.14,2.31,1.46s-2.09-8.61-3.75-14.34C334.74,410.13,335,411.08,335.13,412Z" style="fill:#37474f"></path><path d="M342.8,391.78a7,7,0,0,0-1.23-4.61c-.3-.14-.59-.28-.81-.41-1.33-.75-1.91-1.49-2.69-.6l1.41,1.75c2.21,3.06,1.6,3.51,1.54,5.14a25.85,25.85,0,0,0,.83,5.19c1.28,5.47,2.45,7.3,3.06,12.47s-.43,8.64.3,8.93,2.2-.29,2.47-4.43-1.56-11.11-2.85-14.41S342.54,394,342.8,391.78Z" style="fill:#37474f"></path><path d="M346.42,418.16a.51.51,0,0,1-.26.14,12.37,12.37,0,0,0-8.26,4.84.52.52,0,0,1-.73.06.51.51,0,0,1-.06-.72,13.4,13.4,0,0,1,8.84-5.19.53.53,0,0,1,.61.41A.49.49,0,0,1,346.42,418.16Z" style="fill:#ebebeb"></path><path d="M345.77,413.85a.61.61,0,0,1-.26.15,13.82,13.82,0,0,0-8.7,5.28.52.52,0,0,1-.75.06.54.54,0,0,1-.06-.75,14.93,14.93,0,0,1,9.27-5.63.53.53,0,0,1,.5.89Z" style="fill:#ebebeb"></path><path d="M345.86,409.1a.5.5,0,0,1-.28.16,15.76,15.76,0,0,0-9.73,5.94.58.58,0,0,1-.82.06.58.58,0,0,1-.07-.82,16.88,16.88,0,0,1,10.35-6.31.57.57,0,0,1,.7.43A.56.56,0,0,1,345.86,409.1Z" style="fill:#ebebeb"></path><path d="M345.17,405.05a.55.55,0,0,1-.28.15,15.39,15.39,0,0,0-9.51,5.8.57.57,0,0,1-.8.06.56.56,0,0,1-.07-.8,16.43,16.43,0,0,1,10.13-6.17.57.57,0,0,1,.68.43A.55.55,0,0,1,345.17,405.05Z" style="fill:#ebebeb"></path><path d="M343.69,401.1a.71.71,0,0,1-.28.16,15.3,15.3,0,0,0-9.52,5.8.57.57,0,1,1-.86-.75,16.46,16.46,0,0,1,10.12-6.17.58.58,0,0,1,.69.43A.6.6,0,0,1,343.69,401.1Z" style="fill:#ebebeb"></path><polygon points="333.59 387.46 322.85 396.24 316.77 400.05 323.71 413.16 343.25 403.81 333.59 387.46" style="fill:#c8856a"></polygon><path d="M355.48,328.81s-39.1-6.47-55.83-6.37c-17.07.11-18.65,12.93-14.38,20.78,8.18,15,36.62,46.91,36.62,46.91s9.55-4.38,12.48-12.64l-6.48-14.88,20.7,6.59,2.39-2.91Z" style="fill:#455a64"></path><path d="M324.48,350a145.45,145.45,0,0,1,8.62,14.32l-5.21-1.66c-5.88-14-7.09-18.08-16.48-24.64C311.41,338,318.15,340.5,324.48,350Z" style="fill:#37474f"></path><path d="M355.48,328.81l60.27,11.05s4.77,22.22.16,36.1c-4.51,13.58-17.9,17.47-24.34,18-9.22.71-19.91-2.14-19.91-2.14a51.18,51.18,0,0,1-10.7,6.29c-5.38,2.15-28.95,12-28.95,12s-6.63-5.61-6-17.28L351,366.29Z" style="fill:#455a64"></path><path d="M332,410.1s-1.28-.59-3.12-4.06c6.1-1.44,26.17-9.29,32.65-12,11.54-4.89,15.11-10.06,15.11-10.06s.07,3.44-5,7.85a51.18,51.18,0,0,1-10.7,6.29C355.58,400.23,332,410.1,332,410.1Z" style="fill:#37474f"></path><path d="M384,389.58c5.77.93,21.29-1.93,26.34-12.87,4.94-10.71,3.27-23.5,2.17-34.5l1.86.44,3.27.88c.86,9.78,1.82,21.33-1,32.29-3.6,13.84-18.59,17.61-25,18.11-9.22.71-19.91-2.14-19.91-2.14l3.06-4.74A38.89,38.89,0,0,0,384,389.58Z" style="fill:#37474f"></path><path d="M348.3,369.14s1.08-1.29,3.37-4,6-7.75,15.42-7.38,27.65,2,27.65,2-19-3.23-25.52-4.32-10.92-.34-14.66,3-9.53,9.61-9.53,9.61Z" style="fill:#37474f"></path><path d="M361,357a18.83,18.83,0,0,1-4.43-13.13s-2.27,8.63,1.36,14.91Z" style="fill:#37474f"></path><path d="M292.15,406.88c-4.6,1.82-7.44,3.64-9.57,6.42s-2.77,5.58-.75,8.95,5.73,7.31,10.13,7.05,7.11-1.35,11.2-3.57Z" style="fill:#263238"></path><path d="M328.89,410.77c.07,1.38-5.74,4.13-11.77,7-6.47,3.08-8.06,5.09-13.34,7.69-6,3-8.33,3.14-13,1.84s-10.46-8-6.43-14.17c3.28-5,7.52-6.4,14-8.1a121.32,121.32,0,0,0,15.08-4.87c4.66-1.81,8.5-5.06,9.46-3.93-.67.32-5.54,3.33-4.62,4.15.23.42.92.29,2.12-.21a2,2,0,0,1,1.67-.08,3.23,3.23,0,0,1,1.21,1.45,38.25,38.25,0,0,1,1.46,3.69c.36.85.21.36.54,1.22s1.1,2.42,1,3.3c-.06.53-.44.7-.85,1s-1,.57-1.37.87c-.16.12-.43.52-.35.72s1,.18,1.34,0,.94-.29,1.36-.45S327.83,411.27,328.89,410.77Z" style="fill:#FCA311"></path><path d="M328.89,410.77c.07,1.38-5.74,4.13-11.77,7-6.47,3.08-8.06,5.09-13.34,7.69-6,3-8.33,3.14-13,1.84s-10.46-8-6.43-14.17c3.28-5,7.52-6.4,14-8.1a121.32,121.32,0,0,0,15.08-4.87c4.66-1.81,8.5-5.06,9.46-3.93-.67.32-5.54,3.33-4.62,4.15.23.42.92.29,2.12-.21a2,2,0,0,1,1.67-.08,3.23,3.23,0,0,1,1.21,1.45,38.25,38.25,0,0,1,1.46,3.69c.36.85.21.36.54,1.22s1.1,2.42,1,3.3c-.06.53-.44.7-.85,1s-1,.57-1.37.87c-.16.12-.43.52-.35.72s1,.18,1.34,0,.94-.29,1.36-.45S327.83,411.27,328.89,410.77Z" style="opacity:0.4"></path><path d="M305.85,424.47c-.87.44-6.35,3-8.06,1.46-1.87-1.66,2.53-4.29,2.53-4.29s.67-4.13-4.32-10.21c-.86.67-4.46.64-4.41-1.48s6.08-4.72,6.17-4.76c-6.18,1.65-10.24,3.08-13.42,7.95-4,6.17,1.75,12.87,6.43,14.17s7,1.13,13-1.84C304.38,425.17,305.32,424.78,305.85,424.47Z" style="opacity:0.30000000000000004"></path><path d="M299.73,421.23c-2.29.76-.72,2.83,2.63,2.16,5-1,9.18-3.85,14.76-5.61,6-2.88,12.17-5.56,11.78-7.09-1.08.41-3.39,1.37-3.39,1.37-.45.19-1.62.63-1.62.63-4.57,2-9.63,5.15-14.58,6.49C305,420.36,302,420.46,299.73,421.23Z" style="fill:#37474f"></path><path d="M296.33,412.21c2.09-1.21,2.46-2.24,6.56-4.12s11-5.91,15.31-8.41a54.78,54.78,0,0,0,4.65-3.44c-.71-.81-3.32-.06-5.94,1.59s-4.2,2.69-6.79,4c-5,3-10.77,5.06-13.64,6.91S294.24,413.42,296.33,412.21Z" style="fill:#37474f"></path><path d="M296,411.66a.57.57,0,0,0,.12.18A18.25,18.25,0,0,1,300.06,422a.6.6,0,0,0,.57.57.51.51,0,0,0,.46-.59,19.34,19.34,0,0,0-4.25-10.89.49.49,0,0,0-.74,0A.62.62,0,0,0,296,411.66Z" style="fill:#f0f0f0"></path><path d="M300.08,408.7a1,1,0,0,0,.1.17A24.91,24.91,0,0,1,305,420.81a.6.6,0,0,0,.59.55.51.51,0,0,0,.44-.6,25.74,25.74,0,0,0-5.16-12.65.48.48,0,0,0-.73-.05A.57.57,0,0,0,300.08,408.7Z" style="fill:#f0f0f0"></path><path d="M309,420.39a.58.58,0,0,0,.48.36.5.5,0,0,0,.51-.54c-.24-7.33-5-14.2-5.18-14.44a.49.49,0,0,0-.74,0,.63.63,0,0,0,.05.81c.05.05,4.61,6.77,4.82,13.58A1,1,0,0,0,309,420.39Z" style="fill:#f0f0f0"></path><path d="M312.76,418a.58.58,0,0,0,.47.36.49.49,0,0,0,.52-.53,21.56,21.56,0,0,0-5.47-13.7.49.49,0,0,0-.73,0,.64.64,0,0,0,.09.81,20.66,20.66,0,0,1,5.06,12.78A1,1,0,0,0,312.76,418Z" style="fill:#f0f0f0"></path><path d="M317.62,415.94a.59.59,0,0,0,.47.36.48.48,0,0,0,.51-.52c0-7.62-5.38-13.52-5.62-13.76a.49.49,0,0,0-.74,0,.62.62,0,0,0,.08.81c.05.06,5.22,5.76,5.24,12.84A.58.58,0,0,0,317.62,415.94Z" style="fill:#ebebeb"></path></g><g id="freepik--Top--inject-96"><g id="freepik--Arm--inject-96"><path d="M289.74,277.24l36.37,4.3s10.06-4.51,16.32-7.22c21.69-9.41,25.05-11.14,32.06-11.05l-11.83,24.86s-14.08,6-27.05,10.85c-6.76,2.54-6.68,3-14.14,1.07-5.55-1.42-8.42-2.17-16.48-4.36-9.88-2.68-16.55-4.26-16.55-4.26Z" style="fill:#c8856a"></path><path d="M293.9,278.05c-6.64-1.34-9.22-1.29-11-5.42s-2.54-4.91-3.29-5.69S274,263.4,272,262.3c-1.52-.81-2.91-.72-5.67-1.32-1.37-.3-2.95-.74-4.31-1.14a12.44,12.44,0,0,0-3.42-.95c-1.53,0-1.18,2.2-.13,3.23a12.89,12.89,0,0,0,4.28,2.37c1.1.45,3.73,1.47,3.73,1.47-.4.9-1.42,2.54-1.4,3.65s.19,1.55,2.17,3.46a2.44,2.44,0,0,0-.66,1.87,5.49,5.49,0,0,0,1.53,2.31,2.54,2.54,0,0,0-.55,1.51c0,.88,1.51,2.56,3,3.86,1.57,1.7,2.89,4.3,4.33,5.64s3.52,1.74,6.94,2,12.23,2.46,12.23,2.46S300.34,279.34,293.9,278.05Z" style="fill:#c8856a"></path><path d="M277.25,269.12a8.44,8.44,0,0,1-4.72-2.71c-1.17-1.42-2.37-3.07-2.91-2.85-.91.37-1.85,2.86-.16,5.34s4.18,4.83,4.6,5.54a13.22,13.22,0,0,1,.62,4.35,7.79,7.79,0,0,0,5.82,6.74,7.18,7.18,0,0,1-4.9-2.14c-2.5-2.31-2.07-5.95-2.33-7.48s-.31-1.84-2.21-3.82-3.95-4.11-3.14-7.22,2.13-2.38,2.79-1.76S274.11,268.41,277.25,269.12Z" style="fill:#af6152"></path><path d="M266.45,266l1.81.43-.34.67a2.73,2.73,0,0,0-2.55,1.16C265.61,267.63,266.13,266.63,266.45,266Z" style="fill:#af6152"></path><path d="M267.22,273.07c.64.65,2.72,2.54,3.14,2.93s1.26-.17,1.39-1.32a3.78,3.78,0,0,0-.55-2.7,4,4,0,0,1,1,2.71c-.11,1.48-.9,2-1.5,2.09S268.59,274.45,267.22,273.07Z" style="fill:#af6152"></path><path d="M268.09,277.25c.47.5,1.22,1.06,2.54,2.4.77.78,1.23,1.3,1.77,1a2.69,2.69,0,0,0,.36-3.06,9.17,9.17,0,0,0-1.31-1.72l.37-.4a7.11,7.11,0,0,1,1.83,2.85c.37,1.47-.47,3.12-1.23,3s-1.16-.54-2.21-1.69S268.09,277.25,268.09,277.25Z" style="fill:#af6152"></path><path d="M272,281c.27.35.46,1.33-.18,1.65a1.55,1.55,0,0,1-1.27,0,1.32,1.32,0,0,0,1.5.3c.78-.39.79-1.37.61-2.11Z" style="fill:#af6152"></path></g><path d="M416.07,303.71c-1.35-19.72-1.3-28.24-3.25-34.7-3-.88-9.45-2.68-9.45-2.68s-15.54-.66-21.09-3l-7.79-.3c-4.22,4.06-15.34,12.72-18.95,20.93-2.41,5.49-2.35,13.56,4.24,19a100,100,0,0,0,1,13.26s-2,6.29-4.52,12.47c.94,9.7,15.09,17,32.36,21.65,18.54,5,29.88-2.48,29.88-2.48S417.41,323.25,416.07,303.71Z" style="fill:#FCA311"></path><path d="M416.07,303.71c-1.35-19.72-1.3-28.24-3.25-34.7-3-.88-9.45-2.68-9.45-2.68s-15.54-.66-21.09-3l-7.79-.3c-4.22,4.06-15.34,12.72-18.95,20.93-2.41,5.49-2.35,13.56,4.24,19a100,100,0,0,0,1,13.26s-2,6.29-4.52,12.47c.94,9.7,15.09,17,32.36,21.65,18.54,5,29.88-2.48,29.88-2.48S417.41,323.25,416.07,303.71Z" style="fill:#fff;opacity:0.6000000000000001"></path><path d="M375.37,306.47s4.67,6.28,14.5,5.59c10.14-.71,12.46-9,12.46-9s0,11-12.15,11.83A14.57,14.57,0,0,1,375.37,306.47Z" style="fill:#FCA311;opacity:0.30000000000000004"></path><path d="M387,361.14v1.14a3.22,3.22,0,0,1-1.61,2.8L354.61,382.8a3.23,3.23,0,0,1-3.22,0l-56.48-32.61a3.23,3.23,0,0,1-1.62-2.8v-.78L353,381.08Z" style="fill:#ebebeb"></path><path d="M293.29,346.61l33.49-19.34a1.93,1.93,0,0,1,1.92,0l58.1,33.55a.42.42,0,0,1,0,.74L353,381.08Z" style="fill:#fafafa"></path><polygon points="353.31 378.24 371.37 367.82 318.55 337.33 300.4 347.69 353.31 378.24" style="fill:#e0e0e0"></polygon><polygon points="362.18 349.26 361.85 349.45 353 354.56 337.25 345.47 336.93 345.28 346.11 339.98 362.18 349.26" style="fill:#e0e0e0"></polygon><polygon points="361.85 349.45 353 354.56 337.25 345.47 346.11 340.36 361.85 349.45" style="fill:#e6e6e6"></polygon><path d="M353,381.08v2.15a3.16,3.16,0,0,1-1.61-.43l-56.48-32.61a3.23,3.23,0,0,1-1.62-2.8v-.78Z" style="fill:#ebebeb"></path><g style="opacity:0.5;mix-blend-mode:multiply"><path d="M353,381.08v2.15a3.16,3.16,0,0,1-1.61-.43l-56.48-32.61a3.23,3.23,0,0,1-1.62-2.8v-.78Z" style="fill:#e0e0e0"></path></g><path d="M352.09,381.56a3.83,3.83,0,0,1-3.3-.26l-56.23-32.46a3.82,3.82,0,0,1-1.86-2.68l-6.16-36.71a4.46,4.46,0,0,1-.05-.63,3.85,3.85,0,0,1,1.13-2.72l58.44,33.75a2.82,2.82,0,0,1,1.37,2Z" style="fill:#FCA311"></path><g style="opacity:0.7000000000000001"><path d="M352.09,381.56a3.83,3.83,0,0,1-3.3-.26l-56.23-32.46a3.82,3.82,0,0,1-1.86-2.68l-6.16-36.71a4.46,4.46,0,0,1-.05-.63,3.85,3.85,0,0,1,1.13-2.72l58.44,33.75a2.82,2.82,0,0,1,1.37,2Z" style="fill:#fff"></path></g><path d="M353,381.08l-.39.22a5,5,0,0,1-.52.26l-6.66-39.73a2.82,2.82,0,0,0-1.37-2L285.62,306.1a4.57,4.57,0,0,1,.78-.59L345,339.32a2.81,2.81,0,0,1,1.37,2Z" style="fill:#fafafa"></path><path d="M320.42,347.67c-.42-2.46-2.95-5.73-5.67-7.3s-4.59-.84-4.18,1.61,2.95,5.73,5.67,7.3S320.83,350.12,320.42,347.67Z" style="fill:#FCA311"></path><path d="M433.32,325c-.6-4-6.44-40.7-8.18-45.66-1.88-5.36-3.93-7.87-12.25-10.31-7.76,5.31-6.23,22.8-5.23,26.82l6.06,28.87s-8.64,4.11-15.61,7.33c-6,2.74-10.14,5.87-17.12,6.56s-8.3.31-14.28,2.91a43.75,43.75,0,0,0-6,3.39c-2.11,2.22-4.71,3.92-7,6-1.71,1.14-.16,2,1.18,2.07,3.71.13,6.71-2.74,10.05-3.91a12.43,12.43,0,0,0-.65,3.68c0,1-.27,2.21.59,3a7.43,7.43,0,0,0,2.08.91,1.46,1.46,0,0,0,.4,1,2.47,2.47,0,0,0,1.77.5,9.22,9.22,0,0,0,1-.13,1.83,1.83,0,0,0,1.1,1.46,8,8,0,0,0,4.27.23c.21-.08,1.81-.9,2.28-1.14a4.13,4.13,0,0,0,1.6-1c.35-.52-.6-1.74-1.42-1.89a8.71,8.71,0,0,0-2.72.12,9.43,9.43,0,0,0,.84-2.32c.77-1.17,6.09.14,10.86-.59,3.59-.55,5.75-3.21,7.37-3.91,10.76-4.67,25-7.5,32-9.58C435.06,336.78,434.44,332.36,433.32,325Z" style="fill:#c8856a"></path><path d="M365,349a10.49,10.49,0,0,1,2-4.77c-1.86.63-3.21,5.26-3.21,5.26Z" style="fill:#af6152"></path><path d="M367,356.58a11.28,11.28,0,0,1,0-3,24.21,24.21,0,0,1,.44-2.92,12.76,12.76,0,0,1,.85-2.85,5.35,5.35,0,0,1,1.82-2.32,4.06,4.06,0,0,0-.83,1.18,8,8,0,0,0-.58,1.31,19.79,19.79,0,0,0-.71,2.8c-.2.95-.38,1.91-.56,2.86A23.51,23.51,0,0,0,367,356.58Z" style="fill:#af6152"></path><path d="M370.18,357.92a13.49,13.49,0,0,1,.06-2.91,21.64,21.64,0,0,1,.49-2.86,19.73,19.73,0,0,1,.84-2.78,5.61,5.61,0,0,1,1.53-2.45,3.72,3.72,0,0,0-.67,1.24q-.26.66-.45,1.35c-.25.92-.49,1.84-.7,2.77C370.85,354.14,370.44,356,370.18,357.92Z" style="fill:#af6152"></path><path d="M378,355.63a5.05,5.05,0,0,0-1.2.15c-.39.08-.66.27-1.15.42l.2-.31a1.14,1.14,0,0,1-.09.57,1.33,1.33,0,0,1-.28.44,1.75,1.75,0,0,1-.83.52,4.09,4.09,0,0,0,.51-.74,1.77,1.77,0,0,0,.12-.37,1.47,1.47,0,0,0,0-.33l0-.23.23-.08a3.49,3.49,0,0,1,1.14-.22A2.41,2.41,0,0,1,378,355.63Z" style="fill:#af6152"></path><path d="M404.58,212.45c7.37-2.29,14.67,6.57,13.79,13.71,3.19,2.44,5,11.09.84,15.38,2.42,4.45-1.11,13.16-7.19,14,.88,3.86-4.17,9.55-10.31,9.81-8.23.35-6.19-2.57-4.55-11.62C398,249.3,404.58,212.45,404.58,212.45Z" style="fill:#263238"></path><path d="M378.48,277c-7.15-1.15-3.78-5.64,1.32-10.84L391.08,263l9.2-.95c-.06,3.14,1.83,3.8,3.64,4.49C399.05,271.59,387,278.34,378.48,277Z" style="fill:#c8856a"></path><path d="M381.83,265.55c-3,6.91-8.65,6.69-10.84,6.27-.89,4.33-4.53,6.46-8.3,8,.85,4.29-2.27,7.1-5.36,9.4a6.3,6.3,0,0,1,.76,5.42c-.58,2.39-4.28,6.57-3.58,9.4-4.21-4.48-4.19-10.56-.58-15.35-.7-4.2-1.2-8.38,2.7-11-1-5.4,1.6-9.37,7.05-10.28.12-4.15,2.83-6.61,7.4-7.33-1-7.22,6.39-10.09,11-10.23-.06,3.14.42,9.87.28,13Z" style="fill:#263238"></path><path d="M374.39,207.27c9.05-4.31,23.75-2.45,25.95,4,3.93-.62,7,1.74,9.57,6.7a25.42,25.42,0,0,1,.59,20.93,41.61,41.61,0,0,1-10.1,15.31l-.26-10.65a10.74,10.74,0,0,1-2.65-.52c-4.72-1.63-20.25-8.23-23.88-14.56,0,0-7.13,3.82-7.14,3.81C359,225.25,362,213.16,374.39,207.27Z" style="fill:#37474f"></path><path d="M367.67,223.51c-.48,1.77-2,5.66-1.75,17.78.24,11.55,3.71,15.25,6.35,16.77,2,1.16,6.3,1.59,9.58,1.28l0,9.85s-.68,1.72,6.41,2.3c10.76.89,12-4.76,12-4.76l.28-17.5s2.89,1.85,6.22-.94c2-1.66,3.64-6.66,1.15-9.31s-5.17-1.91-7.37,1.82a2,2,0,0,1-3.56-.71c-1-4.39.37-8.94-5.65-11.52a25.17,25.17,0,0,1-12-9.57C375.29,222.13,370,223.87,367.67,223.51Z" style="fill:#c8856a"></path><path d="M386.4,236.48a2.15,2.15,0,0,1-2,2,1.84,1.84,0,1,1,0-3.68A1.86,1.86,0,0,1,386.4,236.48Z" style="fill:#263238"></path><path d="M372.77,235.92a1.84,1.84,0,0,1-1.84,1.84,2.24,2.24,0,0,1-2.06-2.06c0-1,1.05-1.61,2.06-1.61A1.83,1.83,0,0,1,372.77,235.92Z" style="fill:#263238"></path><path d="M383.37,247.56,377.76,249a2.85,2.85,0,0,0,3.47,2.18A3,3,0,0,0,383.37,247.56Z" style="fill:#af6152"></path><path d="M383,248.7a2.86,2.86,0,0,0-3.18,2.46,2.77,2.77,0,0,0,1.43,0,3,3,0,0,0,2.16-2.38A2.73,2.73,0,0,0,383,248.7Z" style="fill:#ffa8a7"></path><path d="M368.18,232.59l3.8-1.31a1.94,1.94,0,0,0-2.49-1.29A2.12,2.12,0,0,0,368.18,232.59Z" style="fill:#263238"></path><path d="M384.37,231.31l3.37,2.19a1.92,1.92,0,0,0-.51-2.75A2.11,2.11,0,0,0,384.37,231.31Z" style="fill:#263238"></path><path d="M378.82,233.66l-1.25,11.93-6.24-2.09C373.29,240.16,375.77,236,378.82,233.66Z" style="fill:#af6152"></path><path d="M381.85,259.34c4.57-.85,13.11-2.92,14.6-9.48,0,0,.4,3.51-3.22,7.05-3.78,3.71-11.38,5.09-11.38,5.09Z" style="fill:#af6152"></path></g></g></g><g id="freepik--speech-bubble--inject-96"><g id="freepik--speech-bubble--inject-96"><g id="freepik--speech-bubble--inject-96"><path d="M388.74,189.47l3.26-6.13-2.62-7.58v-4.64l8,4.64v4.64l-3.46,6a.52.52,0,0,1-.23.21h0Z" style="fill:#FCA311"></path><path d="M388.74,189.47l3.26-6.13-2.62-7.58v-4.64l8,4.64v4.64l-3.46,6a.52.52,0,0,1-.23.21h0Z" style="opacity:0.2"></path><path d="M370.76,125.63a5.34,5.34,0,0,1,2.41-4.18l2-1.13a5.36,5.36,0,0,1,4.81,0L410,137.71a5.34,5.34,0,0,1,2.41,4.17v42.39a5.34,5.34,0,0,1-2.41,4.17l-2,1.13a5.32,5.32,0,0,1-4.82,0l-10.87-6.25-3.44,6a.52.52,0,0,1-.93-.09l-3.64-10.51-11.18-6.51a5.32,5.32,0,0,1-2.41-4.17Z" style="fill:#FCA311"></path><path d="M412.42,184.27a5.34,5.34,0,0,1-2.41,4.17l-2,1.13a5.41,5.41,0,0,1-4.41.19c1.14.43,2-.21,2-1.58V145.79a5,5,0,0,0-.7-2.37l6.77-3.91a4.85,4.85,0,0,1,.71,2.37Z" style="opacity:0.2"></path><path d="M370.84,124.94c.28-1,1.21-1.35,2.32-.71l30.07,17.4a4.74,4.74,0,0,1,1.7,1.79l6.77-3.91a4.79,4.79,0,0,0-1.69-1.79L380,120.32a5.38,5.38,0,0,0-4.82,0l-2,1.14A5.33,5.33,0,0,0,370.84,124.94Z" style="fill:#fff;opacity:0.30000000000000004"></path></g><polygon points="396.83 160.78 390.67 164.81 390.67 142.88 386.66 140.56 386.66 163.02 381.39 154.46 378.56 156.59 388.06 171.45 398.77 164.43 396.83 160.78" style="fill:#fafafa"></polygon></g></g></svg>
