<svg width="1024" height="1024" viewBox="0 0 1024 1024" fill="none" xmlns="http://www.w3.org/2000/svg">
<circle cx="512" cy="512" r="512" fill="url(#paint0_linear_307_313)"/>
<g clip-path="url(#clip0_307_313)">
<path fill-rule="evenodd" clip-rule="evenodd" d="M889.785 251.097C879.237 251.097 869.715 255.207 862.583 261.88L551.583 82.3264L551.11 83.1461C551.918 79.9249 552.357 76.5421 552.357 73.0323C552.357 50.5881 534.56 32 512.112 32C489.665 32 471.869 49.8145 471.869 72.2587C471.869 76.0687 472.376 79.7749 473.346 83.2847L472.642 82.3264L163.939 262.666C156.622 254.618 146.166 249.55 134.44 249.55C112.004 249.55 94.1959 268.138 94.1959 290.582C94.1959 309.274 106.533 325.276 123.614 330.125V690.792C106.533 695.63 94.1959 711.643 94.1959 730.324C94.1959 752.779 112.004 771.356 134.44 771.356C146.246 771.356 156.772 766.218 164.101 758.079L163.858 758.968L472.954 941.477C472.25 944.537 471.869 947.712 471.869 950.968C471.869 973.423 489.665 992 512.112 992C534.56 992 552.357 973.423 552.357 950.968C552.357 948.208 552.091 945.507 551.572 942.886L862.467 760.469C869.611 767.211 879.179 771.356 889.785 771.356C912.221 771.356 930.018 752.779 930.018 730.324C930.018 711.92 918.061 696.126 901.384 691.023V331.442C918.061 326.338 930.018 310.533 930.018 292.129C930.018 269.685 912.221 251.097 889.785 251.097ZM850.314 302.197L693.943 392.759L523.723 293.48V111.64C530.036 109.781 535.679 106.433 540.25 101.988L539.973 102.462L850.314 282.847L850.753 282.096C849.957 285.317 849.541 288.677 849.541 292.129C849.541 296.101 850.095 299.934 851.134 303.582L850.314 302.197ZM174.684 290.582C174.684 287.938 174.441 285.341 173.968 282.812L485.822 103.339C490.034 107.045 495.009 109.885 500.502 111.571V293.469L331.482 391.731L173.841 298.964C174.395 296.263 174.684 293.457 174.684 290.582ZM163.154 319.342L163.073 320L325.596 415.226L336.964 395.518L512.112 498.838L688.588 395.922L700.175 416L705.588 412.906L523.723 518.973V727.229H500.502V518.973L318.636 411.359V624.267L500.502 730.323V911.667C494.374 913.537 488.88 916.862 484.391 921.227L173.264 741.153C174.199 737.701 174.684 734.064 174.684 730.323C174.684 712.209 163.096 696.611 146.823 691.265V329.652C153.102 327.585 158.676 324.006 163.154 319.342ZM850.314 740.391L540.342 921.723C535.749 917.105 530.082 913.607 523.723 911.667V731.097L705.589 624.267L705.588 412.906L862.698 323.106L861.844 321.686C866.38 326.142 871.954 329.536 878.175 331.441V691.023C861.498 696.126 849.541 711.92 849.541 730.323C849.541 734.099 850.038 737.759 850.972 741.234L850.314 740.391Z" fill="#FCA311"/>
<path fill-rule="evenodd" clip-rule="evenodd" d="M337.287 98.0394C283.563 120.772 235.979 152.868 194.535 194.316C190.495 198.357 186.548 202.456 182.682 206.624L217.801 197.849L226.088 193.012L234.375 188.163L259.234 173.639L267.521 168.801L342.111 125.229L358.684 115.554L400.117 91.3431L406.592 87.5562L420.303 72.0508C392.015 77.9274 364.34 86.5979 337.287 98.0394Z" fill="#E5E5E5"/>
<path fill-rule="evenodd" clip-rule="evenodd" d="M829.679 194.317C788.246 152.869 740.662 120.773 686.938 98.0397C662.286 87.6142 637.126 79.4978 611.447 73.6904L635.938 97.7741L644.247 102.577L652.557 107.38L660.867 112.171L669.188 116.974L677.497 121.765L725.866 149.694L760.617 169.76L831.133 210.457L847.799 213.505C841.982 206.971 835.934 200.574 829.679 194.317Z" fill="#E5E5E5"/>
<path fill-rule="evenodd" clip-rule="evenodd" d="M937.3 657.114C953.25 610.532 961.225 562.161 961.225 512C961.225 455.116 950.965 400.529 930.456 348.229L930.179 348.448V521.329L931.483 612.699L937.3 657.114Z" fill="#E5E5E5"/>
<path fill-rule="evenodd" clip-rule="evenodd" d="M85.436 371.296C70.4787 416.519 63 463.428 63 512C63 560.19 70.3517 606.73 85.0783 651.618L94.819 617.236V434.068L85.436 371.296Z" fill="#E5E5E5"/>
<path fill-rule="evenodd" clip-rule="evenodd" d="M194.534 829.695C235.979 871.143 283.563 903.239 337.287 925.972C364.386 937.436 392.096 946.107 420.441 951.983L405.414 935.046L397.151 930.163L388.888 925.279L364.086 910.651L339.295 896L264.924 852.093L248.386 842.337L215.332 822.814L179.196 813.589C184.159 819.061 189.272 824.43 194.534 829.695Z" fill="#E5E5E5"/>
<path fill-rule="evenodd" clip-rule="evenodd" d="M829.679 829.695C788.246 871.143 740.662 903.239 686.938 925.972C661.016 936.94 634.53 945.345 607.466 951.21L624.085 933.73L725.889 873.994L797.918 831.738L842.536 816.325C838.358 820.851 834.076 825.308 829.679 829.695Z" fill="#E5E5E5"/>
</g>
<defs>
<linearGradient id="paint0_linear_307_313" x1="910" y1="43" x2="-242" y2="1274" gradientUnits="userSpaceOnUse">
<stop stop-color="#13213C"/>
<stop offset="1" stop-color="#13213C"/>
</linearGradient>
<clipPath id="clip0_307_313">
<rect width="898.225" height="960" fill="white" transform="translate(63 32)"/>
</clipPath>
</defs>
</svg>
