<svg width="640" height="640" viewBox="0 0 640 640" fill="none" xmlns="http://www.w3.org/2000/svg">
<g clip-path="url(#clip0_17_218)">
<path d="M128 112C128 85.5 149.5 64 176 64V112V505.4L306.1 412.5C314.4 406.5 325.7 406.5 334 412.5L464 505.4V112H176V64H464C490.5 64 512 85.5 512 112V552C512 561 507 569.2 499 573.3C491 577.4 481.4 576.7 474.1 571.5L320 461.5L165.9 571.5C158.6 576.7 149 577.4 141 573.3C133 569.2 128 561 128 552V112Z" fill="black"/>
<path d="M229.286 130.125C209.272 130.125 193 146.381 193 166.375V347.625C193 367.619 209.272 383.875 229.286 383.875H410.714C430.728 383.875 447 367.619 447 347.625V210.158C447 200.529 443.201 191.297 436.398 184.5L392.571 140.717C385.768 133.92 376.526 130.125 366.888 130.125H229.286ZM229.286 184.5C229.286 174.475 237.393 166.375 247.429 166.375H356.286C366.321 166.375 374.429 174.475 374.429 184.5V220.75C374.429 230.775 366.321 238.875 356.286 238.875H247.429C237.393 238.875 229.286 230.775 229.286 220.75V184.5ZM320 275.125C329.624 275.125 338.853 278.944 345.658 285.742C352.463 292.541 356.286 301.761 356.286 311.375C356.286 320.989 352.463 330.209 345.658 337.008C338.853 343.806 329.624 347.625 320 347.625C310.376 347.625 301.147 343.806 294.342 337.008C287.537 330.209 283.714 320.989 283.714 311.375C283.714 301.761 287.537 292.541 294.342 285.742C301.147 278.944 310.376 275.125 320 275.125Z" fill="black"/>
</g>
<defs>
<clipPath id="clip0_17_218">
<rect width="384" height="512" fill="white" transform="translate(128 64)"/>
</clipPath>
</defs>
</svg>
