<svg width="640" height="640" viewBox="0 0 640 640" fill="none" xmlns="http://www.w3.org/2000/svg">
<path d="M320 64C278.2 64 242.6 90.7 229.5 128H192C156.7 128 128 156.7 128 192V512C128 547.3 156.7 576 192 576H448C483.3 576 512 547.3 512 512V192C512 156.7 483.3 128 448 128H410.5C397.4 90.7 361.8 64 320 64ZM320 128C328.487 128 336.626 131.371 342.627 137.373C348.629 143.374 352 151.513 352 160C352 168.487 348.629 176.626 342.627 182.627C336.626 188.629 328.487 192 320 192C311.513 192 303.374 188.629 297.373 182.627C291.371 176.626 288 168.487 288 160C288 151.513 291.371 143.374 297.373 137.373C303.374 131.371 311.513 128 320 128ZM200 336C200 329.635 202.529 323.53 207.029 319.029C211.53 314.529 217.635 312 224 312C230.365 312 236.47 314.529 240.971 319.029C245.471 323.53 248 329.635 248 336C248 342.365 245.471 348.47 240.971 352.971C236.47 357.471 230.365 360 224 360C217.635 360 211.53 357.471 207.029 352.971C202.529 348.47 200 342.365 200 336ZM304 320H432C440.8 320 448 327.2 448 336C448 344.8 440.8 352 432 352H304C295.2 352 288 344.8 288 336C288 327.2 295.2 320 304 320ZM200 432C200 425.635 202.529 419.53 207.029 415.029C211.53 410.529 217.635 408 224 408C230.365 408 236.47 410.529 240.971 415.029C245.471 419.53 248 425.635 248 432C248 438.365 245.471 444.47 240.971 448.971C236.47 453.471 230.365 456 224 456C217.635 456 211.53 453.471 207.029 448.971C202.529 444.47 200 438.365 200 432ZM288 432C288 423.2 295.2 416 304 416H432C440.8 416 448 423.2 448 432C448 440.8 440.8 448 432 448H304C295.2 448 288 440.8 288 432Z" fill="black"/>
</svg>
