<svg width="640" height="640" viewBox="0 0 640 640" fill="none" xmlns="http://www.w3.org/2000/svg">
<g clip-path="url(#clip0_19_77)">
<path d="M96 64C60.7 64 32 92.7 32 128V416C32 451.3 60.7 480 96 480H272L261.3 512H192C174.3 512 160 526.3 160 544C160 561.7 174.3 576 192 576H448C465.7 576 480 561.7 480 544C480 526.3 465.7 512 448 512H378.7L368 480H544C579.3 480 608 451.3 608 416V128C608 92.7 579.3 64 544 64H96ZM544 128V416H96V128H544Z" fill="black"/>
<path d="M112.125 193.125C112.125 167.339 133.089 146.375 158.875 146.375H369.25C395.036 146.375 416 167.339 416 193.125V426.875C416 452.661 395.036 473.625 369.25 473.625H100.438C68.1508 473.625 42 447.474 42 415.188V216.5C42 203.571 52.4457 193.125 65.375 193.125C78.3043 193.125 88.75 203.571 88.75 216.5V415.188C88.75 421.616 94.0094 426.875 100.438 426.875C106.866 426.875 112.125 421.616 112.125 415.188V193.125ZM158.875 210.656V269.094C158.875 278.809 166.691 286.625 176.406 286.625H258.219C267.934 286.625 275.75 278.809 275.75 269.094V210.656C275.75 200.941 267.934 193.125 258.219 193.125H176.406C166.691 193.125 158.875 200.941 158.875 210.656ZM310.812 204.812C310.812 211.241 316.072 216.5 322.5 216.5H357.562C363.991 216.5 369.25 211.241 369.25 204.812C369.25 198.384 363.991 193.125 357.562 193.125H322.5C316.072 193.125 310.812 198.384 310.812 204.812ZM310.812 274.938C310.812 281.366 316.072 286.625 322.5 286.625H357.562C363.991 286.625 369.25 281.366 369.25 274.938C369.25 268.509 363.991 263.25 357.562 263.25H322.5C316.072 263.25 310.812 268.509 310.812 274.938ZM158.875 345.062C158.875 351.491 164.134 356.75 170.562 356.75H357.562C363.991 356.75 369.25 351.491 369.25 345.062C369.25 338.634 363.991 333.375 357.562 333.375H170.562C164.134 333.375 158.875 338.634 158.875 345.062ZM158.875 415.188C158.875 421.616 164.134 426.875 170.562 426.875H357.562C363.991 426.875 369.25 421.616 369.25 415.188C369.25 408.759 363.991 403.5 357.562 403.5H170.562C164.134 403.5 158.875 408.759 158.875 415.188Z" fill="black"/>
</g>
<defs>
<clipPath id="clip0_19_77">
<rect width="576" height="512" fill="white" transform="translate(32 64)"/>
</clipPath>
</defs>
</svg>
