<svg width="640" height="640" viewBox="0 0 640 640" fill="none" xmlns="http://www.w3.org/2000/svg">
<path d="M192 64C156.7 64 128 92.7 128 128V512C128 547.3 156.7 576 192 576H448C483.3 576 512 547.3 512 512V224H384C366.3 224 352 209.7 352 192V64H192ZM384 64V192H512L384 64ZM240 320H400C408.8 320 416 327.2 416 336C416 344.8 408.8 352 400 352H240C231.2 352 224 344.8 224 336C224 327.2 231.2 320 240 320ZM240 384H400C408.8 384 416 391.2 416 400C416 408.8 408.8 416 400 416H240C231.2 416 224 408.8 224 400C224 391.2 231.2 384 240 384ZM240 448H400C408.8 448 416 455.2 416 464C416 472.8 408.8 480 400 480H240C231.2 480 224 472.8 224 464C224 455.2 231.2 448 240 448Z" fill="black"/>
</svg>
