<svg width="640" height="640" viewBox="0 0 640 640" fill="none" xmlns="http://www.w3.org/2000/svg">
<path d="M168.1 531.1L156.9 540.1C153.7 542.6 149.8 544 145.8 544C136 544 128 536 128 526.2V256C128 150 214 64 320 64C426 64 512 150 512 256V526.2C512 536 504 544 494.2 544C490.2 544 486.3 542.6 483.1 540.1L471.9 531.1C458.5 520.4 439.1 522.1 427.8 535L397.3 570C394 573.8 389.1 576 384 576C378.9 576 374.1 573.8 370.7 570L344.1 539.5C331.4 524.9 308.7 524.9 295.9 539.5L269.3 570C266 573.8 261.1 576 256 576C250.9 576 246.1 573.8 242.7 570L212.2 535C200.9 522.1 181.5 520.4 168.1 531.1ZM288 256C288 247.513 284.629 239.374 278.627 233.373C272.626 227.371 264.487 224 256 224C247.513 224 239.374 227.371 233.373 233.373C227.371 239.374 224 247.513 224 256C224 264.487 227.371 272.626 233.373 278.627C239.374 284.629 247.513 288 256 288C264.487 288 272.626 284.629 278.627 278.627C284.629 272.626 288 264.487 288 256ZM384 288C392.487 288 400.626 284.629 406.627 278.627C412.629 272.626 416 264.487 416 256C416 247.513 412.629 239.374 406.627 233.373C400.626 227.371 392.487 224 384 224C375.513 224 367.374 227.371 361.373 233.373C355.371 239.374 352 247.513 352 256C352 264.487 355.371 272.626 361.373 278.627C367.374 284.629 375.513 288 384 288Z" fill="black"/>
</svg>
