<svg width="640" height="640" viewBox="0 0 640 640" fill="none" xmlns="http://www.w3.org/2000/svg">
<path d="M74.6501 437.81C116.35 473.91 182.65 520.31 240.75 511.51C246.85 510.61 252.85 509.01 258.75 507.01C249.55 494.71 241.45 482.61 234.55 471.61C212.65 436.61 205.75 396.41 208.65 358.01C188.05 362.11 169.45 371.01 153.95 383.41C147.45 388.61 137.65 384.71 139.15 376.41C145.55 342.91 172.15 315.51 207.35 310.11C209.95 309.71 212.65 309.41 215.25 309.31L234.65 178.01C236.65 164.21 242.65 145.31 259.65 132.11C278.25 117.81 310.55 101.61 363.25 96.8101C362.45 96.1101 361.65 95.4101 360.85 94.7101C340.65 79.1101 288.45 53.1101 175.75 70.2101C63.0501 87.3101 20.5501 127.61 5.75007 148.51C0.0500679 156.51 -0.749932 166.61 0.650068 176.41L24.8501 340.71C30.3501 378.01 46.3501 413.31 74.6501 437.91V437.81ZM162.35 218.21C166.75 215.11 173.15 216.21 174.15 221.51C174.25 222.01 174.35 222.61 174.45 223.11C177.65 244.91 162.85 265.11 141.35 268.41C119.85 271.71 99.8501 256.61 96.6501 234.91C96.5501 234.41 96.5501 233.81 96.4501 233.31C95.8501 227.91 101.65 224.91 106.75 226.61C115.75 229.61 125.55 230.51 135.45 229.01C145.35 227.51 154.55 223.71 162.25 218.21H162.35ZM261.65 454.61C291.05 501.51 341.15 565.51 399.25 574.31C457.35 583.11 523.75 536.81 565.35 500.61C593.65 476.11 609.65 440.81 615.15 403.41L639.35 239.11C640.75 229.31 639.95 219.21 634.25 211.21C619.45 190.31 576.95 150.01 464.25 132.91C351.55 115.81 299.45 141.81 279.25 157.41C271.45 163.41 267.75 172.81 266.35 182.61L242.15 346.91C236.65 384.21 241.75 422.71 261.75 454.61H261.65ZM404.55 299.91C396.85 294.41 387.75 290.61 377.75 289.11C367.75 287.61 357.95 288.51 349.05 291.51C343.95 293.21 338.15 290.21 338.75 284.81C338.85 284.31 338.85 283.71 338.95 283.21C342.15 261.41 362.15 246.41 383.65 249.71C405.15 253.01 419.95 273.21 416.75 295.01C416.65 295.51 416.55 296.11 416.45 296.61C415.45 301.91 409.05 303.01 404.65 299.91H404.55ZM540.75 315.41C539.75 320.71 533.35 321.81 528.95 318.71C521.25 313.21 512.15 309.41 502.15 307.91C492.15 306.41 482.35 307.31 473.45 310.31C468.35 312.01 462.55 309.01 463.15 303.61C463.25 303.11 463.25 302.51 463.35 302.01C466.55 280.21 486.55 265.21 508.05 268.51C529.55 271.81 544.35 292.01 541.15 313.81C541.05 314.31 540.95 314.91 540.85 315.41H540.75ZM530.05 414.81C510.45 459.51 463.25 487.31 413.25 479.71C363.25 472.11 326.15 431.51 320.25 383.01C319.25 374.71 329.15 370.91 335.45 376.31C359.35 397.11 389.05 411.61 422.45 416.61C455.85 421.61 488.55 416.71 517.35 403.81C524.95 400.41 533.35 407.01 529.95 414.71L530.05 414.81Z" fill="black"/>
</svg>
