<svg width="640" height="640" viewBox="0 0 640 640" fill="none" xmlns="http://www.w3.org/2000/svg">
<path d="M320 64C337.7 64 352 78.3 352 96V160H472C511.8 160 544 192.2 544 232V504C544 543.8 511.8 576 472 576H168C128.2 576 96 543.8 96 504V232C96 192.2 128.2 160 168 160H288V96C288 78.3 302.3 64 320 64ZM208 448C199.2 448 192 455.2 192 464C192 472.8 199.2 480 208 480H240C248.8 480 256 472.8 256 464C256 455.2 248.8 448 240 448H208ZM304 448C295.2 448 288 455.2 288 464C288 472.8 295.2 480 304 480H336C344.8 480 352 472.8 352 464C352 455.2 344.8 448 336 448H304ZM400 448C391.2 448 384 455.2 384 464C384 472.8 391.2 480 400 480H432C440.8 480 448 472.8 448 464C448 455.2 440.8 448 432 448H400ZM264 320C264 309.391 259.786 299.217 252.284 291.716C244.783 284.214 234.609 280 224 280C213.391 280 203.217 284.214 195.716 291.716C188.214 299.217 184 309.391 184 320C184 330.609 188.214 340.783 195.716 348.284C203.217 355.786 213.391 360 224 360C234.609 360 244.783 355.786 252.284 348.284C259.786 340.783 264 330.609 264 320ZM416 360C426.609 360 436.783 355.786 444.284 348.284C451.786 340.783 456 330.609 456 320C456 309.391 451.786 299.217 444.284 291.716C436.783 284.214 426.609 280 416 280C405.391 280 395.217 284.214 387.716 291.716C380.214 299.217 376 309.391 376 320C376 330.609 380.214 340.783 387.716 348.284C395.217 355.786 405.391 360 416 360ZM48 288H64V480H48C21.5 480 0 458.5 0 432V336C0 309.5 21.5 288 48 288ZM592 288C618.5 288 640 309.5 640 336V432C640 458.5 618.5 480 592 480H576V288H592Z" fill="black"/>
</svg>
