<svg width="640" height="640" viewBox="0 0 640 640" fill="none" xmlns="http://www.w3.org/2000/svg">
<path d="M220.65 448.856L189.75 417.956C181.25 409.456 178.25 397.156 182.05 385.756C185.05 376.856 189.05 365.256 193.85 351.956H88.0502C79.4502 351.956 71.4502 347.356 67.1502 339.856C62.8502 332.356 62.9502 323.156 67.3502 315.756L119.85 227.256C132.85 205.356 156.35 191.956 181.75 191.956H264.05C266.45 187.956 268.85 184.256 271.25 180.656C353.15 59.856 475.15 55.856 547.95 69.256C559.55 71.356 568.55 80.456 570.75 92.056C584.15 164.956 580.05 286.856 459.35 368.756C455.85 371.156 452.05 373.556 448.05 375.956V458.256C448.05 483.656 434.65 507.256 412.75 520.156L324.25 572.656C316.85 577.056 307.65 577.156 300.15 572.856C292.65 568.556 288.05 560.656 288.05 551.956V444.756C273.95 449.656 261.65 453.656 252.35 456.656C241.15 460.256 228.95 457.156 220.55 448.856H220.65ZM448.05 231.956C458.659 231.956 468.833 227.742 476.334 220.24C483.836 212.739 488.05 202.565 488.05 191.956C488.05 181.347 483.836 171.173 476.334 163.672C468.833 156.17 458.659 151.956 448.05 151.956C437.442 151.956 427.267 156.17 419.766 163.672C412.264 171.173 408.05 181.347 408.05 191.956C408.05 202.565 412.264 212.739 419.766 220.24C427.267 227.742 437.442 231.956 448.05 231.956Z" fill="black"/>
</svg>
