<svg width="640" height="640" viewBox="0 0 640 640" fill="none" xmlns="http://www.w3.org/2000/svg">
<path d="M320 80C313.3 80 309.2 77.2 304.5 73.9C297.9 69.4 290 64 272 64C241.5 64 220 107.7 206 153.4C158.7 162.1 128 176.2 128 192C128 206.3 153 219.1 192.6 227.9C192.2 231.9 192 235.9 192 240C192 257 195.3 273.2 201.3 288H141.4C134 288 128 294 128 301.4C128 303.1 128.3 304.8 129 306.4L167.8 403.3C124.2 435.8 96 487.8 96 546.3C96 562.7 109.3 576 125.7 576H514.3C530.7 576 544 562.7 544 546.3C544 487.8 515.8 435.9 472.3 403.3L511 306.4C511.6 304.8 512 303.1 512 301.4C512 294 506 288 498.6 288H438.7C444.7 273.2 448 257 448 240C448 235.9 447.8 231.9 447.4 227.9C487 219.1 512 206.3 512 192C512 176.2 481.3 162.1 434 153.4C420 107.7 398.5 64 368 64C350 64 342.1 69.4 335.5 73.9C330.7 77.2 326.7 80 320 80ZM376 288H363.6C347.1 288 332.5 277.4 327.3 261.8C325 254.8 315.1 254.8 312.8 261.8C307.6 277.4 292.9 288 276.5 288H264C241.9 288 224 270.1 224 248V233.6C252.2 237.7 285 240 320 240C355 240 387.8 237.7 416 233.6V248C416 270.1 398.1 288 376 288ZM288 384L304 416L272 544L224 352L288 384ZM416 352L368 544L336 416L352 384L416 352Z" fill="black"/>
</svg>
