<svg width="640" height="640" viewBox="0 0 640 640" fill="none" xmlns="http://www.w3.org/2000/svg">
<path d="M96 192C96 158.052 109.486 125.495 133.49 101.49C157.495 77.4857 190.052 64 224 64C257.948 64 290.505 77.4857 314.51 101.49C338.514 125.495 352 158.052 352 192C352 225.948 338.514 258.505 314.51 282.51C290.505 306.514 257.948 320 224 320C190.052 320 157.495 306.514 133.49 282.51C109.486 258.505 96 225.948 96 192ZM0 546.3C0 447.8 79.8 368 178.3 368H269.7C368.2 368 448 447.8 448 546.3C448 562.7 434.7 576 418.3 576H29.7C13.3 576 0 562.7 0 546.3ZM504 376V312H440C426.7 312 416 301.3 416 288C416 274.7 426.7 264 440 264H504V200C504 186.7 514.7 176 528 176C541.3 176 552 186.7 552 200V264H616C629.3 264 640 274.7 640 288C640 301.3 629.3 312 616 312H552V376C552 389.3 541.3 400 528 400C514.7 400 504 389.3 504 376Z" fill="black"/>
</svg>
