<svg width="16" height="16" viewBox="0 0 16 16" fill="none" xmlns="http://www.w3.org/2000/svg">
<g clip-path="url(#clip0_63_189)">
<path d="M4.25 0.25H0.75C0.473858 0.25 0.25 0.473858 0.25 0.75V4.25C0.25 4.52614 0.473858 4.75 0.75 4.75H4.25C4.52614 4.75 4.75 4.52614 4.75 4.25V0.75C4.75 0.473858 4.52614 0.25 4.25 0.25Z" fill="#696969"/>
<path d="M9.75 0.25H6.25C5.97386 0.25 5.75 0.473858 5.75 0.75V4.25C5.75 4.52614 5.97386 4.75 6.25 4.75H9.75C10.0261 4.75 10.25 4.52614 10.25 4.25V0.75C10.25 0.473858 10.0261 0.25 9.75 0.25Z" fill="#696969"/>
<path d="M15.25 0.25H11.75C11.4739 0.25 11.25 0.473858 11.25 0.75V4.25C11.25 4.52614 11.4739 4.75 11.75 4.75H15.25C15.5261 4.75 15.75 4.52614 15.75 4.25V0.75C15.75 0.473858 15.5261 0.25 15.25 0.25Z" fill="#696969"/>
<path d="M4.25 5.75H0.75C0.473858 5.75 0.25 5.97386 0.25 6.25V9.75C0.25 10.0261 0.473858 10.25 0.75 10.25H4.25C4.52614 10.25 4.75 10.0261 4.75 9.75V6.25C4.75 5.97386 4.52614 5.75 4.25 5.75Z" fill="#696969"/>
<path d="M9.75 5.75H6.25C5.97386 5.75 5.75 5.97386 5.75 6.25V9.75C5.75 10.0261 5.97386 10.25 6.25 10.25H9.75C10.0261 10.25 10.25 10.0261 10.25 9.75V6.25C10.25 5.97386 10.0261 5.75 9.75 5.75Z" fill="#696969"/>
<path d="M15.25 5.75H11.75C11.4739 5.75 11.25 5.97386 11.25 6.25V9.75C11.25 10.0261 11.4739 10.25 11.75 10.25H15.25C15.5261 10.25 15.75 10.0261 15.75 9.75V6.25C15.75 5.97386 15.5261 5.75 15.25 5.75Z" fill="#696969"/>
<path d="M4.25 11.25H0.75C0.473858 11.25 0.25 11.4739 0.25 11.75V15.25C0.25 15.5261 0.473858 15.75 0.75 15.75H4.25C4.52614 15.75 4.75 15.5261 4.75 15.25V11.75C4.75 11.4739 4.52614 11.25 4.25 11.25Z" fill="#696969"/>
<path d="M9.75 11.25H6.25C5.97386 11.25 5.75 11.4739 5.75 11.75V15.25C5.75 15.5261 5.97386 15.75 6.25 15.75H9.75C10.0261 15.75 10.25 15.5261 10.25 15.25V11.75C10.25 11.4739 10.0261 11.25 9.75 11.25Z" fill="#696969"/>
<path d="M15.25 11.25H11.75C11.4739 11.25 11.25 11.4739 11.25 11.75V15.25C11.25 15.5261 11.4739 15.75 11.75 15.75H15.25C15.5261 15.75 15.75 15.5261 15.75 15.25V11.75C15.75 11.4739 15.5261 11.25 15.25 11.25Z" fill="#696969"/>
</g>
<defs>
<clipPath id="clip0_63_189">
<rect width="16" height="16" fill="white"/>
</clipPath>
</defs>
</svg>
