<svg width="16" height="16" viewBox="0 0 16 16" fill="none" xmlns="http://www.w3.org/2000/svg">
<path d="M15.5 0H0.5C0.223858 0 0 0.223858 0 0.5C0 0.776142 0.223858 1 0.5 1H15.5C15.7761 1 16 0.776142 16 0.5C16 0.223858 15.7761 0 15.5 0Z" fill="#696969"/>
<path d="M6.5 2H0.5C0.223858 2 0 2.22386 0 2.5V8.96667C0 9.24282 0.223858 9.46667 0.5 9.46667H6.5C6.77614 9.46667 7 9.24282 7 8.96667V2.5C7 2.22386 6.77614 2 6.5 2Z" fill="#696969"/>
<path d="M15 2H9C8.72386 2 8.5 2.22386 8.5 2.5V13.6333C8.5 13.9095 8.72386 14.1333 9 14.1333H15C15.2761 14.1333 15.5 13.9095 15.5 13.6333V2.5C15.5 2.22386 15.2761 2 15 2Z" fill="#696969"/>
</svg>
