<svg width="16" height="16" viewBox="0 0 16 16" fill="none" xmlns="http://www.w3.org/2000/svg">
<g clip-path="url(#clip0_63_203)">
<path d="M15.5 0.75H0.5C0.223858 0.75 0 0.973858 0 1.25V2.75C0 3.02614 0.223858 3.25 0.5 3.25H15.5C15.7761 3.25 16 3.02614 16 2.75V1.25C16 0.973858 15.7761 0.75 15.5 0.75Z" fill="#696969"/>
<path d="M15.5 4.75H0.5C0.223858 4.75 0 4.97386 0 5.25V6.75C0 7.02614 0.223858 7.25 0.5 7.25H15.5C15.7761 7.25 16 7.02614 16 6.75V5.25C16 4.97386 15.7761 4.75 15.5 4.75Z" fill="#696969"/>
<path d="M15.5 8.75H0.5C0.223858 8.75 0 8.97386 0 9.25V10.75C0 11.0261 0.223858 11.25 0.5 11.25H15.5C15.7761 11.25 16 11.0261 16 10.75V9.25C16 8.97386 15.7761 8.75 15.5 8.75Z" fill="#696969"/>
<path d="M15.5 12.75H0.5C0.223858 12.75 0 12.9739 0 13.25V14.75C0 15.0261 0.223858 15.25 0.5 15.25H15.5C15.7761 15.25 16 15.0261 16 14.75V13.25C16 12.9739 15.7761 12.75 15.5 12.75Z" fill="#696969"/>
</g>
<defs>
<clipPath id="clip0_63_203">
<rect width="16" height="16" fill="white"/>
</clipPath>
</defs>
</svg>
